<?xml version="1.0" encoding="UTF-8"?>
<svg xmlns="http://www.w3.org/2000/svg" xmlns:xlink="http://www.w3.org/1999/xlink" id="Layer_1" style="enable-background:new 0 0 512 538;" version="1.1" viewBox="0 0 512 538" x="0px" xml:space="preserve" y="0px">
  <path class="st0" d="M329.5,301.6c58.4-14.5,135.1-38.6,177.8-72.8c-17.9-123.1-124-217.7-252.1-217.7  c-128.6,0-234.9,95.3-252.3,219.1c38.4,30.7,116.1,55.5,174.4,70.8c3.1,100.9,76.1,225.7,76.1,225.7S326.1,402.4,329.5,301.6z   M337.2,120.8c27,0,48.8,21.9,48.8,48.9c0,27-21.9,48.9-48.8,48.9c-27,0-48.9-21.9-48.9-48.9C288.3,142.7,310.2,120.8,337.2,120.8z   M109.1,169.9c0-26.7,21.6-48.3,48.4-48.3c26.7,0,48.3,21.6,48.3,48.3c0,26.7-21.6,48.4-48.3,48.4  C130.7,218.3,109.1,196.6,109.1,169.9z"/>
</svg>
