<?xml version="1.0" encoding="UTF-8"?>
<svg xmlns="http://www.w3.org/2000/svg" xmlns:xlink="http://www.w3.org/1999/xlink" enable-background="new 0 183.619 837.471 656.619" height="656.619px" id="FOND" version="1.1" viewBox="0 183.619 837.471 656.619" width="837.471px" x="0px" xml:space="preserve" y="0px">
  <path d="M460.884,590.978c-1.256-0.182-2.185-0.297-3.357-0.877c-1.11-0.549-6.202-3.656-4.557-5.238  c0.722-0.694,2.419-0.369,3.341-0.369c1.579,0,3.167,0.047,4.745,0.002c1.222-0.036,2.105-0.596,3.27-0.815  c1.123-0.211,2.591-0.185,3.718-0.055c0.471,0.055,2.319,0.18,2.266,0.969c-0.055,0.781-2.071,0.899-2.352,1.77  c-0.435,1.359,2.141,2.898,3.008,3.756c0.539,0.533,1.556,1.589,1.68,2.347c0.141,0.867-0.307,0.885-1.246,0.979  c-1.798,0.183-3.747,0.082-5.512-0.549C464.115,592.261,462.794,591.254,460.884,590.978z" fill="#5B6C8B"/>
</svg>
