<?xml version="1.0" encoding="UTF-8"?>
<svg xmlns="http://www.w3.org/2000/svg" xmlns:xlink="http://www.w3.org/1999/xlink" enable-background="new 0 183.619 837.471 656.619" height="656.619px" id="FOND" version="1.1" viewBox="0 183.619 837.471 656.619" width="837.471px" x="0px" xml:space="preserve" y="0px">
  <path d="M545.881,359.475c0.475-2.544-1.16-6.461,1.423-8.458c3.556-2.748,2.551,4.788,2.224,6.406  c-0.155,0.77-0.711,1.873-0.439,2.671c0.334,0.988,1.686,1.927,2.144,3.037c0.915,2.226,0.76,4.287,0.76,6.673  c0,4.122-1.566,13.796,3.667,15.297c0.098-1.635-0.347-5.948,1.821-6.314c2.686-0.453,1.72,6.652,1.733,7.993  c0.035,3.585,0.109,7.354,0.846,10.847c0.759,3.597,2.955,6.049,5.345,8.704c1.339,1.489,2.839,2.837,4.294,4.206  c0.521,0.49,2.812,2.189,2.652,3.057c-0.339,1.846-6.125-0.003-7.031-0.494c-6.359-3.445-14.945-10.559-14.649-18.408  c1.697-0.449,4.151,0.051,3.683-2.589c-0.312-1.75-1.145-0.45-2.432-1.468c-1.377-1.09,0.06-3.053-1.436-4.103  c-1.631-1.146-1.91,0.083-2.18,1.399c-0.208,1.021-0.524,2.247-1.885,1.381c-1.805-1.149-1.335-7.418-0.752-8.901  c1-2.543,3.545-5.688,2.624-8.691c-0.6-1.965-2.934-4.852-4.688-5.907c-0.148,2.818,1.01,4.156,2.025,6.315  c-1.412,0.164-2.482-0.327-3.472-1.316c-2.81-2.812-4.315-6.921-5.22-10.677c-0.491-2.042-0.825-4.4-0.34-6.474  c0.687-2.929,4.667-4.675,6.559-1.877C544.558,353.853,543.505,358.056,545.881,359.475z" fill="#3B425A"/>
</svg>
