<?xml version="1.0" encoding="UTF-8"?>
<svg xmlns="http://www.w3.org/2000/svg" xmlns:xlink="http://www.w3.org/1999/xlink" enable-background="new 0 183.619 837.471 656.619" height="656.619px" id="FOND" version="1.1" viewBox="0 183.619 837.471 656.619" width="837.471px" x="0px" xml:space="preserve" y="0px">
  <path d="M217.849,609.799c0.13,1.774,0.416,2.78,1.144,4.28c0.486,1.007,0.9,2.63,0.448,3.724  c-0.604,1.463-3.124,2.535-4.567,2.682c-2.562,0.26-5.056-0.309-7.562,0.644c-4.15,1.573-7.455,5.041-11.939,6.155  c-2.64,0.656-7.738,1.076-9.303-1.815c-0.77-1.424,0.296-2.886,1.539-3.562c3.347-1.817,6.216-0.002,9.563-0.69  c0.947-0.197,2.561-1.062,2.281-2.318c-0.264-1.188-2.546-1.662-3.401-2.084c-3.787-1.867-2.407-8.586,2.171-7.688  c1.545,0.303,2.612,1.241,4.287,1.184c1.979-0.068,3.406-0.357,4.744-1.541c1.688-1.492,3.771-4.08,6.232-4.322  C216.259,604.17,217.678,607.494,217.849,609.799z" fill="#5B6C8B"/>
</svg>
