<?xml version="1.0" encoding="UTF-8"?>
<svg xmlns="http://www.w3.org/2000/svg" xmlns:xlink="http://www.w3.org/1999/xlink" enable-background="new 0 183.619 837.471 656.619" height="656.619px" id="FOND" version="1.1" viewBox="0 183.619 837.471 656.619" width="837.471px" x="0px" xml:space="preserve" y="0px">
  <path d="M139.067,733.492c0.66,0.683,1.556,1.017,2.069,1.761c0.569,0.823,0.845,3.139,0.933,4.106  c0.26,2.848-1.556,9.473-5.612,8.338c-2.116-0.592-4.096-4.055-4.437-5.99c-0.243-1.383,0.133-2.489-0.848-3.719  c-2.978-3.729-7.835-3.887-8.676-9.362c-0.618-4.029,3.128-3.468,5.715-4.666c2.392-1.111,2.229-4.144,3.655-6.142  c1.768-2.479,3.689-4.901,5.702-7.151c1.215-1.359,5.399-3.113,7.149-1.826c1.599,1.178,0.159,3.086-1.146,3.828  c-1.563,0.891-2.863,1.342-3.977,2.789c-2.374,3.081-2.157,6.114-2.864,9.686c-0.313,1.592-0.937,2.553-0.373,4.285  C136.865,730.98,137.945,732.334,139.067,733.492z" fill="#3B425A"/>
</svg>
