<?xml version="1.0" encoding="UTF-8"?>
<svg xmlns="http://www.w3.org/2000/svg" xmlns:xlink="http://www.w3.org/1999/xlink" enable-background="new 0 183.619 837.471 656.619" height="656.619px" id="FOND" version="1.1" viewBox="0 183.619 837.471 656.619" width="837.471px" x="0px" xml:space="preserve" y="0px">
  <path d="M313.115,582.164c1.533-0.524,3.611,0.05,5.268-0.303c1.904-0.401,3.689-1.135,5.474-1.813  c1.516-0.576,3.16-1.535,4.841-1.304c2.329,0.322,4.841,4.117,5.786,6.199c0.722,1.59,1.157,3.635,2.168,5.062  c1.676,2.369,5.647,3.778,8.008,5.496c1.529,1.11,5.85,5.146,2.615,6.666c-1.781,0.84-7.662-1.388-8.235,1.555  c-0.46,2.363,4.815,3.643,5.053,5.934c0.32,3.115-6.042,4.201-8.077,3.156c-2.438-1.254-5.416-2.254-7.11-4.545  c-1.766-2.389-0.683-3.936-0.068-6.555c0.81-3.457,0.781-8.259-1.861-10.908c-3.291-3.301-7.752,1.051-11.57-0.228  C312.238,589.521,308.212,583.849,313.115,582.164z" fill="#5B6C8B"/>
</svg>
