<?xml version="1.0" encoding="UTF-8"?>
<svg xmlns="http://www.w3.org/2000/svg" xmlns:xlink="http://www.w3.org/1999/xlink" enable-background="new 0 183.619 837.471 656.619" height="656.619px" id="FOND" version="1.1" viewBox="0 183.619 837.471 656.619" width="837.471px" x="0px" xml:space="preserve" y="0px">
  <path d="M62.196,636.894c2.635-1.068,7.298,0.963,9.764,2.09c3.15,1.443,4.31,3.812,6.771,6.062  c1.659,1.518,2.97,2.305,5.208,2.383c1.537,0.053,3.162-0.236,4.656,0.25c2.566,0.836,5.011,2.565,6.985,4.352  c1.063,0.961,1.987,1.818,2.227,3.26c0.992,6.011-5.599,6.814-10.075,6.438c-2.478-0.207-6.371,0.148-8.108-1.906  c-1.491-1.764-1.539-4.074-3.805-5.133c-1.17-0.547-2.396-0.5-3.649-0.494c-3.042,0.016-5.327-1.912-7.815-3.496  c-1.768-1.127-2.896-2.278-5.028-2.211c-0.93,0.029-2.762-0.381-3.489,0.34c-0.769,0.763-0.216,1.361,0.749,1.425  c1.527,0.1,3.434-0.035,4.301,1.549c0.741,1.354-0.385,4.086-1.854,4.473c-2.379,0.631-4.243-1.854-6.371-2.434  c-1.61-0.439-3.501-0.064-4.997,0.59c-2.064,0.904-4.104,2.133-5.977,3.379c-1.45,0.963-2.444,2.584-3.249,4.064  c-0.604,1.112-0.932,2.159-2.312,2.428c-1.741,0.34-2.804-0.433-3.835-1.828c-1.634-2.207-2.357-5.074-1.104-7.576  c0.676-1.348,1.782-2.473,2.402-3.836c0.367-0.805,0.551-1.6,1.038-2.367c1.411-2.225,3.494-3.039,6.03-3.418  c2.096-0.312,4.269-0.371,6.378-0.414c1.641-0.033,3.335,0.142,4.413-1.162c1.458-1.758,0.414-3.711,1.156-5.555  c0.794-1.973,2.809-1.549,4.101-0.623C58.741,638.974,60.218,637.699,62.196,636.894z" fill="#5B6C8B"/>
</svg>
