<?xml version="1.0" encoding="UTF-8"?>
<svg xmlns="http://www.w3.org/2000/svg" xmlns:xlink="http://www.w3.org/1999/xlink" enable-background="new 0 183.619 837.471 656.619" height="656.619px" id="FOND" version="1.1" viewBox="0 183.619 837.471 656.619" width="837.471px" x="0px" xml:space="preserve" y="0px">
  <path d="M545.107,515.289c1.376-1.221,3.043-1.909,4.419-3.157c1.122-1.019,1.869-2.384,2.489-3.728  c0.346-0.75,0.459-1.69,1.32-2.061c1.025-0.438,0.954,0.52,1.896,0.203c0.539-0.181,1.003-1.07,1.399-1.48  c0.826-0.857,1.628-1.465,2.705-1.967c2.424-1.127,5.047-2.029,7.4-3.158c1.686-0.811,3.243-2.477,5.291-2.236  c-0.021,0.955-3.736,2.675-4.565,3.314c-1.474,1.135-3.271,1.686-4.766,2.789c-3.226,2.379-6.305,4.805-9.241,7.553  c-1.381,1.293-2.783,2.506-4.136,3.851c-0.703,0.7-1.562,1.176-2.28,1.846c-0.604,0.565-0.965,1.289-1.539,1.873  c-0.741,0.752-2.683,2.403-3.856,1.569C539.961,519.304,544.306,516.002,545.107,515.289z" fill="#5B6C8B"/>
</svg>
