<?xml version="1.0" encoding="UTF-8"?>
<svg xmlns="http://www.w3.org/2000/svg" xmlns:xlink="http://www.w3.org/1999/xlink" enable-background="new 0 183.619 837.471 656.619" height="656.619px" id="FOND" version="1.1" viewBox="0 183.619 837.471 656.619" width="837.471px" x="0px" xml:space="preserve" y="0px">
  <path d="M429.621,519.595c1.086,0.957,2.512,0.481,3.788,0.271c1.015-0.168,2.218-0.252,3.237-0.106  c0.71,0.102,4.167,0.602,3.988,1.823c-0.1,0.687-1.999,0.974-2.539,1.068c-1.166,0.205-2.244-0.025-3.265,0.711  c-1.071,0.775-1.771,1.926-2.863,2.695c-0.64,0.451-1.33,0.819-1.987,1.242c-0.495,0.319-0.965,0.752-1.548,0.905  c-1.765,0.463,0.136-2.434-0.025-3.229c-0.124-0.607-0.614-0.492-1.133-0.162c-0.927,0.594-1.715,1.42-2.503,2.176  c-0.604,0.58-1.232,0.873-2.046,1.104c-0.392,0.11-1.305,0.44-1.569-0.004c0.396-0.302,0.841-0.88,0.998-1.343  c0.137-0.407,0.09-0.7-0.243-0.83c-0.877-0.34-1.711,0.812-2.278,1.289c-0.567,0.478-1.398,1.185-2.221,1.07  c-0.951-0.129-0.938-1.699-0.705-2.418c0.213-0.66,0.686-1.176,1.122-1.686c0.601-0.699,1.168-1.429,1.786-2.111  c0.715-0.791,1.539-1.482,2.469-2.016c0.821-0.474,1.796-1.107,2.746-1.236c0.914-0.123,1.87-0.25,2.743,0.094  C428.291,519.187,429.01,519.052,429.621,519.595z" fill="#5B6C8B"/>
</svg>
