<?xml version="1.0" encoding="UTF-8"?>
<svg xmlns="http://www.w3.org/2000/svg" xmlns:xlink="http://www.w3.org/1999/xlink" enable-background="new 0 183.619 837.471 656.619" height="656.619px" id="FOND" version="1.1" viewBox="0 183.619 837.471 656.619" width="837.471px" x="0px" xml:space="preserve" y="0px">
  <path d="M174.877,544.99c1.949-0.016,2.045-0.125,3.15-1.312c0.829-0.89,1.617-2.853,3.153-2.537  c3.614,0.738-0.164,6.842-0.219,8.451c-0.133,3.936,3.399,0.457,3.803-1.291c0.662-2.877,0.295-4.406,2.396-6.603  c1.368-1.43,2.342-3.074,3.241-4.787c0.64-1.217,0.523-2.309,0.91-3.6c0.968-3.229,3.631-3.52,5.788-0.988  c2.143,2.515,0.854,5.066-0.858,7.47c-0.938,1.315-2.38,2.657-2.972,4.166c-1.102,2.809-0.302,7.282,0.012,10.155  c0.344,3.162,1.213,6.281,0.514,9.472c-0.668,3.047-2.779,6.114-4.553,8.629c-3.32,4.709-7.751,9.416-13.439,5.524  c-2.331-1.594-8.95-5.543-7.151-9.229c1.279-2.623,8.081-2.992,10.236-1.426c2.372,1.725-0.785,4.096-0.365,6.614  c3.011,1.08,6.398-2.715,6.678-5.514c0.341-3.432-3.182-5.482-6.112-5.758c-2.884-0.271-5.524,0.629-8.279,1.109  c-2.298,0.401-5.017-0.615-7.195,0.311c-2.18,0.926-2.699,3.928-3.538,6.049c-0.954,2.41-1.75,5.803-4.048,7.293  c-2.021,1.312-5.236,1.351-6.604,3.56c-1.128,1.819-0.897,4.987-0.177,6.877c0.227,0.594,0.57,1.272,1.01,1.748  c0.318,0.344,0.688,0.457,0.994,0.758c0.633,0.617,0.789,0.744,0.798,1.699c0.017,1.766-1.102,1.352-2.529,1.36  c-2.489,0.019-4.65,0.853-4.7,3.801c-0.03,1.923,1.332,2.316,2.685,3.148c1.547,0.953,3.13,2.898,2.511,4.881  c-0.261,0.838-1.312,2.094-2.203,2.258c-2.037,0.381-3.322-2.002-4.851-2.692c-1.739-0.789-4.175-0.131-5.851-1.248  c-0.615-0.41-1.94-1.795-2.062-2.418c-0.372-1.935,3.345-3.045,4.36-4.289c1.347-1.65,2.139-4.334,2.339-6.447  c0.313-3.34-2.346-4.578-5.404-4.328c-2.53,0.205-5.599,0.746-8.005,1.478c-3.357,1.021-6.398,3.014-9.195,5.069  c-1.629,1.197-6.128,2.797-5.955-0.674c0.113-2.27,2.569-4.238,4.318-5.354c2.34-1.496,5.142-2.56,7.91-2.867  c3.052-0.34,6.162,0.289,9.172-0.381c3.928-0.873,8.391-3.89,11.424-6.357c2.746-2.238,5.234-5.762,6.828-8.92  c1.517-3.006,3.318-5.725,4.405-8.939c0.768-2.271,0.819-4.952,1.751-7.122C161.353,546.293,169.714,545.033,174.877,544.99z" fill="#5B6C8B"/>
</svg>
