<?xml version="1.0" encoding="UTF-8"?>
<svg xmlns="http://www.w3.org/2000/svg" xmlns:xlink="http://www.w3.org/1999/xlink" enable-background="new 0 183.619 837.471 656.619" height="656.619px" id="FOND" version="1.1" viewBox="0 183.619 837.471 656.619" width="837.471px" x="0px" xml:space="preserve" y="0px">
  <path d="M476.658,549.535c0.805-0.065,1.681-0.078,2.407-0.471c0.606-0.326,1.029-0.928,1.674-1.184  c0.354-0.144,0.664-0.236,0.819,0.057c0.22,0.418-0.273,0.748,0.286,0.893c0.473,0.121,1.392-0.588,1.848-0.739  c0.692-0.23,1.329-0.312,2.056-0.293c0.196,0.729-1.314,1.35-1.775,1.627c-0.755,0.457-1.578,0.852-2.278,1.381  c-0.572,0.432-1.09,0.854-1.778,1.088c-0.676,0.229-1.344,0.17-2.04,0.248c-1.414,0.156-2.576,1.199-3.996,1.479  c-0.479,0.097-1,0.013-1.438,0.199c-0.464,0.199-0.944,0.727-1.336,1.039c-0.368,0.293-0.81,0.568-1.097,0.943  c-1.232,1.61-1.258,4.325-3.624,4.885c-0.995,0.231-1.73-0.002-2.35-0.838c-0.544-0.732-0.769-1.719-0.28-2.486  c0.918-1.449,2.436-1.43,3.757-2.299c1.119-0.738,1.936-1.91,2.7-2.986C471.646,550.06,474.422,549.719,476.658,549.535z" fill="#5B6C8B"/>
</svg>
