<?xml version="1.0" encoding="UTF-8"?>
<svg xmlns="http://www.w3.org/2000/svg" xmlns:xlink="http://www.w3.org/1999/xlink" enable-background="new 0 183.619 837.471 656.619" height="656.619px" id="FOND" version="1.1" viewBox="0 183.619 837.471 656.619" width="837.471px" x="0px" xml:space="preserve" y="0px">
  <path d="M501.507,533.041c1.322-0.053,2.516-0.106,3.814-0.463c0.702-0.192,1.438-0.729,2.196-0.629  c0.115,0.898-2.151,1.642-2.815,1.822c-0.582,0.158-1.084,0.33-1.606,0.627c-0.561,0.318-0.967,0.805-1.539,1.1  c-1.296,0.668-2.697,0.99-4.15,0.988c-0.575-0.002-1.001-0.086-1.444,0.318c-0.491,0.447-0.772,1.133-1.32,1.521  c-0.312,0.224-1.146,0.535-1.525,0.324c-0.386-0.215-0.525-1.037-0.846-1.391c-0.991-1.104-1.802-1.693-3.348-1.714  c-0.613-0.006-3.308,0.136-2.704-1.229c0.557-1.26,4.057-0.895,5.115-0.893C494.732,533.431,498.104,533.174,501.507,533.041z" fill="#5B6C8B"/>
</svg>
