<?xml version="1.0" encoding="UTF-8"?>
<svg xmlns="http://www.w3.org/2000/svg" xmlns:xlink="http://www.w3.org/1999/xlink" enable-background="new 0 183.619 837.471 656.619" height="656.619px" id="FOND" version="1.1" viewBox="0 183.619 837.471 656.619" width="837.471px" x="0px" xml:space="preserve" y="0px">
  <path d="M215.525,510.197c-2.066,0.463-4.242,0.322-6.268,0.826c-1.932,0.482-3.95,0.889-5.607,2.078  c-0.991,0.711-2.154,1.522-2.813,2.557c-0.708,1.109-0.633,2.084-1.083,3.267c-1.054,2.77-6.034,5.936-3.144,9.123  c0.904,0.997,2.304,1.532,3.178,2.446c1.842,1.931,1.493,3.953,1.176,6.367c-0.091,0.689-0.229,1.158,0.286,1.67  c0.738,0.738,3.17,0.854,3.998,0.33c0.728-0.461,0.673-1.135,0.818-1.938c0.352-1.914,1.044-3.375,1.947-5.099  c1.093-2.086,3.237-3.012,4.999-4.436c1.144-0.922,3.76-2.306,1.288-3.562c-0.874-0.442-2.872-0.305-3.706-0.09  c-1.648,0.424-2.793,1.933-4.336,2.621c-1.877,0.838-3.974,1.078-3.471-1.41c0.444-2.205,2.628-2.889,3.809-4.521  c0.396-0.549,0.354-1.375,0.538-2.017c0.276-0.959,0.771-1.844,1.612-2.483c3.195-2.439,7.089,0.389,10.676-0.467  c1.379-0.33,2.515-1.261,3.097-2.556c0.581-1.293,1.081-4.151-0.944-4.416c-0.915-0.119-1.93,0.625-2.775,0.894  C217.727,509.722,216.621,509.953,215.525,510.197z" fill="#5B6C8B"/>
</svg>
