<?xml version="1.0" encoding="UTF-8"?>
<svg xmlns="http://www.w3.org/2000/svg" xmlns:xlink="http://www.w3.org/1999/xlink" enable-background="new 0 183.619 837.471 656.619" height="656.619px" id="FOND" version="1.1" viewBox="0 183.619 837.471 656.619" width="837.471px" x="0px" xml:space="preserve" y="0px">
  <path d="M218.125,631.238c0.413,1.152,1.606,1.916,1.904,3.152c0.725,3.008-1.029,6.119-2.946,8.271  c-1.113,1.252-4.828,4.986-6.624,2.746c-0.821-1.022,0.115-1.873,0.499-2.791c1.391-3.338-1.515-6.434-5.002-6.371  c-1.271,0.023-2.293,0.687-3.479,1.047c-1.868,0.568-3.782,0.544-5.704,0.613c-1.68,0.062-4.21,0.746-4.882-1.024  c-1.424-3.759,4.601-5.05,6.643-6.021c2.11-1.008,4.342-2.348,6.227-3.705c1.625-1.172,3.351-2.76,5.318-3.291  c2.197-0.596,5.328-1.236,7.535-0.43C221.266,624.767,217.16,628.547,218.125,631.238z" fill="#5B6C8B"/>
</svg>
