<?xml version="1.0" encoding="UTF-8"?>
<svg xmlns="http://www.w3.org/2000/svg" xmlns:xlink="http://www.w3.org/1999/xlink" enable-background="new 0 183.619 837.471 656.619" height="656.619px" id="FOND" version="1.1" viewBox="0 183.619 837.471 656.619" width="837.471px" x="0px" xml:space="preserve" y="0px">
  <path d="M619.918,243.508c-0.032,1.722,0.966,2.528,1.557,4.046c0.812,2.086-1.165,2.495-2.597,3.487  c-0.854,0.593-2.008,1.555-0.661,1.968c0.836,0.258,1.815-0.162,2.604-0.273c1.021-0.146,2.396-0.179,3.41-0.026  c0.916,0.137,2.516,1.484,3.451,1.085c0.984-0.42-2.557-4.49-2.798-5.065c-0.521-1.24-0.209-2.237-1.165-3.398  C622.818,244.231,621.414,243.227,619.918,243.508z" fill="#3B425A"/>
</svg>
