<?xml version="1.0" encoding="UTF-8"?>
<svg xmlns="http://www.w3.org/2000/svg" xmlns:xlink="http://www.w3.org/1999/xlink" enable-background="new 0 183.619 837.471 656.619" height="656.619px" id="FOND" version="1.1" viewBox="0 183.619 837.471 656.619" width="837.471px" x="0px" xml:space="preserve" y="0px">
  <path d="M706.839,394.851c-0.758-0.594-2.161-0.948-3.081-1.336c-0.824-0.348-1.428-0.519-2.31-0.487  c-0.128,0.502,0.508,1.122,0.06,1.471c-0.131,0.104-1.261,0.055-1.465,0.002c-0.704-0.18-1.033-0.813-1.405-1.396  c-1.141-1.778-2.391-3.373-4.287-4.341c-2.09-1.065-5.079-3.262-5.67-5.694c2.642-0.057,3.916,1.617,6.062,2.832  c2.694,1.526,5.868,2.291,8.849,3.14c1.575,0.449,3.19,0.595,4.694,1.236c1.192,0.51,2.428,0.615,3.7,0.824  c0.959,0.157,4.763,0.365,4.952,1.627c-0.544,0.243-1.513,0.581-0.833,1.045c0.737,0.504,2.692-0.051,3.487-0.098  c0.894-0.053,1.511,0.394,2.318,0.672c0.889,0.305,1.749,0.446,2.59,0.883c0.929,0.48,2.192,0.985,2.464,2.069  c-0.585,0.368-1.816,0.143-2.505,0.143c-0.768,0-2.606-0.323-3.2,0.226c-0.619,0.57,1.27,1.795,1.411,2.709  c-3.407,1.288-5.896-4.063-9.134-3.962c-0.098,0.869,1.92,2.569,0.791,3.236c-0.898,0.531-2.256-0.367-3.147-0.575  C709.043,398.576,708.437,396.1,706.839,394.851z" fill="#5B6C8B"/>
</svg>
