<?xml version="1.0" encoding="UTF-8"?>
<svg xmlns="http://www.w3.org/2000/svg" xmlns:xlink="http://www.w3.org/1999/xlink" enable-background="new 0 183.619 837.471 656.619" height="656.619px" id="FOND" version="1.1" viewBox="0 183.619 837.471 656.619" width="837.471px" x="0px" xml:space="preserve" y="0px">
  <path d="M266.017,570.135c0.404-0.906,1.354-0.888,2.062-0.492c1.536,0.854,3.095,1.926,5.022,1.582  c1.515-0.271,2.812-1.65,4.317-2.047c1.513-0.396,3.839-0.146,5.409-0.023c1.595,0.127,3.244,0.338,4.812,0.687  c2.223,0.491,4.172,1.045,6.283,1.868c0.719,0.279,1.378,0.281,1.798,1.007c0.434,0.747,0.27,1.801-0.582,2.147  c-2.947,1.207-5.874-1.961-8.633-2.248c-2.055-0.215-4.389-0.199-6.424-0.018c-0.831,0.076-1.48,0.303-2.146,0.735  c-0.479,0.314-0.994,0.839-1.653,0.941c-0.892,0.141-1.502-0.422-2.327-0.57c-2.031-0.366-3.862,1.197-5.869,0.966  C266.344,574.467,265.329,571.677,266.017,570.135z" fill="#5B6C8B"/>
</svg>
