<?xml version="1.0" encoding="UTF-8"?>
<svg xmlns="http://www.w3.org/2000/svg" xmlns:xlink="http://www.w3.org/1999/xlink" enable-background="new 0 183.619 837.471 656.619" height="656.619px" id="FOND" version="1.1" viewBox="0 183.619 837.471 656.619" width="837.471px" x="0px" xml:space="preserve" y="0px">
  <path d="M204.756,712.375c0.396,0.582,1.021,0.851,1.459,1.384c1.064,1.297,1.539,3.192,1.823,4.903  c0.389,2.347,0.984,4.982-0.711,6.849c-0.853,0.936-4.529,4.576-6.218,2.789c-0.879-0.933-0.182-3.314-0.166-4.468  c0.025-1.94-0.215-3.895-0.354-5.829c-0.156-2.158-0.295-4.343-0.056-6.498c0.173-1.562,0.343-4.238,0.983-5.683  c0.729-1.633,2.087-1.049,2.685,0.617C204.898,708.385,203.491,710.519,204.756,712.375z" fill="#3B425A"/>
</svg>
