<?xml version="1.0" encoding="UTF-8"?>
<svg xmlns="http://www.w3.org/2000/svg" xmlns:xlink="http://www.w3.org/1999/xlink" enable-background="new 0 183.619 837.471 656.619" height="656.619px" id="FOND" version="1.1" viewBox="0 183.619 837.471 656.619" width="837.471px" x="0px" xml:space="preserve" y="0px">
  <path d="M490.156,577.906c1.208-0.008,1.91-0.381,2.967-0.879c0.562-0.266,2.218-1.166,2.841-0.777  c0.794,0.494-0.236,1.753-0.109,2.349c0.28,1.313,1.99-0.084,2.467,0.901c0.787,1.63-3.079,2.72-3.729,3.539  c-0.851,1.072,0.076,1.576,0.386,2.41c0.138,0.367-0.18,0.959-0.009,1.312c0.264,0.539,1.031,0.588,1.582,0.684  c0.858,0.148,2.341,0.387,1.561,1.771c-0.391,0.69-1.146,0.403-1.172,1.27c-0.021,0.687,0.715,0.728,0.772,1.359  c0.135,1.496-3.205,1.787-4.147,1.791c-1.148,0.006-2.265,0.139-3.321-0.369c-0.937-0.449-1.463-0.752-2.564-0.812  c-2.892-0.153-5.759,0.854-8.673,0.494c-2.578-0.317-4.674-3.424-5.561-5.684c0.908-0.293,2.032-0.166,2.896,0.147  c0.977,0.354,2.887,1.476,3.758,0.242c1.502-2.125-4.773-3.613-5.804-4.258c-0.972-0.607-1.852-1.58-2.788-2.287  c-1.306-0.984-2.815-2.422-3.577-3.877c-0.894-1.705-0.87-3.732-0.877-5.596c-0.002-1.06-0.154-1.707,0.677-1.187  c0.782,0.492,1.342,2.179,1.899,2.927c0.556,0.743,1.249,2.192,2.166,2.549c1.858,0.721,3.004-0.828,4.306,1.268  c1.209,1.953,1.944,1.717,3.913,1.992c1.005,0.141,1.244,0.607,1.856,1.445c0.89,1.215,1.719,2.063,3.229,2.467  c0.271-1.564-1.262-1.822-1.7-3.154C482.445,577.049,488.745,577.916,490.156,577.906z" fill="#5B6C8B"/>
</svg>
