<?xml version="1.0" encoding="UTF-8"?>
<svg xmlns="http://www.w3.org/2000/svg" xmlns:xlink="http://www.w3.org/1999/xlink" enable-background="new 0 183.619 837.471 656.619" height="656.619px" id="FOND" version="1.1" viewBox="0 183.619 837.471 656.619" width="837.471px" x="0px" xml:space="preserve" y="0px">
  <path d="M244.366,739.72c-0.255,1.918-1.039,3.703-1.172,5.627c-0.09,1.313,0.174,2.645-0.15,3.93  c-0.277,1.094-1.982,3.916-3.399,3.793c-1.481-0.129-1.47-2.615-1.61-3.879c-0.328-2.928-0.133-5.873-0.135-8.816  c-0.001-0.778,0.264-2.065,0.018-2.811c-0.46-1.389-1.961-2.221-3.017-3.117c-2.082-1.77-3.922-3.858-5.367-6.19  c-1.401-2.259-2.096-5.185-2.407-7.767c-0.322-2.68-1.665-6.733,0.26-9.059c1.695-2.049,4.068-1.969,5.13,0.582  c0.91,2.186-0.712,4.983,1.245,6.926c2.935,2.91,7.333-5.209,8.819-0.34c0.52,1.699-0.198,3.379-0.603,5.016  c-0.468,1.896-0.268,2.465,0.454,4.09C244.009,731.263,244.876,735.853,244.366,739.72z" fill="#5B6C8B"/>
</svg>
