<?xml version="1.0" encoding="UTF-8"?>
<svg xmlns="http://www.w3.org/2000/svg" xmlns:xlink="http://www.w3.org/1999/xlink" enable-background="new 0 183.619 837.471 656.619" height="656.619px" id="FOND" version="1.1" viewBox="0 183.619 837.471 656.619" width="837.471px" x="0px" xml:space="preserve" y="0px">
  <path d="M135.56,810.277c1.386,1.088,1.957,0.758,3.522,0.967c2.041,0.273,3.03,1.84,3.915,3.662  c0.891,1.84,0.227,3.437,0.645,5.281c0.266,1.174,1.247,1.951,1.953,2.896c0.801,1.072,1.088,1.775,1.063,3.375  c-0.078,5.06-3.844,6-8.069,3.73c-5.327-2.863-4.126-7.146-4.93-12.414c-0.808-5.287-4.856-7.789-6.651-12.545  c-1.565-4.15-3.179-14.051,0.7-17.541c3.405-3.066,2.647,6.225,2.607,7.611c-0.049,1.772-0.638,4.036-0.305,5.771  c0.285,1.482,1.424,3.228,1.993,4.631C132.716,807.455,134.066,809.107,135.56,810.277z" fill="#3B425A"/>
</svg>
