<?xml version="1.0" encoding="UTF-8"?>
<svg xmlns="http://www.w3.org/2000/svg" xmlns:xlink="http://www.w3.org/1999/xlink" enable-background="new 0 183.619 837.471 656.619" height="656.619px" id="FOND" version="1.1" viewBox="0 183.619 837.471 656.619" width="837.471px" x="0px" xml:space="preserve" y="0px">
  <path d="M414.519,558.279c0.289,1.756,1.825,2.736,2.08,4.613c0.187,1.377-0.506,3.311,0.225,4.541  c0.544,0.92,2.825,0.904,2.583,2.166c-0.565,2.963-6.709-0.451-8.055-0.1c-1.735,0.454-2.565,2.618-1.993,4.256  c0.837,2.396,5.02,4.104,7.255,4.586c3.618,0.776,7.71,0.434,9.085-3.568c0.985-2.869,0.691-6.422-0.266-9.184  c-1.148-3.314-1.194-6.252-1.177-9.716c0.016-2.645,1.781-4.678,1.9-7.168c-1.475-0.27-3.168,2.048-3.717,3.244  c-0.583,1.275-0.385,2.728-0.863,4.099c-2.541,0.676-3.058-5.023-4.281-6.377c-1.588-1.755-2.985-0.312-3.404,1.506  c-0.215,0.932-0.106,1.705,0.093,2.61c0.131,0.591,0.395,0.894,0.48,1.576C414.584,556.322,414.358,557.306,414.519,558.279z" fill="#3B425A"/>
</svg>
