<?xml version="1.0" encoding="UTF-8"?>
<svg xmlns="http://www.w3.org/2000/svg" xmlns:xlink="http://www.w3.org/1999/xlink" enable-background="new 0 183.619 837.471 656.619" height="656.619px" id="FOND" version="1.1" viewBox="0 183.619 837.471 656.619" width="837.471px" x="0px" xml:space="preserve" y="0px">
  <path d="M794.862,295.972c1.276,1.226,1.834,2.99,3.072,4.241c1.423,1.439,3.393,2.168,4.803,3.651  c1.258,1.323,2.512,2.578,3.793,3.857c1.461,1.46,3.022,2.54,4.648,3.816c1.463,1.148,2.586,2.699,4.053,3.805  c1.229,0.928,2.913,1.838,4.401,2.26c1.254,0.355,3.183,0.452,4.241,1.354c1.614,1.374,0.816,5.235-0.997,6.27  c-2.383,1.356-4.988-1.301-6.492-2.729c-2.589-2.456-5.159-4.534-7.524-7.271c-2.489-2.884-4.473-6.012-7.042-8.849  c-0.968-1.068-2.135-1.7-3.136-2.677c-1.164-1.135-1.854-2.77-2.982-3.954c-1.4-1.471-2.858-2.971-4.344-4.311  c-1.286-1.162-5.642-4.521-5.327-6.428c0.152-0.928,2.802,0.847,2.987,1.018c1.003,0.921,1.654,2.171,2.581,3.158  C792.579,294.234,793.825,294.98,794.862,295.972z" fill="#5B6C8B"/>
</svg>
