<?xml version="1.0" encoding="UTF-8"?>
<svg xmlns="http://www.w3.org/2000/svg" xmlns:xlink="http://www.w3.org/1999/xlink" enable-background="new 0 183.619 837.471 656.619" height="656.619px" id="FOND" version="1.1" viewBox="0 183.619 837.471 656.619" width="837.471px" x="0px" xml:space="preserve" y="0px">
  <path d="M389.145,553.271c0.449-0.615,1.447-2.092,2.385-1.551c0.619,0.356,0.406,0.926,0.203,1.494  c-0.547,1.534-2.427,2.543-2.712,4.065c-0.294,1.568,1,3.539,2.317,4.252c1.608,0.869,4.031,1.564,4.967,3.322  c1.396,2.625,0.111,5.344-2.343,6.703c-1.467,0.812-1.595,0.467-2.613-0.859c-0.798-1.037-1.352-1.557-1.893-2.69  c-0.476-1-1.229-1.883-1.686-2.916c-0.861-1.947-2.337-3.914-2.083-6.154C385.909,556.97,388.001,554.832,389.145,553.271z" fill="#5B6C8B"/>
</svg>
