<?xml version="1.0" encoding="UTF-8"?>
<svg xmlns="http://www.w3.org/2000/svg" xmlns:xlink="http://www.w3.org/1999/xlink" enable-background="new 0 183.619 837.471 656.619" height="656.619px" id="FOND" version="1.1" viewBox="0 183.619 837.471 656.619" width="837.471px" x="0px" xml:space="preserve" y="0px">
  <path d="M68.833,618.242c1.472,0.203,3.126,0.115,4.514,0.697c1.379,0.58,2.622,2.191,1.551,3.707  c-1.342,1.898-3.29-0.059-4.713-0.617c-1.27-0.498-2.197-1.1-3.577-1.051c-0.989,0.033-1.88,0.232-2.816,0.453  c-1.175,0.276-4.122,1.035-5.111,0.195c-1.799-1.525,0.992-3.521,1.984-4.259c0.502-0.373,1.005-0.629,1.605-0.813  c1.177-0.357,2.748-0.795,3.906-0.193C67.17,616.879,67.632,618.078,68.833,618.242z" fill="#5B6C8B"/>
</svg>
