<?xml version="1.0" encoding="UTF-8"?>
<svg xmlns="http://www.w3.org/2000/svg" xmlns:xlink="http://www.w3.org/1999/xlink" enable-background="new 0 183.619 837.471 656.619" height="656.619px" id="FOND" version="1.1" viewBox="0 183.619 837.471 656.619" width="837.471px" x="0px" xml:space="preserve" y="0px">
  <path d="M128.496,590.449c1.542-0.727,3.226-1.211,4.839-1.776c0.91-0.32,1.648-0.729,2.591-0.363  c1.756,0.68,2.772,2.484,2.108,4.219c-1.002,2.619-3.512,3.594-5.638,5.101c-1.18,0.836-1.86,1.78-2.015,3.151  c-0.111,0.996-0.579,1.644-1.034,2.498c-0.315,0.596-0.443,1.205-0.899,1.711c-1.045,1.152-2.894,1.006-4.282,1.349  c-1.145,0.28-3.115,0.5-3.752,1.692c-0.144,0.269-0.243,1.717-0.053,2c0.194,0.287,0.749,0.244,0.991,0.582  c1.31,1.832-2.025,1.586-2.94,1.795c-0.869,0.199-2.068,1.41-2.238,2.283c-0.225,1.148,0.894,2.205,0.886,3.391  c-0.01,1.722-1.36,3.798-3.391,3.091c-0.899-0.314-1.854-1.982-2.332-2.744c-0.537-0.857-0.664-1.783-0.598-2.806  c0.126-1.948,1.828-3.444,2.438-5.227c0.381-1.115,0.048-2.496,0.653-3.539c1.087-1.867,3.248-1.984,4.916-3.047  c0.87-0.555,1.796-1.246,2.479-2.029c0.641-0.731,0.444-1.649,0.401-2.608c-0.038-0.839-0.275-2.062-0.057-2.871  c0.3-1.101,1.802-2.365,2.657-3.107C125.501,592.092,126.976,591.166,128.496,590.449z" fill="#5B6C8B"/>
</svg>
