<?xml version="1.0" encoding="UTF-8"?>
<svg xmlns="http://www.w3.org/2000/svg" xmlns:xlink="http://www.w3.org/1999/xlink" enable-background="new 0 183.619 837.471 656.619" height="656.619px" id="FOND" version="1.1" viewBox="0 183.619 837.471 656.619" width="837.471px" x="0px" xml:space="preserve" y="0px">
  <path d="M673.046,397.138c-0.438-0.753-1.149-2.312-0.579-3.169c0.572-0.86,1.44-0.305,2.058,0.08  c1.04,0.65,1.987,1.249,3.27,1.113c1.089-0.114,2.027-0.433,3.126-0.01c0.687,0.265,3.128,1.256,2.882,2.199  c-0.49,0.114-0.92,0.337-1.427,0.39c-0.413,0.044-0.884-0.093-1.291-0.009c-0.929,0.19-0.918,0.671-0.951,1.526  c-0.021,0.572,0.175,1.311-0.311,1.726c-1.147,0.982-2.84-0.13-3.75-0.9C675.009,399.181,673.768,398.374,673.046,397.138z" fill="#5B6C8B"/>
</svg>
