<?xml version="1.0" encoding="UTF-8"?>
<svg xmlns="http://www.w3.org/2000/svg" xmlns:xlink="http://www.w3.org/1999/xlink" enable-background="new 0 183.619 837.471 656.619" height="656.619px" id="FOND" version="1.1" viewBox="0 183.619 837.471 656.619" width="837.471px" x="0px" xml:space="preserve" y="0px">
  <path d="M712.721,416.96c1.109-0.396,2.289-0.729,3.449-0.942c2.699-0.502,5.423-0.438,8.156-0.438  c1.003,0,4.788,0.541,3.744-1.514c-0.425-0.837-1.854-1.247-2.646-1.567c-1.098-0.442-2.238-0.581-3.412-0.521  c0.025,0.608,1.501,0.743,1.615,1.601c-1.168-0.026-2.445,0.158-3.662,0.158c-0.771,0-1.647-0.115-2.401,0.062  c-0.756,0.179-1.43,0.645-2.212,0.825c-0.737,0.17-1.705,0.275-2.465,0.137c-0.963-0.178-1.607-0.988-2.356-1.542  c-0.646-0.479-2.237-1.796-2.382-0.376c-0.115,1.133,0.497,1.5-1.117,1.636c-1.385,0.118-2.539-0.817-3.844-1.041  c-1.169-0.201-2.23-0.688-3.365-0.994c-0.758-0.204-1.812-0.785-2.572-0.762c-0.065,0.611,0.634,1.418,0.122,1.764  c-0.451,0.308-1.381-0.308-1.683-0.574c-0.702-0.617-0.667-1.305-0.879-2.155c-0.183-0.729-0.377-1.685-0.887-2.215  c-0.808-0.844-1.604-1.065-1.851-2.363c-0.303-1.588,0.114-3.253,0.07-4.854c-1.341-0.142-2.526,1.419-3.188,2.426  c-0.929,1.412-1.024,3.388-0.016,4.766c0.702,0.956,1.702,1.634,2.397,2.624c0.93,1.322,2.179,2.188,3.522,3.083  c1.38,0.917,2.575,1.893,4.221,2.271c1.381,0.317,2.873,0.403,4.28,0.255c0.295-0.031,1.716-0.438,1.97-0.157  c0.354,0.395-0.527,0.942-0.489,1.377c0.906,0.313,1.818,0.161,2.711-0.055c0.931-0.225,1.893-0.311,2.847-0.352  C711.375,417.479,711.817,417.28,712.721,416.96z" fill="#5B6C8B"/>
</svg>
