<?xml version="1.0" encoding="UTF-8"?>
<svg xmlns="http://www.w3.org/2000/svg" xmlns:xlink="http://www.w3.org/1999/xlink" enable-background="new 0 183.619 837.471 656.619" height="656.619px" id="FOND" version="1.1" viewBox="0 183.619 837.471 656.619" width="837.471px" x="0px" xml:space="preserve" y="0px">
  <path d="M158.98,694.154c1.267,1.193,0.621,2.527-0.466,3.791c-1.66,1.935-2.901,4.271-2.895,6.84  c0.006,1.765,0.563,4.109-1.092,5.177c-1.188,0.766-4.344,0.532-5.22-0.736c-0.695-1.008-0.758-2.92-0.768-4.105  c-0.024-3.021,1.031-6.473,2.333-9.161c0.616-1.275,1.499-2.943,2.905-3.5c1.44-0.568,4.014,0.655,5.104,1.61  C158.919,694.097,158.95,694.125,158.98,694.154z" fill="#3B425A"/>
</svg>
