<?xml version="1.0" encoding="UTF-8"?>
<svg xmlns="http://www.w3.org/2000/svg" xmlns:xlink="http://www.w3.org/1999/xlink" enable-background="new 0 183.619 837.471 656.619" height="656.619px" id="FOND" version="1.1" viewBox="0 183.619 837.471 656.619" width="837.471px" x="0px" xml:space="preserve" y="0px">
  <path d="M553.574,275.374c1.68-2.485,4.518-6.867,7.949-6.43c0.521,1.679-2.326,4.201-2.89,5.765  c-0.451,1.251-0.164,1.41,0.175,2.553c0.59,1.983,0.021,2.366-0.68,4.281c-0.384,1.041-0.711,2.386-0.067,3.352  c2.074,3.11,5.358-0.812,6.599-2.418c1.813-2.349,4.62-6.159,8.104-5.721c-0.064,2.4-3.018,5.654-4.148,7.808  c-1.351,2.571-2.046,5.296-3.48,7.794c-3.263,5.677-6.398,13.772-6.816,20.348c-0.333,5.254-1.618,10.562-1.913,15.916  c-0.118,2.152,0.368,4.975-0.133,7.062c-0.521,2.172-1.382,1.057-2.064-0.562c-1.536-3.648-2.474-7.3-3.041-11.21  c-0.343-2.356,0.653-4.67-0.348-6.754c-0.802-1.667-4.247-5.432-2.968-7.489c0.688-1.109,3.338,0.304,4.421-0.565  c1.538-1.234,0.648-4.931,1.062-6.477c0.833-3.127,4.521-3.919,6.151-6.562c3.575-5.79-6.574-9.341-10.298-6.242  c-2.346,1.951-4.289,5.967-4.113,9.025c4.148,1.071-2.291,6.436-4.852,3.939c-2.263-2.204,0.358-6.104,1.557-7.942  c1.271-1.95,2.265-3.972,3.768-5.765c1.618-1.929,2.643-4.321,3.711-6.554C550.449,280.034,552.025,277.67,553.574,275.374z" fill="#5B6C8B"/>
</svg>
