<?xml version="1.0" encoding="UTF-8"?>
<svg xmlns="http://www.w3.org/2000/svg" xmlns:xlink="http://www.w3.org/1999/xlink" enable-background="new 0 183.619 837.471 656.619" height="656.619px" id="FOND" version="1.1" viewBox="0 183.619 837.471 656.619" width="837.471px" x="0px" xml:space="preserve" y="0px">
  <path d="M503.24,540.25c0.529-0.813,1.251-1.456,1.969-2.102c0.43-0.387,0.899-0.959,1.519-0.965  c0.418,0.998-0.853,2.248-0.044,3.203c0.356,0.422,0.636,0.305,1.093,0.395c0.431,0.086,0.364,0.111,0.649,0.492  c1.112,1.494,2.376-0.635,3.147-1.393c1.342-1.32,2.872-0.175,4.452-0.574c0.592-0.15,3.109-1.744,2.487,0.104  c-0.329,0.984-1.682,1.127-2.489,1.433c-0.625,0.233-1.25,0.471-1.896,0.646c-0.465,0.125-1.077,0.188-1.495,0.437  c-0.729,0.434-1.237,1.344-1.898,1.887c-0.854,0.701-1.953,1.119-3.007,1.416c-0.96,0.271-1.999,0.305-2.993,0.348  c-0.6,0.025-1.157,0.13-0.755-0.498c0.286-0.44,0.716-0.719,0.627-1.323c-0.519-0.023-0.891,0.004-1.317,0.336  c-0.312,0.242-0.649,0.69-1.097,1.168c-0.535,0.309-1.353,0.672-1.964,0.959c-0.811,0.381-1.636,0.701-2.504,0.924  c-1.354,0.344-2.723,0.625-4.076,0.939c-2.486,0.58-4.899,1.647-7.103,2.914c-0.854,0.489-1.621,1.055-2.565,1.356  c-0.812,0.26-1.617,0.269-2.438,0.412c0.106-0.416,0.738-0.781,1.044-1.031c1.219-1.004,2.523-1.903,4.009-2.467  c1.591-0.604,2.896-1.451,4.048-2.701c-0.483-0.219-1.341-0.125-1.875-0.141c-1.006-0.035-2.021-0.037-3.025,0.022  c-1.056,0.062-4.171,0.379-3.896-1.541c0.114-0.797,1.095-0.871,1.778-0.955c1.118-0.139,2.292-0.301,3.419-0.188  c1.79,0.182,3.456,0.289,5.177-0.307c-0.246-0.818-2.03-1.729-2.721-2.187c-0.9-0.592-1.49-1.285-1.72-2.358  c-0.06-0.277-0.279-1.216-0.1-1.488c0.198-0.303,1.295-0.172,1.639-0.148c0.817,0.056,1.296,0.287,1.675,1.033  c0.608,1.199,1.478,2.635,3.115,2.207c0.91-0.238,1.758-1.15,2.629-1.551c0.307-0.142,0.661-0.365,0.975-0.178  c1.216,0.729-0.695,2.456-0.839,3.206c-0.197,1.025,1.107,1.4,1.875,1.509c1.021,0.145,2.403-0.177,3.213-0.849  C502.611,542.109,502.78,540.959,503.24,540.25z" fill="#5B6C8B"/>
</svg>
