<?xml version="1.0" encoding="UTF-8"?>
<svg xmlns="http://www.w3.org/2000/svg" xmlns:xlink="http://www.w3.org/1999/xlink" enable-background="new 0 183.619 837.471 656.619" height="656.619px" id="FOND" version="1.1" viewBox="0 183.619 837.471 656.619" width="837.471px" x="0px" xml:space="preserve" y="0px">
  <path d="M389.325,526.472c-2.695,0.559-5.062,0.041-7.675-0.416c-2.149-0.375-4.98-0.188-6.342,1.764  c-2.289,3.283,2.731,2.129,4.396,2.432c0.9,0.162,3.908,1.117,4.24,2.199c0.321,1.053,0.297,0.295-0.371,1.31  c-0.594,0.899-2.984,1.856-4.059,2.219c-1.37,0.463-2.959,0.504-4.365,0.914c-2.481,0.721-3.49,2.414-4.758,4.367  c-2.651,4.08-4.691,4.821-9.377,5.805c-5.13,1.074-14.347,6.951-8.204,12.783c1.4,1.33,3.921,2.785,5.81,3.112  c0.807,0.14,1.717-0.028,2.525-0.008c2.351,0.07,4.399,0.736,6.681,1.142c2.95,0.522,6.658,1.237,9.552,0.471  c1.635-0.434,1.593-1.824,1.17-3.422c-0.552-2.08-2.926-5.777-5.666-4.816c-1.968,0.689,0.533,2.259-1.371,3.107  c-1.497,0.67-2.8-0.541-3.971-1.047c-1.773-0.769-3.402-0.205-5.24-0.289c-2.796-0.127-4.704-1.146-3.521-4.279  c1.347-3.57,5.646-2.68,8.424-3.899c1.775-0.781,3.36-2.849,4.545-4.341c0.958-1.205,2.025-3.43,3.561-3.932  c2.062-0.672,4.67,1.184,6.661,0.182c1.104-0.559,2.067-2.188,2.906-3.051c1.16-1.197,2.554-2.053,3.463-3.457  c1.723-2.658,2.542-4.25,5.377-5.756c3.316-1.762,4.845-4.166,7.459-6.641c1.107-1.048,3.027-1.38,3.932-2.644  c1.232-1.725-0.813-2.229-2.231-1.889c-1.397,0.334-3.071,1.479-4.317,2.186C395.33,522.41,393.133,525.683,389.325,526.472z" fill="#3B425A"/>
</svg>
