<?xml version="1.0" encoding="UTF-8"?>
<svg xmlns="http://www.w3.org/2000/svg" xmlns:xlink="http://www.w3.org/1999/xlink" enable-background="new 0 183.619 837.471 656.619" height="656.619px" id="FOND" version="1.1" viewBox="0 183.619 837.471 656.619" width="837.471px" x="0px" xml:space="preserve" y="0px">
  <path d="M52.705,789.301c-3.373,2.135-7.633,0.723-11.052,2.432c-2.182,1.09-4.031,3.762-6.059,5.443  c-2.811,2.328-5.178,4.811-8.938,4.672c-2.464-0.09-5.047-0.582-7.461-1.027c-3.239-0.598-11.604-4.141-8.223-8.893  c1.007-1.416,2.65-1.279,4.231-0.816c2.112,0.617,3.049,1.373,5.376,1.174c2.227-0.19,3.995-1.543,5.55-3.061  c1.729-1.684,3.344-2.605,5.598-3.32c3.297-1.043,6.582-0.426,9.892-1.039c1.363-0.254,2.957-0.979,4.092-1.731  c2.36-1.574,3.804-4.285,7.244-2.941C56.686,781.646,55.372,787.613,52.705,789.301z" fill="#5B6C8B"/>
</svg>
