<?xml version="1.0" encoding="UTF-8"?>
<svg xmlns="http://www.w3.org/2000/svg" xmlns:xlink="http://www.w3.org/1999/xlink" enable-background="new 0 183.619 837.471 656.619" height="656.619px" id="FOND" version="1.1" viewBox="0 183.619 837.471 656.619" width="837.471px" x="0px" xml:space="preserve" y="0px">
  <path d="M26.82,637.619c1.416-1.342,2.988-2.069,5.077-1.721c0.949,0.158,1.932,0.834,2.894,1.096  c0.436,0.117,0.873,0.177,1.305,0.263c0.844,0.17,1.646,0.282,2.516,0.291c1.894,0.016,3.455-0.158,5.3-0.422  c1.244-0.177,3.077-0.384,4.208,0.274c1.149,0.67,1.354,1.428,1.009,2.672c-0.493,1.765-3.122,2.162-4.726,2.297  c-3.883,0.326-8.096-0.229-11.441,2.371c-0.398,0.31-0.552,0.668-0.875,1.078c-0.697,0.887-1.61,1.453-2.666,1.834  c-2.295,0.83-4.772,0.945-7.128,1.514c-1.143,0.275-2.569,0.695-3.348,1.64c-0.326,0.397-0.668,1.162-0.204,1.621  c0.408,0.401,0.965,0.094,1.434-0.082c0.832-0.312,1.544-0.881,2.312-1.314c1.56-0.881,1.856,0.508,1.104,1.65  c-0.786,1.19-1.867,2.61-3.197,3.258c-0.57,0.275-1.164,0.287-1.782,0.393c-0.998,0.171-1.966,0.507-2.949,0.734  c-1.122,0.262-2.475,0.396-3.134,1.486c-0.45,0.744-0.52,1.674-1.188,2.375c-1.207,1.268-4.344,2.901-4.501,0.137  c-0.11-1.926,1.972-3.801,3.163-5.145c0.83-0.939,1.794-1.578,2.562-2.597c0.923-1.221,1.701-2.521,2.534-3.795  c1.606-2.455,3.568-4.979,5.73-6.973C22.722,640.804,24.935,639.41,26.82,637.619z" fill="#5B6C8B"/>
</svg>
