<?xml version="1.0" encoding="UTF-8"?>
<svg xmlns="http://www.w3.org/2000/svg" xmlns:xlink="http://www.w3.org/1999/xlink" enable-background="new 0 183.619 837.471 656.619" height="656.619px" id="FOND" version="1.1" viewBox="0 183.619 837.471 656.619" width="837.471px" x="0px" xml:space="preserve" y="0px">
  <path d="M94.456,671.531c1.527-3.192,2.493-4.1,5.613-5.768c1.917-1.025,4.165-1.758,6.29-2.209  c2.784-0.592,5.847-0.064,8.725-0.642c2.674-0.534,5.001-1.934,7.383-3.034c1.805-0.834,8.727-1.367,10.033-0.369  c1.993,1.522,2.176,5.082,1.019,7.024c-2.417,4.06-9.677,1.853-11.094,6.732c-0.43,1.479,0.688,3.029,0.905,4.41  c0.311,1.963-0.356,2.823-1.689,4.176c-0.839,0.848-1.695,1.59-2.346,2.621c-0.977,1.547-4.679,6.623-5.523,2.32  c-0.655-3.347-1.169-7.375-3.577-10.06c-3.896-4.344-8.656-2.219-11.456,2.139c-0.702,1.095-0.77,2.494-1.519,3.599  c-1.241,1.828-4.839,3.729-7.08,3.731c-3.486,0-6.968-4.071-3.86-6.825C89.426,676.594,92.519,675.576,94.456,671.531z" fill="#5B6C8B"/>
</svg>
