<?xml version="1.0" encoding="UTF-8"?>
<svg xmlns="http://www.w3.org/2000/svg" xmlns:xlink="http://www.w3.org/1999/xlink" enable-background="new 0 183.619 837.471 656.619" height="656.619px" id="FOND" version="1.1" viewBox="0 183.619 837.471 656.619" width="837.471px" x="0px" xml:space="preserve" y="0px">
  <path d="M155.567,713.07c1.598-1.533,2.777-3.69,3.301-5.824c0.396-1.618-0.125-2.639,0.03-4.188  c0.171-1.693,1.834-3.568,3.588-4.031c1.443-0.381,1.974,0.408,3.177,1.088c1.596,0.902,4.454,2.217,6.34,1.599  c1.707-0.558,2.375-2.97,3.209-4.386c1.376-2.338,2.978-4.528,4.691-6.598c1.802-2.168,4.437-5.982,7.378-6.674  c2.428-0.572,2.875,1.062,2.55,2.979c-0.491,2.894-3.609,5.629-5.409,7.765c-2.816,3.34-3.278,7.155-3.48,11.483  c-0.161,3.472,0.204,7.045-2.34,9.758c-2.937,3.134-7.144,4.394-11.012,5.974c-2.768,1.129-6.167,3.051-7.835,5.547  c-1.755,2.625-3.186,4.018-6.256,5.328c-3.789,1.617-6.22,2-9.754-0.344c-1.973-1.308-3.847-2.783-4.223-5.257  c-0.373-2.444,0.876-5.288,1.537-7.645c0.698-2.486,3.151-4.205,5.599-4.873C149.673,713.943,153.034,715.504,155.567,713.07z" fill="#3B425A"/>
</svg>
