<?xml version="1.0" encoding="UTF-8"?>
<svg xmlns="http://www.w3.org/2000/svg" xmlns:xlink="http://www.w3.org/1999/xlink" enable-background="new 0 183.619 837.471 656.619" height="656.619px" id="FOND" version="1.1" viewBox="0 183.619 837.471 656.619" width="837.471px" x="0px" xml:space="preserve" y="0px">
  <path d="M159.093,653.394c-0.679-1.705-2.159-1.881-3.589-2.805c-1.858-1.199-5.355-4.781-3.09-7.095  c1.245-1.272,4.919-1.741,6.589-1.776c2.01-0.043,3.904,1.248,4.565,3.217c0.466,1.383-0.255,3.744,1.248,4.684  c1.262,0.789,2.854,0.045,2.943-1.424c0.073-1.184-0.926-2.334-1.331-3.379c-0.551-1.422-0.664-2.928-0.608-4.439  c0.114-3.079,2.026-8.225,5.444-8.812c2.763-0.477,3.621,2.506,2.875,4.85c-0.597,1.877-2.679,3.158-3.501,5.093  c-0.507,1.188-0.498,2.11-0.444,3.463c0.205,5.209,0.524,10.975-0.644,16.106c-0.457,2.006-1.037,4.326-1.918,6.242  c-0.57,1.242-1.107,2.348-1.938,3.383c-1.031,1.283-1.821,1.416-3.392,1.918c-1.543,0.494-3.499,2.425-4.693,1.002  c-1.128-1.346-0.515-2.336,0.89-2.916c1.543-0.639,3.292-0.157,3.846-1.838c0.413-1.256-0.198-2.629-0.384-3.873  c-0.205-1.383-0.202-2.793-0.636-4.135c-0.312-0.963-0.854-1.834-1.18-2.791C159.631,656.549,159.688,654.886,159.093,653.394z" fill="#5B6C8B"/>
</svg>
