<?xml version="1.0" encoding="UTF-8"?>
<svg xmlns="http://www.w3.org/2000/svg" xmlns:xlink="http://www.w3.org/1999/xlink" enable-background="new 0 183.619 837.471 656.619" height="656.619px" id="FOND" version="1.1" viewBox="0 183.619 837.471 656.619" width="837.471px" x="0px" xml:space="preserve" y="0px">
  <path d="M14.948,813.906c1.234-1.059,3.625-1.156,5.193-0.897c2.756,0.455,5.557,0.991,8.249-0.088  c1.084-0.435,8.735-3.183,7.204-5.597c-0.8-1.264-3.808,0.564-4.548,1.037c-1.727,1.1-8.851,5.357-8.919,0.488  c-0.041-2.963,3.001-5,5.66-5.379c1.521-0.217,2.56,0.03,4.034-0.64c1.886-0.854,3.766-2.17,5.232-3.616  c1.668-1.646,2.622-1.66,5.206-1.947c2.341-0.26,2.92,0.336,4.412,2.104c1.142,1.354,1.618,1.664,1.894,3.242  c0.366,2.107,0.056,4.688-0.189,6.805c-0.086,0.74-0.335,1.595-0.282,2.339c0.14,1.971,1.632,3.559,1.965,5.479  c0.512,2.941-1.676,5.104-3.54,7.164c-2.813,3.107-4.971,3.545-9.096,3.996c-2.681,0.293-5.604,1.156-7.511-0.892  c-0.917-0.983-1.69-2.018-2.891-2.581c-2.414-1.132-3.23,0.959-5.174,1.772c-1.775,0.746-4.614,0.479-6.469,0.629  c-1.622,0.129-3.295,0.484-4.925,0.31c-1.89-0.201-2.053-0.759-1.764-2.613c0.378-2.428,1.751-4.055,3.323-5.816  C13.423,817.631,13.288,815.328,14.948,813.906z" fill="#5B6C8B"/>
</svg>
