<?xml version="1.0" encoding="UTF-8"?>
<svg xmlns="http://www.w3.org/2000/svg" xmlns:xlink="http://www.w3.org/1999/xlink" enable-background="new 0 183.619 837.471 656.619" height="656.619px" id="FOND" version="1.1" viewBox="0 183.619 837.471 656.619" width="837.471px" x="0px" xml:space="preserve" y="0px">
  <path d="M52.54,727.67c1.023-0.529,1.979-0.785,2.939-1.486c1.188-0.867,2.171-1.998,3.384-2.828  c0.745-0.51,1.693-1.332,2.488-1.646c1.243-0.495,2.003,0.39,1.219,1.369c-1.301,1.629-3.814,0.881-3.645,3.479  c0.074,1.127,0.379,1.486-0.261,2.541c-0.989,1.631-2.785,3.024-4.735,3.133c-1.772,0.096-2.811-0.82-4.07-1.904  c-1.403-1.207-2.998-0.543-4.726-0.633c-0.754-0.039-2.268-0.219-2.787-0.834c-1.163-1.381,1.61-1.332,2.402-1.387  C47.416,727.285,49.929,729.017,52.54,727.67z" fill="#5B6C8B"/>
</svg>
