<?xml version="1.0" encoding="UTF-8"?>
<svg xmlns="http://www.w3.org/2000/svg" xmlns:xlink="http://www.w3.org/1999/xlink" enable-background="new 0 183.619 837.471 656.619" height="656.619px" id="FOND" version="1.1" viewBox="0 183.619 837.471 656.619" width="837.471px" x="0px" xml:space="preserve" y="0px">
  <path d="M81.614,615.433c0.956,1.287,1.932,2.172,3.252,3.078c0.444,0.307,1.751,0.824,1.871,1.449  c0.158,0.815-0.66,1.483-1.285,1.704c-2.208,0.783-3.809-0.463-5.436-1.846c-1.856-1.578-4.191-2.938-6.687-2.994  c-0.718-0.016-3.014,0.402-3.144-0.812c-0.112-1.062,2.199-1.875,2.938-2.104c1.045-0.319,2.153-0.223,3.229-0.188  c0.582,0.02,1.154,0.127,1.732,0.186c0.501,0.053,1.007-0.106,1.453-0.08C80.501,613.883,81.082,614.717,81.614,615.433z" fill="#5B6C8B"/>
</svg>
