<?xml version="1.0" encoding="UTF-8"?>
<svg xmlns="http://www.w3.org/2000/svg" xmlns:xlink="http://www.w3.org/1999/xlink" enable-background="new 0 183.619 837.471 656.619" height="656.619px" id="FOND" version="1.1" viewBox="0 183.619 837.471 656.619" width="837.471px" x="0px" xml:space="preserve" y="0px">
  <path d="M592.607,515.963c1.146,0.159,1.829-1.611,2.824-1.943c0.104,2.918-2.732,5.959-4.633,7.967  c-2.317,2.451-5.911,3.154-7.679,6.178c-0.822,1.41-1.132,2.688-2.415,3.836c-1.035,0.927-2.158,1.724-2.843,2.978  c-1.176,2.156,0.038,4.567-1.39,6.695c-0.896,1.334-3.428,1.698-4.556,0.434c-1.733-1.949,0.625-4.967,1.63-6.672  c1.769-3.002,4.455-5.414,6.532-8.17c2.281-3.025,5.225-5.726,7.103-9.025c1.058-1.854,1.964-3.809,3.272-5.51  c0.677-0.877,1.553-1.689,2.496-0.576C593.443,512.734,592.929,516.008,592.607,515.963z" fill="#5B6C8B"/>
</svg>
