<?xml version="1.0" encoding="UTF-8"?>
<svg xmlns="http://www.w3.org/2000/svg" xmlns:xlink="http://www.w3.org/1999/xlink" enable-background="new 0 183.619 837.471 656.619" height="656.619px" id="FOND" version="1.1" viewBox="0 183.619 837.471 656.619" width="837.471px" x="0px" xml:space="preserve" y="0px">
  <path d="M521.434,569.373c0.995-0.748,1.672-1.815,2.829-2.354c0.915-0.426,1.942-0.428,2.893-0.742  c0.95-0.312,1.807-0.924,2.818-1.055c1.201-0.156,2.462,0.065,3.663-0.191c0.931-0.198,1.484-0.778,2.304-1.301  c1.274-0.814,2.447-1.637,3.664-2.516c0.98-0.709,2.273-1.365,3.525-1.183c0.104,1.437-3.73,2.965-4.713,3.82  c-1.649,1.439,0.684,0.529,0.501,1.768c-0.113,0.777-1.571,0.922-2.177,1.105c-1.362,0.418-2.419,0.967-3.53,1.85  c-2.027,1.609-4.274,1.849-6.751,2.254c-0.746,0.121-3.054,0.718-3.244,1.681c-0.155,0.789,1.019,0.604,0.958,1.395  c-0.12,1.562-5.915,2.418-7.361,2.756c-1.909,0.445-4.027,0.119-5.984,0.166c-1.993,0.05-3.963,0.396-5.928,0.713  c-1.223,0.195-2.966,0.703-4.031-0.088c-0.545-0.403-1.369-1.737-1.084-2.489c0.275-0.722,1.226-0.685,1.963-0.591  c1.235,0.158,1.213,1.013,2.247,1.453c1.548,0.662,3.553-0.77,4.898-1.379c1.995-0.897,3.914-1.897,6.054-2.225  C517.244,571.867,519.589,570.761,521.434,569.373z" fill="#5B6C8B"/>
</svg>
