<?xml version="1.0" encoding="UTF-8"?>
<svg xmlns="http://www.w3.org/2000/svg" xmlns:xlink="http://www.w3.org/1999/xlink" enable-background="new 0 183.619 837.471 656.619" height="656.619px" id="FOND" version="1.1" viewBox="0 183.619 837.471 656.619" width="837.471px" x="0px" xml:space="preserve" y="0px">
  <path d="M89.818,642.023c0.999,0.672,2.038,1.055,3.244,0.953c2.399-0.201,5.463-0.014,7.797-0.744  c2.961-0.93,6.63-3.604,8.358-6.195c0.393-0.588,0.368-0.946,1.195-1.184c1.001-0.283,1.769,0.252,2.115,1.266  c0.363,1.06,0.242,3.47-0.194,4.467c-0.604,1.375-1.422,2.464-2.776,3.171c-0.801,0.418-1.784,0.674-2.515,1.106  c-0.853,0.508-0.863,0.633-1.16,1.322c-0.26,0.604-0.191,1.455-0.583,2.045c-1.479,2.225-4.373,3.934-6.722,2.135  c-1.294-0.992-2.181-2.436-3.456-3.49c-1.447-1.196-3.28-1.086-5.006-1.729c-1.496-0.555-2.72-0.564-4.325-0.682  c-2.172-0.16-6.507-0.607-7.748-2.757c-1.813-3.135,4.13-2.469,5.443-2.418c1.348,0.052,2.418-0.479,3.648,0.32  C88.149,640.267,88.814,641.349,89.818,642.023z" fill="#5B6C8B"/>
</svg>
