<?xml version="1.0" encoding="UTF-8"?>
<svg xmlns="http://www.w3.org/2000/svg" xmlns:xlink="http://www.w3.org/1999/xlink" enable-background="new 0 183.619 837.471 656.619" height="656.619px" id="FOND" version="1.1" viewBox="0 183.619 837.471 656.619" width="837.471px" x="0px" xml:space="preserve" y="0px">
  <path d="M78.148,777.758c1.216,0.211,2.181,0.559,3.437,0.481c2.804-0.172,5.468-0.758,8.304-0.467  c2.201,0.225,5.342,0.508,7.018,2.115c0.7,0.674,2.13,1.865,1.997,2.985c-0.181,1.527-3.345,2.771-4.633,3.259  c-1.312,0.494-3.11,0.522-4.149-0.474c-2.125-2.039-4.275-3.885-7.317-4.469c-2.716-0.521-5.153,0.592-7.471,1.732  c-0.969,0.475-3.356,1.797-4.336,0.799c-1.297-1.32,0.592-3.738,1.787-4.398C74.422,778.416,76.21,777.42,78.148,777.758z" fill="#5B6C8B"/>
</svg>
