<?xml version="1.0" encoding="UTF-8"?>
<svg xmlns="http://www.w3.org/2000/svg" xmlns:xlink="http://www.w3.org/1999/xlink" enable-background="new 0 183.619 837.471 656.619" height="656.619px" id="FOND" version="1.1" viewBox="0 183.619 837.471 656.619" width="837.471px" x="0px" xml:space="preserve" y="0px">
  <path d="M601.538,449.066c1.267,2.443,2.647,4.822,3.905,7.271c1.564,3.051,2.146,6.303,3.062,9.575  c1.136,4.062,0.291,8.523-2.352,11.853c-1.087,1.369-5.564,5.576-3.929,7.676c1.302-0.631,2.397-2.438,3.433-3.477  c1.456-1.461,2.508-3.195,3.847-4.757c0.608-0.711,1.169-1.524,1.844-0.797c0.46,0.5,0.219,2.15,0.219,2.728  c-0.003,2.096-0.109,3.871-0.941,5.846c-1.134,2.689-3.045,5.174-4.929,7.383c-3.489,4.095-9.919,7.097-15.349,5.129  c-1.436-0.52-2.501-1.813-4.006-2.221c-1.422-0.385-3.427-0.244-4.871-0.029c-1.621,0.24-6.016,1.959-6.042-0.85  c-0.037-3.883,6.067-5.939,8.685-7.797c1.673-1.188,3.196-2.144,4.54-3.744c1.215-1.447,2.181-3.107,2.96-4.82  c1.306-2.86,1.67-5.823,2.117-8.918c0.236-1.639,0.558-3.096,1.079-4.678c0.167-0.51,0.338-1.699,0.924-1.928  c1.708-0.658,1.804,4.471,2.187,5.252c0.825,1.69,1.76,0.807,2.244-0.519c0.658-1.793,0.679-3.86,0.28-5.692  c-0.561-2.586-1.875-4.422-3.23-6.627c-1.532-2.492-2.605-4.756-3.048-7.679c-0.276-1.827-0.209-3.631-0.523-5.455  c-0.289-1.678-0.859-3.706-0.564-5.428c0.139-0.799,0.831-1.656,1.688-1.035c0.838,0.605,1.172,2.062,1.485,2.988  C597.561,442.195,599.664,445.451,601.538,449.066z" fill="#5B6C8B"/>
</svg>
