<?xml version="1.0" encoding="UTF-8"?>
<svg xmlns="http://www.w3.org/2000/svg" xmlns:xlink="http://www.w3.org/1999/xlink" enable-background="new 0 183.619 837.471 656.619" height="656.619px" id="FOND" version="1.1" viewBox="0 183.619 837.471 656.619" width="837.471px" x="0px" xml:space="preserve" y="0px">
  <path d="M676.463,330.983c0.883-0.642,1.231-1.558,1.6-2.551c0.312-0.849,0.562-1.7,0.967-2.512  c0.22-0.439,0.519-0.759,0.562-1.271c-0.896-0.141-1.979,1.896-2.926,2.237c-2.195,0.794,0.471-2.773,0.893-3.23  c0.995-1.08,2.236-1.817,3.54-2.456c0.633-0.31,1.843-0.975,2.577-0.575c1.949,1.061-0.326,4.966-0.976,6.204  c-0.387,0.74-1.024,1.313-1.168,2.139c-0.086,0.483-0.003,1.07,0.001,1.562c0.014,1.858-0.77,3.065-2.549,3.523  c-0.656,0.169-1.428,0.215-2.041,0.506c-0.744,0.354-1.58,1.123-2.193,1.681c-0.982,0.896-2.387,3.125-3.97,2.872  c-0.121-0.02,0.069-0.943,0.107-1.03c0.192-0.438,0.494-0.4,0.737-0.69c0.845-1,1.095-2.332,1.716-3.447  C674.119,332.545,675.22,331.887,676.463,330.983z" fill="#5B6C8B"/>
</svg>
