<?xml version="1.0" encoding="UTF-8"?>
<svg xmlns="http://www.w3.org/2000/svg" xmlns:xlink="http://www.w3.org/1999/xlink" enable-background="new 0 183.619 837.471 656.619" height="656.619px" id="FOND" version="1.1" viewBox="0 183.619 837.471 656.619" width="837.471px" x="0px" xml:space="preserve" y="0px">
  <path d="M65.238,750.541c-0.301-1.768-0.043-3.438,1.615-4.454c5.438-3.332,2.821,6.112,7.579,6.049  c2.707-0.037,2.467-3.291,3.797-5.193c1.601-2.291,3.704-2.014,5.122,0.506c1.247,2.222,0.021,4.455-1.295,6.332  c-1.138,1.623-3.042,2.32-3.263,4.291c-0.469,4.188,5.193,4.562,6.701,8c1.274,2.914-2.574,4.513-4.535,5.816  c-1.688,1.121-3.389,2.135-5.268,2.916c-1.786,0.742-3.726,0.873-5.334,2.071c-2.465,1.841-5.407,9.229-9.558,7.875  c-1.278-0.418-2.697-2.565-3.572-3.538c-1.04-1.156-2.5-2.839-2.031-4.584c0.882-3.273,5.981-4.189,8.3-6.326  c1.47-1.355,0.935-1.65,0.994-3.408c0.062-1.832,0.479-1.641,1.627-2.828c1.391-1.438,2.807-3.359,2.27-5.473  c-0.234-0.927-0.912-1.705-1.232-2.541C66.606,754.615,65.573,752.517,65.238,750.541z" fill="#5B6C8B"/>
</svg>
