<?xml version="1.0" encoding="UTF-8"?>
<svg xmlns="http://www.w3.org/2000/svg" xmlns:xlink="http://www.w3.org/1999/xlink" enable-background="new 0 183.619 837.471 656.619" height="656.619px" id="FOND" version="1.1" viewBox="0 183.619 837.471 656.619" width="837.471px" x="0px" xml:space="preserve" y="0px">
  <path d="M770.029,398.081c-0.276-0.597-0.648-1.568-1.591-1.122c-1.085,0.515-0.303,1.345-0.269,2.029  c0.062,1.215-0.598,1.135-1.549,1.442c-1.447,0.47-3,1.679-4.578,1.508c-0.935-0.101-2.128-1.192-1.261-1.989  c0.695-0.639,1.521-0.229,2.174,0.051c0.218-0.545,0.847-1.349,0.575-1.994c-0.345-0.823-1.847-0.985-2.584-0.89  c-2.697,0.354-4.511,4.963-3.039,7.241c2.012,3.116,7.479,1.706,10.23,0.898c2.178-0.641,4.398-0.436,6.596-1.082  c0.903-0.268,3.209-0.784,3.35-1.925c-0.644-0.067-1.855-0.022-1.957-0.797c-0.176-1.339,3.604-1.192,4.318-1.305  c2.332-0.366,4.788-1.541,6.479-3.249c0.967-0.979,2.28-3.133,3.938-3.026c1.28,0.082,0.62,1.082,0.802,2.085  c0.289,1.61,2.61,1.642,3.765,0.651c0.479-0.411,0.722-0.943,1.261-1.33c1.085-0.778,2.466-0.864,3.693-1.264  c2.412-0.784,4.482-2.453,6.628-3.762c1.461-0.891,2.84-2.046,3.798-3.475c-2.248,0.884-4.208,2.342-6.529,3.169  c-2.304,0.821-4.682,1.472-7.137,1.472c-1.425,0.001-2.078-0.777-3.417-0.986c-2.182-0.342-4.161,0.803-5.894,1.979  c-1.174,0.796-2.466,1.788-3.91,2.036c-1.086,0.188-2.504-0.907-3.277,0.001c-0.833,0.979,0.388,2.019-1.062,2.822  c-0.938,0.521-2.352,0.684-3.405,0.947c-1.292,0.321-2.604,0.656-3.894,0.956C771.14,399.439,770.541,399.178,770.029,398.081z" fill="#3B425A"/>
</svg>
