<?xml version="1.0" encoding="UTF-8"?>
<svg xmlns="http://www.w3.org/2000/svg" xmlns:xlink="http://www.w3.org/1999/xlink" enable-background="new 0 183.619 837.471 656.619" height="656.619px" id="FOND" version="1.1" viewBox="0 183.619 837.471 656.619" width="837.471px" x="0px" xml:space="preserve" y="0px">
  <path d="M478.544,561.447c-0.021,0.865,0.068,1.617,0.298,2.455c0.184,0.687,0.601,1.301,0.799,1.935  c0.337,1.071-0.577,2.766,0.221,3.608c0.498,0.529,0.779,0.623,0.955,1.42c0.26,1.179,0.79,2.174,1.818,2.924  c0.369,0.271,1.306,0.398,1.396,0.865c0.222,1.148-2.889,1.392-3.385,1.438c-0.923,0.086-2.673,0.408-3.455-0.244  c-0.308-0.258-0.323-0.719-0.563-1.027c-0.35-0.446-0.867-0.569-1.402-0.664c-1.436-0.252-2.451-0.315-3.544-1.383  c-1.274-1.244-1.558-2.625-1.729-4.338c-0.144-1.439-0.066-2.539,1.068-3.436c0.746-0.589,1.016-1.396,1.207-2.302  c0.103-0.479,0.026-1.004,0.175-1.461c0.23-0.709,0.904-1.457,1.564-1.787c0.445-0.221,1.055-0.153,0.934-0.809  c-0.141-0.754-1.265-0.559-1.837-0.521c-0.587,0.039-1.348,0.369-1.817-0.094c-0.812-0.799,0.272-1.781,0.981-2.125  c1.051-0.51,2.12-0.451,3.229-0.641c1.175-0.199,2.022-1.033,3.061-1.553c0.604-0.308,1.535-0.761,2.115-0.291  c0.236,0.192,0.298,0.532,0.615,0.647c0.277,0.103,0.84,0.008,1.14-0.004c0.271-0.012,1.639-0.359,1.229,0.434  c-0.102,0.197-0.737,0.357-0.933,0.502C480.748,556.445,478.606,558.898,478.544,561.447z" fill="#5B6C8B"/>
</svg>
