<?xml version="1.0" encoding="UTF-8"?>
<svg xmlns="http://www.w3.org/2000/svg" xmlns:xlink="http://www.w3.org/1999/xlink" enable-background="new 0 183.619 837.471 656.619" height="656.619px" id="FOND" version="1.1" viewBox="0 183.619 837.471 656.619" width="837.471px" x="0px" xml:space="preserve" y="0px">
  <path d="M551.982,291.31c0.739-0.238,1.73-0.43,2.399-0.122c0.351,0.16,0.435,0.782,0.771,0.973  c0.383,0.215,0.785,0.056,1.114,0.218c2.083,1.019,0.8,2.596-0.841,3.829c-1.081,0.813-1.736,1.148-2.442,2.368  c-0.396,0.684-0.589,2.666-1.413,2.627c-0.106-2.28,0.63-3.919,0.844-6c-1.878-0.398-1.814,3.393-2.495,4.404  c-1.203,1.795-1.696-0.687-1.75-1.702C548.054,295.815,549.916,291.974,551.982,291.31z" fill="#3B425A"/>
</svg>
