<?xml version="1.0" encoding="UTF-8"?>
<svg xmlns="http://www.w3.org/2000/svg" xmlns:xlink="http://www.w3.org/1999/xlink" enable-background="new 0 183.619 837.471 656.619" height="656.619px" id="FOND" version="1.1" viewBox="0 183.619 837.471 656.619" width="837.471px" x="0px" xml:space="preserve" y="0px">
  <path d="M787.821,205.697c2.323-1.9,5.057-3.873,8.098-4.262c3.648-0.466,7.375-0.811,10.733-2.467  c1.648-0.812,3.855-4.026,5.729-3.598c0,0.174,0.038,0.37,0.044,0.545c2.077,0.338,1.559-1.081,2.629-2.188  c0.885-0.916,2.278-1.449,3.396-2.024c1.167-0.602,2.986-2.439,4.106-2.522c0.164,1.271,0.063,3.339-0.746,4.305  c-1.212,1.443-3.493,2.283-4.867,3.671c-1.684,1.698-8.966,3.765-8.352,6.879c0.666,0.024,1.355,0.003,2.021,0.038  c0.501,2.672-2.855,2.665-4.542,2.779c-2.006,0.136-2.754,1.023-4.501,1.751c-1.559,0.646-3.206,0.207-4.766,0.048  c-1.057-0.107-2.013-0.056-2.979,0.403c-0.998,0.478-3.33,2.613-2.521,3.998c1.012,1.732,6.093-1.02,6.804,1.169  c0.909,2.797-5.963,3.798-7.531,4.53c-3.61,1.688-4.482,6.476-8.11,8.302c-4.971,2.502-7.395,5.617-9.406,10.91  c-0.243,0.643-1.104,3.869-0.331,4.438c0.82,0.607,0.985-1.195,1.758-1.324c0.118,2.041-0.186,3.429-1.339,5.143  c-1.739,2.584-1.359,5.59-1.105,8.589c0.146,1.748,1.292,7.822-0.45,8.981c-2.311,1.539-2.473-4.242-2.654-5.367  c-0.637-3.961-0.784-8.4-0.337-12.382c0.208-1.855,0.468-3.75,0.737-5.592c0.396-2.703,1.827-4.86,2.753-7.362  c1.313-3.549,3.152-7.029,4.781-10.499c0.945-2.017,1.92-3.839,3.063-5.729c1.19-1.971,1.482-4.344,2.927-6.148  C784.313,208.896,786.017,207.174,787.821,205.697z" fill="#5B6C8B"/>
</svg>
