<?xml version="1.0" encoding="UTF-8"?>
<svg xmlns="http://www.w3.org/2000/svg" xmlns:xlink="http://www.w3.org/1999/xlink" enable-background="new 0 183.619 837.471 656.619" height="656.619px" id="FOND" version="1.1" viewBox="0 183.619 837.471 656.619" width="837.471px" x="0px" xml:space="preserve" y="0px">
  <path d="M168.267,620.133c-0.513,0.856-1.241,1.637-1.808,2.397c-1.216,1.636-2.629,3.314-2.956,5.314  c-0.241,1.479,0.103,3.531-0.496,4.908c-1.594,3.666-5.822,5.164-9.462,5.846c-1.308,0.244-3.885,0.678-4.658-0.842  c-0.596-1.168,0.702-3.095,1.325-4.011c2.272-3.342-3.21-5.791-3.29-9.024c-0.07-2.838,3.132-4.574,2.806-7.604  c-0.228-2.127-0.982-3.916,0.374-5.793c1.307-1.805,2.842-3.242,4.332-4.881c2.043-2.246,4.195-3.656,7.177-4.203  c2.019-0.371,5.597-0.594,7.192,1.023c2.202,2.229,0.365,6.08-0.712,8.369C166.661,614.672,169.917,617.375,168.267,620.133z" fill="#5B6C8B"/>
</svg>
