<?xml version="1.0" encoding="UTF-8"?>
<svg xmlns="http://www.w3.org/2000/svg" xmlns:xlink="http://www.w3.org/1999/xlink" enable-background="new 0 183.619 837.471 656.619" height="656.619px" id="FOND" version="1.1" viewBox="0 183.619 837.471 656.619" width="837.471px" x="0px" xml:space="preserve" y="0px">
  <path d="M524.106,576.91c1.288-0.729,7.114-1.096,6.934-2.862c-0.661-0.033-2.957,0.26-3.361-0.457  c-0.881-1.564,4.326-2.959,5.162-3.207c2.895-0.863,5.373-2.144,8.091-3.256c0.854-0.351,1.794-0.521,2.633-0.604  c0.455,2.205-2.784,3.141-3.97,4.396c-0.598,0.633-0.501,1.371-0.898,2.098c-0.86,1.578-2.604,3.521-4.216,4.445  c-0.979,0.562-7.854,1.918-6.514,3.758c0.416,0.57,2.161,0.127,2.511,1.055c0.529,1.408-2.491,2.758-3.315,3.295  c-3.132,2.043-8.961,4.707-12.781,2.99c-2.292-1.031-0.772-3.672-3.675-4.066c-1.468-0.198-6.331-0.284-5.161-3.252  c0.773-1.961,5.791-1.153,7.438-1.494C516.814,578.955,520.557,578.92,524.106,576.91z" fill="#3B425A"/>
</svg>
