<?xml version="1.0" encoding="UTF-8"?>
<svg xmlns="http://www.w3.org/2000/svg" xmlns:xlink="http://www.w3.org/1999/xlink" enable-background="new 0 183.619 837.471 656.619" height="656.619px" id="FOND" version="1.1" viewBox="0 183.619 837.471 656.619" width="837.471px" x="0px" xml:space="preserve" y="0px">
  <path d="M64.036,667.861c0.816,1.939,3.584,3.205,4.074,5.549c0.438,2.088-1.944,5.099-0.541,7.039  c1.753,2.418,8.978,1.629,11.326,0.799c1.765-0.622,4.04-2.778,5.488-3.952c2.041-1.654,4.533-4.746,4.616-7.498  c0.121-4.021-4.132-5.763-7.419-6.183c-1.52-0.194-3.307-0.78-3.994,0.988c-0.591,1.52,0.905,3.324,0.562,4.924  c-0.648,3.043-3.517,2.232-4.08-0.338c-0.292-1.328-0.878-3.096-0.645-4.461c0.363-2.129,5.275-5.221,1.354-6.607  c-2.722-0.961-5.487,0.539-7.134,2.533C66.078,662.554,62.857,665.06,64.036,667.861z" fill="#3B425A"/>
</svg>
