<?xml version="1.0" encoding="UTF-8"?>
<svg xmlns="http://www.w3.org/2000/svg" xmlns:xlink="http://www.w3.org/1999/xlink" enable-background="new 0 183.619 837.471 656.619" height="656.619px" id="FOND" version="1.1" viewBox="0 183.619 837.471 656.619" width="837.471px" x="0px" xml:space="preserve" y="0px">
  <path d="M499.398,538.101c0.134-0.711,0.933-0.715,1.527-0.715c0.774,0,1.548-0.013,2.321-0.035  c0.134-0.004,0.574-0.064,0.674,0.037c0.257,0.271-0.208,0.688-0.371,0.834c-0.63,0.563-1.639,0.672-2.156,1.361  c-0.161,0.215-0.175,0.348-0.186,0.604c-0.019,0.5-0.007,0.809-0.322,1.229c-0.4,0.531-1.398,1.396-2.08,0.785  c-0.602-0.539-0.178-1.43,0.141-1.975c0.181-0.305,0.301-0.688,0.396-1.029C499.444,538.832,499.327,538.476,499.398,538.101z" fill="#3B425A"/>
</svg>
