<?xml version="1.0" encoding="UTF-8"?>
<svg xmlns="http://www.w3.org/2000/svg" xmlns:xlink="http://www.w3.org/1999/xlink" enable-background="new 0 183.619 837.471 656.619" height="656.619px" id="FOND" version="1.1" viewBox="0 183.619 837.471 656.619" width="837.471px" x="0px" xml:space="preserve" y="0px">
  <path d="M192.824,787.629c-0.289,3.664-2.479,8.944-1.199,12.633c0.372,1.074,2.464,3.983,3.772,2.553  c0.717-0.783-0.093-2.705-0.342-3.361c-0.407-1.073-0.92-2.047-0.944-3.248c-0.062-3.045,4.056-5.532,6.899-5.76  c6.115-0.479,4.401,8.357,3.549,12.123c-0.617,2.723-1.501,5.148-0.285,7.758c0.393,0.84,2.117,4.98,3.578,2.92  c1.098-1.545-2.439-3.836-2.011-5.834c0.758-3.52,6.014-3.018,8.104-1.242c3.221,2.732,3.438,5.498,2.422,9.248  c-0.823,3.031,0.474,5.168,1.226,8.021c0.642,2.43,0.5,5.734-0.885,7.986c-1.488,2.42-3.777,3.012-6.49,3.399  c-3.596,0.517-7.439,0.289-10.634-1.547c-3.137-1.801-8.542-4.801-10.396-8.203c-1.597-2.93,2.17-6.123,3.356-8.631  c2.198-4.643-2.354-8.99-5.744-11.863c-1.998-1.694-3-3.319-3.168-5.94c-0.167-2.603,1.229-4.826,1.439-7.404  c0.382-4.643-2.281-8.258-1.291-12.883c0.248-1.156,1.736-8.883,4.531-6.816c2.404,1.781-0.179,5.978-0.054,8.32  C188.455,783.529,193.112,783.953,192.824,787.629z" fill="#3B425A"/>
</svg>
