<?xml version="1.0" encoding="UTF-8"?>
<svg xmlns="http://www.w3.org/2000/svg" xmlns:xlink="http://www.w3.org/1999/xlink" enable-background="new 0 183.619 837.471 656.619" height="656.619px" id="FOND" version="1.1" viewBox="0 183.619 837.471 656.619" width="837.471px" x="0px" xml:space="preserve" y="0px">
  <path d="M545.258,304.506c0.903-0.396,4.182-1.862,5.007-0.856c0.766,0.935-0.314,1.409-0.84,1.81  c-1.86,1.419-6.134,3.046-5.516,6.09c0.257,1.264,1.6,2.257,1.9,3.532c0.261,1.1-0.048,2.518,0.006,3.664  c1.475,0.5,2.077,2.051,2.307,3.45c0.253,1.544,0.063,3.99-1.696,2.343c-1.104-1.034-1.805-3.178-2.514-0.341  c-0.504,2.018,0.163,3.846,0.413,5.809c0.241,1.896,0.303,4.538-0.461,6.303c-0.623,1.438-2.772,4.769-4.592,5.001  c-1.91,0.245-1.17-1.72-0.775-2.763c0.738-1.952,1.348-3.369,1.231-5.448c-0.936,0.105-1.316,1.146-2.463,0.809  c-0.107-2.127,0.159-4.079,0.456-6.156c0.193-1.358-0.433-4.301,0.678-5.188c1.002-0.804,2.023,0.044,2.088-2.026  c0.049-1.563-0.538-3.082-0.545-4.645c-0.007-1.392,0.521-2.707,0.719-4.09C541.087,308.862,542.373,305.773,545.258,304.506z" fill="#3B425A"/>
</svg>
