<?xml version="1.0" encoding="UTF-8"?>
<svg xmlns="http://www.w3.org/2000/svg" xmlns:xlink="http://www.w3.org/1999/xlink" enable-background="new 0 183.619 837.471 656.619" height="656.619px" id="FOND" version="1.1" viewBox="0 183.619 837.471 656.619" width="837.471px" x="0px" xml:space="preserve" y="0px">
  <path d="M178.782,585.31c1.085,1.68,2.46,3.182,2.178,5.334c-0.41,3.129-3.525,3.691-5.983,5.264  c-2.163,1.385-5.219,4.496-7.828,3.006c-1.475-0.846-2.63-2.799-3.412-4.166c-0.93-1.625-2.627-3.393-3.157-5.146  c-0.806-2.654,2.619-4.418,4.856-3.369c1.285,0.604,1.783,2.17,3.053,2.775c1.264,0.604,2.413-0.511,1.949-1.761  c-0.466-1.252-2.603-2.778-3.678-3.512c-1.354-0.922-3.649-2.117-4.288-3.645c-0.486-1.162-0.446-2.865-0.386-4.125  c0.093-1.935,1.077-6.289,3.595-3.863c2.263,2.18,2.612,5.705,5.587,7.311C174.034,580.908,177.032,582.603,178.782,585.31z" fill="#5B6C8B"/>
</svg>
