<?xml version="1.0" encoding="UTF-8"?>
<svg xmlns="http://www.w3.org/2000/svg" xmlns:xlink="http://www.w3.org/1999/xlink" enable-background="new 0 183.619 837.471 656.619" height="656.619px" id="FOND" version="1.1" viewBox="0 183.619 837.471 656.619" width="837.471px" x="0px" xml:space="preserve" y="0px">
  <path d="M84.696,755.357c2.014-2.441,3.404-5.416,2.532-8.625c-0.569-2.1-3.108-2.902-2.979-5.309  c0.078-1.431,0.075-1.189,1.373-1.541c2.006-0.543,4.036-0.521,5.871-1.642c1.812-1.104,1.128-1.567,1.666-3.162  c0.527-1.562,2.386-2.899,3.77-3.627c2.956-1.555,5.272-1.975,6.809-5.219c1.733-3.664,0.777-6.93,0.161-10.606  c-0.407-2.439-1.418-4.566-0.004-6.337c1.147-1.434,1.809-1.211,3.491-1.528c3.681-0.693,4.557-4.322,5.412-7.588  c0.382-1.457,1.224-9.466,4.271-7.537c2.348,1.481,0.189,6.381-0.586,8.08c-1.012,2.213-1.24,3.778-0.897,6.229  c0.309,2.207-0.522,3.183-1.735,4.953c-0.571,0.836-1.467,2.281-0.227,2.805c2.098,0.888,3.923-3.633,4.503-4.871  c0.802-1.715,3.894-4.565,4.61-1.6c0.786,3.254-1.153,6.252-2.023,9.135c-1.168,3.865-1.288,7.363-1.105,11.351  c0.067,1.471,1.691,5.826,0.752,6.862c-1.294,1.431-5.279-0.979-6.071-2.1c-0.515-0.727-0.903-2.279-0.848-3.176  c0.1-1.535,3.386-5.922,0.358-5.775c-3.588,0.174-3.748,4.674-2.78,7.006c0.337,0.812,1.32,1.638,0.994,2.523  c-0.307,0.832-4.063,1.352-4.899,1.543c-1.218,0.279-2.308,0.311-3.396,0.92c-1.904,1.068-3.397,3.02-4.606,4.775  c-0.798,1.159-0.966,2.358-1.733,3.494c-1.08,1.59-2.87,2.508-4.042,3.944c-1.441,1.771-2.844,4.203-2.596,6.674  c0.089,0.886,0.313,1.761,0.435,2.638c0.211,1.551,0.567,7.686-2.287,6.801c-1.582-0.488-2.473-2.941-3.549-4.027  c-0.783-0.789-2.12-1.043-2.293-2.276C82.891,757.429,84.058,756.135,84.696,755.357z" fill="#5B6C8B"/>
</svg>
