<?xml version="1.0" encoding="UTF-8"?>
<svg xmlns="http://www.w3.org/2000/svg" xmlns:xlink="http://www.w3.org/1999/xlink" enable-background="new 0 183.619 837.471 656.619" height="656.619px" id="FOND" version="1.1" viewBox="0 183.619 837.471 656.619" width="837.471px" x="0px" xml:space="preserve" y="0px">
  <path d="M167.154,818.213c-0.792-4.562-5.99-6.265-9.189-9.232c-4.14-3.84-6.915-12.17-2.951-17.096  c0.934-1.164,1.959-1.812,2.396,0.231c0.398,1.871-0.722,2.888-1.117,4.588c-0.534,2.291-0.2,3.968,2.054,4.595  c2.19,0.608,4.521-0.67,4.806-3.086c0.319-2.703-2.125-5.644-1.638-8.308c0.167-0.918,0.375-1.063,1.01-1.869  c2.763-3.506,5.94-7.002,7.435-11.274c1.745-4.988,1.025-9.781-1.026-14.59c-0.971-2.275-3.494-9.562-6.302-4.718  c-0.98,1.691,0.051,3.396-0.837,5.091c-1.568,2.993-6.656,3.829-9.396,2.45c-2.59-1.303-5.421-4.403-4.899-7.521  c0.512-3.066,3.69-4.68,4.591-7.592c0.672-2.179,0.784-4.781,1.607-6.886c1.243-3.172,5.676-5.159,8.186-7.264  c1.933-1.619,3.028-2.297,3.821-4.697c0.485-1.473,1.239-3.28-0.959-2.924c-1.74,0.281-3.492,2.258-4.639,3.49  c-1.086,1.17-2.234,2.42-3.596,3.27c-1.496,0.937-3.325,1.283-4.948,2.105c-1.434,0.725-3.586,1.471-4.706,2.67  c-0.797,0.854-0.88,1.545-1.278,2.736c-1.229,3.664-2.762,7.12-4.578,10.489c-1.749,3.248-3.613,5.947-5.867,8.871  c-2.491,3.234-3.71,6.621-2.616,10.674c0.893,3.31,1.609,6.937,1.442,10.377c-0.257,5.294-1.346,10.775-0.479,16.064  c0.558,3.402,1.097,6.688,4.005,8.535c3.488,2.219,7.975,1.94,11.746,3.693c2.764,1.282,5.673,2.461,6.966,5.313  c0.468,1.029,2.383,4.574,0.604,5.064c-1.411,0.391-2.255-2.279-2.739-3.121c-1.202-2.086-4.619-4.373-7.238-3.941  c-0.524,1.99-0.217,3.711,0.885,5.392c1.37,2.096,2.887,3.905,3.787,6.235c0.346,0.896,0.52,2.353,1.041,3.148  c1.496,2.278,5.683,1.776,7.983,1.754c2.976-0.027,5.272-1.459,6.784-4.049C168.778,824.349,167.619,820.896,167.154,818.213z" fill="#3B425A"/>
</svg>
