<?xml version="1.0" encoding="UTF-8"?>
<svg xmlns="http://www.w3.org/2000/svg" xmlns:xlink="http://www.w3.org/1999/xlink" enable-background="new 0 183.619 837.471 656.619" height="656.619px" id="FOND" version="1.1" viewBox="0 183.619 837.471 656.619" width="837.471px" x="0px" xml:space="preserve" y="0px">
  <path d="M295.287,536.879c1.102-0.855,2.526-1.336,2.93-2.668c0.444-1.47-0.141-2.332,0.768-3.888  c1.591-2.717,5.008-3.746,6.846-6.129c1.864-2.418,3.776-2.688,6.662-1.893c3.245,0.897,3.78-0.013,5.722-2.203  c2.021-2.285,5.354-2.812,5.656,1.018c0.331,4.191-3.936,4.703-7.117,5.16c-3.468,0.5-4.479,2.156-5.465,5.449  c-0.696,2.332,0.609,7.434-3.299,6.612c-1.389-0.291-2.086-1.039-3.562,0.298c-1.294,1.17-2.136,3.823-3.835,4.459  c-1.881,0.7-4.087-1.158-5.396-2.32C293.458,539.232,293.521,538.252,295.287,536.879z" fill="#5B6C8B"/>
</svg>
