<?xml version="1.0" encoding="UTF-8"?>
<svg xmlns="http://www.w3.org/2000/svg" xmlns:xlink="http://www.w3.org/1999/xlink" enable-background="new 0 183.619 837.471 656.619" height="656.619px" id="FOND" version="1.1" viewBox="0 183.619 837.471 656.619" width="837.471px" x="0px" xml:space="preserve" y="0px">
  <path d="M344.66,582.283c0.878,0.287,1.623,0.892,2.37,1.433c1.125,0.812,2.314,1.514,2.616,2.926  c0.17,0.797-0.109,1.393-0.366,2.135c-0.185,0.537-0.516,2.248-0.811,2.619c-0.878,1.107-3.37,0.584-4.472,0.012  c-3.25-1.69-5.093-2.846-6.592-6.215c-0.362-0.815-0.962-1.059-0.541-1.979c0.491-1.076,2.16-1.457,3.176-1.752  C342.068,580.875,342.851,581.689,344.66,582.283z" fill="#5B6C8B"/>
</svg>
