<?xml version="1.0" encoding="UTF-8"?>
<svg xmlns="http://www.w3.org/2000/svg" xmlns:xlink="http://www.w3.org/1999/xlink" enable-background="new 0 183.619 837.471 656.619" height="656.619px" id="FOND" version="1.1" viewBox="0 183.619 837.471 656.619" width="837.471px" x="0px" xml:space="preserve" y="0px">
  <path d="M117.554,596.73c0.438-0.322,1.202-1.303,1.72-1.26c1.232,0.104,0.238,3.229-0.279,4.002  c-1.454,2.164-4.429,2.563-5.945,4.611c-0.372,0.502-0.601,1.206-0.75,1.813c-0.233,0.945-0.504,1.699-1.106,2.535  c-0.88,1.221-1.932,3.049-3.513,3.377c-2.026,0.422-4.171,0.307-5.984,1.486c-1.785,1.161-3.165,2.791-5.16,3.641  c-1.941,0.826-4.679,1.842-6.751,1.002c-1.231-0.498-2.468-1.332-3.583-2.047c-0.37-0.236-1.175-0.68-1.213-1.223  c-0.095-1.354,3.134-2.291,4.107-2.521c1.671-0.395,3.375-0.688,5.021-1.19c1.033-0.316,2.013-0.775,3.065-1.044  c0.713-0.182,1.444-0.243,2.118-0.547c2.031-0.918,4.262-2.065,5.936-3.582c1.747-1.582,3.141-3.401,4.639-5.219  c0.49-0.594,0.789-0.998,0.95-1.703c0.111-0.496,0.188-0.992,0.334-1.483c0.172-0.58,0.557-2.334,1.304-2.484  c0.605-0.121,0.6,0.531,0.733,0.924c0.189,0.551,0.436,1,0.856,1.437C115.178,598.416,116.472,597.531,117.554,596.73z" fill="#5B6C8B"/>
</svg>
