<?xml version="1.0" encoding="UTF-8"?>
<svg xmlns="http://www.w3.org/2000/svg" xmlns:xlink="http://www.w3.org/1999/xlink" enable-background="new 0 183.619 837.471 656.619" height="656.619px" id="FOND" version="1.1" viewBox="0 183.619 837.471 656.619" width="837.471px" x="0px" xml:space="preserve" y="0px">
  <path d="M541.96,511.941c1.797-2.66,3.362-5.738,4.994-8.561c0.781-1.353,1.471-2.91,1.908-4.398  c0.433-1.457,0.574-3.74,1.612-4.898c1.327-1.477,2.994,0.539,3.299-1.905c0.1-0.781-0.15-1.564-0.162-2.347  c-0.023-1.678,0.63-2.967,1.356-4.469c1.377-2.858,2.188-4.457,5.168-5.68c2.648-1.086,3.901-3.283,6.267-4.609  c0.774-0.434,1.392-0.68,1.811,0.021c0.838,1.397-2.488,4.942-3.271,5.811c-1.533,1.701-4.932,4.144-4.966,6.722  c-0.019,1.381,1.1,1.567,1.123,3.094c0.031,2.047-1.908,2.768-3.229,4.166c-1.635,1.729-2.807,3.885-4.479,5.574  c-1.588,1.604-2.992,2.639-4.17,4.661c-0.824,1.418-1.258,3.021-2.127,4.42c-0.824,1.332-1.967,2.074-3.03,3.128  c-1.685,1.668-3.432,5.727-6.328,5.266C537.043,515.75,540.904,513.5,541.96,511.941z" fill="#5B6C8B"/>
</svg>
