<?xml version="1.0" encoding="UTF-8"?>
<svg xmlns="http://www.w3.org/2000/svg" xmlns:xlink="http://www.w3.org/1999/xlink" enable-background="new 0 183.619 837.471 656.619" height="656.619px" id="FOND" version="1.1" viewBox="0 183.619 837.471 656.619" width="837.471px" x="0px" xml:space="preserve" y="0px">
  <path d="M473.897,542.375c-0.435-0.247-0.534-0.536-0.83-0.905c-0.297-0.367-0.719-0.584-1.038-0.938  c-0.43-0.475-0.788-1.031-1.196-1.526c-0.305-0.367-0.776-0.789-0.944-1.248c-0.154-0.427-0.174-0.394,0.267-0.521  c0.309-0.086,0.918-0.055,1.194,0.053c0.479,0.185,0.873,0.64,1.225,0.988c0.402,0.402,0.833,0.717,1.281,1.07  c0.829,0.654,1.526,1.221,2.558,1.473c0.921,0.228,1.692,0.846,2.604,1.127c0.403,0.123,1.737,0.263,1.856,0.713  c-0.507,0.312-1.519,0.226-2.08,0.175c-0.344-0.029-0.596-0.185-0.9-0.255C476.578,542.285,475.133,543.074,473.897,542.375z" fill="#5B6C8B"/>
</svg>
