<?xml version="1.0" encoding="UTF-8"?>
<svg xmlns="http://www.w3.org/2000/svg" xmlns:xlink="http://www.w3.org/1999/xlink" enable-background="new 0 183.619 837.471 656.619" height="656.619px" id="FOND" version="1.1" viewBox="0 183.619 837.471 656.619" width="837.471px" x="0px" xml:space="preserve" y="0px">
  <path d="M261.075,783.115c2.199,3.461,3.354,7.814,6.276,10.724c3.018,3.002,4.779,6.188,5.5,10.481  c0.369,2.207,0.543,4.81-0.601,6.787c-1.338,2.316-7.528,7.146-9.306,2.793c-0.588-1.438-0.516-3.229-0.502-4.754  c0.026-3.1,0.581-6.533-1.095-9.338c-1.484-2.48-4.854-3.549-5.94-6.396c-0.722-1.889-0.24-3.819-1.133-5.744  c-1.479-3.188-3.582-5.946-4.649-9.327c-0.822-2.604-1.739-5.67-1.404-8.427c0.188-1.543,0.939-2.346,2.462-1.914  c1.656,0.468,2.105,2.164,2.893,3.439C255.991,775.357,258.6,779.222,261.075,783.115z" fill="#5B6C8B"/>
</svg>
