<?xml version="1.0" encoding="UTF-8"?>
<svg xmlns="http://www.w3.org/2000/svg" xmlns:xlink="http://www.w3.org/1999/xlink" enable-background="new 0 183.619 837.471 656.619" height="656.619px" id="FOND" version="1.1" viewBox="0 183.619 837.471 656.619" width="837.471px" x="0px" xml:space="preserve" y="0px">
  <path d="M237.835,755.195c0.674,0.812,1.019,1.133,1.141,2.269c0.192,1.772,0.385,3.616,0.729,5.352  c0.229,1.158,0.354,2.562-0.014,3.736c-0.415,1.33-2.095,1.678-2.832,2.965c-1.06,1.846,0.725,2.848,1.412,4.301  c0.501,1.06,0.699,1.892-0.279,2.601c-1.232,0.893-1.887,0.307-2.763-0.604c-1.434-1.486-1.505-3.889-1.9-5.838  c-0.456-2.244-0.375-4.455-0.657-6.711c-0.185-1.463-0.732-2.859-1.294-4.211c-1.124-2.701-1.564-6.176-1.642-9.074  c-0.08-3.063-0.449-6.557,0.702-9.443c0.278-0.694,0.574-1.635,1.241-2.041c0.566-0.346,2.057-0.545,2.688-0.247  c0.686,0.323,0.604,0.436,0.803,1.288c0.433,1.857,0.39,3.728,0.084,5.599C234.714,748.439,235.696,752.615,237.835,755.195z" fill="#5B6C8B"/>
</svg>
