<?xml version="1.0" encoding="UTF-8"?>
<svg xmlns="http://www.w3.org/2000/svg" xmlns:xlink="http://www.w3.org/1999/xlink" enable-background="new 0 183.619 837.471 656.619" height="656.619px" id="FOND" version="1.1" viewBox="0 183.619 837.471 656.619" width="837.471px" x="0px" xml:space="preserve" y="0px">
  <path d="M169.928,757.758c-1.507-2.644-0.838-5.318,1.366-7.201c1.519-1.297,3.386-1.5,4.938-2.711  c2.156-1.685,2.751-1.57,4.95,0.123c1.157,0.893,3.233,2.467,2.29,3.949c-0.837,1.315-2.94,1.043-3.812,2.268  c-1.135,1.594-0.12,4.229-0.357,5.992c-0.235,1.74-1.56,4.278-3.39,4.764c-1.859,0.488-2.876-1.051-3.427-2.582  C171.831,760.531,170.884,759.435,169.928,757.758z" fill="#5B6C8B"/>
</svg>
