<?xml version="1.0" encoding="UTF-8"?>
<svg xmlns="http://www.w3.org/2000/svg" xmlns:xlink="http://www.w3.org/1999/xlink" enable-background="new 0 183.619 837.471 656.619" height="656.619px" id="FOND" version="1.1" viewBox="0 183.619 837.471 656.619" width="837.471px" x="0px" xml:space="preserve" y="0px">
  <path d="M238.849,816.31c-1.378-0.811-3.2-0.656-4.415-1.723c-1.558-1.373-8.366-10.523-6.32-12.187  c1.565-1.272,1.479,0.896,1.807,1.582c0.225,0.471,0.695,1.072,1.181,1.172c0.59,0.119,1.594-0.733,1.856-1.08  c1.521-1.996-0.314-4.258-1.959-5.658c-1.622-1.381-5.113-3.879-7.609-3.596c-2.911,0.332-5.194,4.252-5.817,6.783  c-0.887,3.596,0.768,5.537,1.506,8.713c0.396,1.709,0.404,3.297,0.059,4.957c-0.159,0.766-0.588,0.977-0.576,1.881  c0.015,1.191,0.674,2.336,1.798,2.808c2.702,1.135,4.552-1.648,6.549-2.412c0.849-0.324,2.138-0.226,2.841,0.465  c0.804,0.787,1.122,4.051,1.41,4.848c0.524,1.314,0.997,2.689,1.7,3.924c0.95,1.668,2.518,2.716,3.739,4.185  c2.683,3.219,4.654,7.598,8.974,8.91c4.015,1.221,2.433-5.845,2.225-8.068c-0.4-4.277-2.614-8.078-5.218-11.396  c-1.059-1.346-2.14-3.071-3.585-4.02C238.943,816.367,238.896,816.34,238.849,816.31z" fill="#5B6C8B"/>
</svg>
