<?xml version="1.0" encoding="UTF-8"?>
<svg xmlns="http://www.w3.org/2000/svg" xmlns:xlink="http://www.w3.org/1999/xlink" enable-background="new 0 183.619 837.471 656.619" height="656.619px" id="FOND" version="1.1" viewBox="0 183.619 837.471 656.619" width="837.471px" x="0px" xml:space="preserve" y="0px">
  <path d="M110.418,808.072c-1.406-0.682-3.388-0.17-4.607-1.338c-0.647-0.619-1.574-3.025-1.792-3.848  c-0.379-1.426-0.504-1.084,0.301-2.736c1.019-2.082,2.261-4.471,3.983-6.18c2.848-2.82,7.722-3.293,9.409-7.433  c1.311-3.213,1.434-7.33,4.737-9.418c1.766-1.114,5.734-0.405,7.066,1.17c1.071,1.271,0.021,2.156-1.242,3.394  c-1.672,1.637-3.408,3.246-4.838,5.201c-1.287,1.76-1.816,3.807-2.167,5.897c-0.456,2.74,0.399,5.185,0.582,7.906  c0.124,1.842-0.225,3.336,0.62,5.02c0.76,1.513,2.073,2.64,3.052,3.921c1.912,2.504,3.666,5.299,4.887,8.217  c1.044,2.496,1.804,4.278-1.258,4.5c-2.821,0.205-5.309-0.705-6.887-2.808c-1.109-1.479-1.756-3.26-2.875-4.735  c-1.319-1.744-3.189-1.873-4.912-2.945C112.875,810.857,112.18,808.926,110.418,808.072z" fill="#5B6C8B"/>
</svg>
