<?xml version="1.0" encoding="UTF-8"?>
<svg xmlns="http://www.w3.org/2000/svg" xmlns:xlink="http://www.w3.org/1999/xlink" enable-background="new 0 183.619 837.471 656.619" height="656.619px" id="FOND" version="1.1" viewBox="0 183.619 837.471 656.619" width="837.471px" x="0px" xml:space="preserve" y="0px">
  <path d="M170.192,786.883c1.509-1.976,3.203-4.369,3.566-6.863c0.305-2.088-0.054-4.145,0.538-6.242  c0.67-2.377,2.355-4.924,3.648-6.969c1.443-2.283,3.666-3.879,4.342-6.666c0.285-1.18,0.026-2.129,0.807-3.191  c0.943-1.289,2.922-2.694,4.508-3.028c1.173-0.246,2.104-0.449,2.53,0.524c0.523,1.197-1.017,4.396-1.543,5.365  c-0.993,1.828-2.538,3.299-3.32,5.246c-0.79,1.969-1.439,3.963-2.288,5.922c-1.949,4.504-5.119,9.055-3.492,14.152  c0.947,2.965,3.008,6.174,1.406,9.405c-0.938,1.896-4.877,4.525-4.856,0.765c0.008-1.633,1.825-4.873-1.105-5.17  c-2.647-0.269-2.399,3.297-2.246,4.932c0.207,2.188-2.812,7.035-4.747,4.012C165.146,794.709,167.517,790.385,170.192,786.883z" fill="#5B6C8B"/>
</svg>
