<?xml version="1.0" encoding="UTF-8"?>
<svg xmlns="http://www.w3.org/2000/svg" xmlns:xlink="http://www.w3.org/1999/xlink" enable-background="new 0 183.619 837.471 656.619" height="656.619px" id="FOND" version="1.1" viewBox="0 183.619 837.471 656.619" width="837.471px" x="0px" xml:space="preserve" y="0px">
  <path d="M51.871,621.851c0.895-0.518,1.507-0.742,2.586-0.512c1.347,0.289,1.745,1.666,3.004,2.205  c2.145,0.92,4.618-0.08,6.761,0.93c0.699,0.328,1.25,0.826,1.736,1.412c0.826,0.996,1.667,1.688,2.714,2.469  c0.491,0.367,0.962,0.748,1.505,1.037c0.253,0.135,0.791,0.264,0.978,0.514c0.594,0.793-0.013,1.601-0.662,2.043  c-1.349,0.914-2.77,0.681-4.015-0.283c-1.507-1.164-3.44-2.248-5.351-2.557c-0.974-0.158-2.021-0.004-3.009-0.092  c-0.894-0.08-1.764-0.314-2.652-0.363c-0.8-0.045-1.758,0.103-2.023,0.93c-0.275,0.857,0.203,1.06,0.793,1.152  c1.282,0.199,3.765-0.424,4.479,0.99c0.583,1.154-0.45,2.324-1.493,2.623c-0.87,0.25-2.185-0.109-3.058-0.291  c-1.012-0.211-1.906-0.76-2.873-1.037c-1.71-0.492-3.555-0.346-5.16,0.377c-1.271,0.568-2.368,1.271-3.737,1.42  c-1.563,0.17-3.269,0.062-4.771-0.439c-1.292-0.432-2.818-1.014-3.788-2.004c-0.638-0.647-0.426-0.78,0.332-1.272  c1.594-1.035,3.426-0.73,5.142-1.301c1.302-0.433,2.138-1.582,3.071-2.509c0.385-0.385,0.926-0.815,1.411-1.1  c1.455-0.848,3.046-1.357,4.515-2.137c0.496-0.263,0.839-0.688,1.304-1C50.312,622.586,51.136,622.275,51.871,621.851z" fill="#5B6C8B"/>
</svg>
