<?xml version="1.0" encoding="UTF-8"?>
<svg xmlns="http://www.w3.org/2000/svg" xmlns:xlink="http://www.w3.org/1999/xlink" enable-background="new 0 0 401.582 295.167" height="295.167px" id="Layer_1" version="1.1" viewBox="0 0 401.582 295.167" width="401.582px" x="0px" xml:space="preserve" y="0px">
  <path d="M261.79,46.226c-0.099-0.624-1.069-0.209-1.368-1.369c-0.295-1.16,1.147-2.799,0.914-4.108  c-0.678-3.771-11.174-22.369-19.147-28.075C234.2,6.967,221.03,1.008,218.466,0.805c-2.562-0.204-11.793-0.508-14.067-0.736  c-2.281-0.229-9.646,0.052-19.672,1.876c-10.034,1.827-23.032,7.761-25.312,9.587c-2.28,1.826-7.979,7.532-7.979,7.532l-0.229,1.598  c0,0-4.562,4.108-9.577,12.782c-5.017,8.674-5.018,23.967-5.018,29.216c0,5.25,3.188,18.945,3.188,18.945l3.193,6.621h2.052  l0.912-10.043c0,0-0.229-2.511-0.912-6.847c-0.686-4.337,0-13.011,2.059-20.315c2.052-7.304,4.562-9.814,7.979-14.608  c3.42-4.792,6.384-7.76,6.384-7.76l1.689,0.964c0,0-2.604,5.655-3.521,7.709c-0.905,2.054-4.782,14.38-7.979,18.944  c-3.192,4.565-1.368,30.129-1.598,32.868c-0.229,2.738-0.455,3.88-1.601,4.793c-1.14,0.913-7.827,3-8.667,3.424  c-0.838,0.424-1.368,4.565-1.368,6.62s2.515,5.021,8.896,8.217c6.385,3.196,12.312,5.021,16.417,6.62  c4.104,1.598,8.666,10.728,10.72,13.238c2.052,2.51,12.312,3.88,20.979,5.249c8.665,1.37,17.646-2.068,18.973-2.184  c1.324-0.114,3.601,0.358,4.513,0.586s5.333-4.426,5.937-5.174c0.596-0.747,0.911-2.129,2.963-4.641  c2.053-2.511,9.577-7.303,16.418-9.586c6.84-2.282,10.913-6.495,11.854-7.761c0.945-1.266,1.69-6.919,1.371-8.094  c-0.244-0.898-2.344-2.134-4.149-2.772c-1.812-0.639-5.646-2.169-6.336-3.058c-0.697-0.89-0.788-4.096-1.021-7.291  c-0.229-3.195,1.088-17.044,1.928-17.589c0.849-0.544,2.53,0.725,2.972,1.37c0.434,0.646,0.916,16.8,1.362,17.576  c0.451,0.777,3.646-2.054,5.243-2.967c1.603-0.913,2.508-8.445,2.965-10.499C260.878,73.16,262.468,50.416,261.79,46.226z   M182.439,94.58c-1.064,0.961-5.479,3.232-9.578,4.146c-4.104,0.913-9.349,0.228-11.4-1.597c-2.052-1.826-2.963-8.445-3.188-14.837  c-0.229-6.392,2.965-13.468,5.93-15.522c2.964-2.054,5.243-4.564,10.488-4.337c5.244,0.229,12.312,3.196,14.136,6.164  c1.825,2.967,3.422,10.043,2.282,13.01c-1.146,2.968-2.174,5.199-2.483,5.72c-0.316,0.52-1.499,2.131-2.35,3.093  C185.422,91.379,183.505,93.62,182.439,94.58z M205.924,116.3c-0.567,0.255-6.435-2.092-8.239-1.771  c-0.658,0.115-0.925,1.452-1.706,1.92c-0.785,0.468-7.393,1.345-8.062,0.993c-0.677-0.353,0-6.621,1.823-11.642  c1.824-5.021,4.054-12.621,4.562-13.466c0.51-0.847,2.971-2.512,2.971-2.512s2.585-0.917,3.421,0  c0.833,0.917,3.188,10.271,4.561,13.923C206.608,107.397,206.497,116.044,205.924,116.3z M238.759,92.334  c-1.139,2.511-8.657,7.305-13.446,7.76c-4.788,0.456-8.896-3.651-10.724-5.478c-1.817-1.826-4.562-3.424-7.062-10.729  c-2.508-7.304,0.229-11.869,1.367-13.466c1.144-1.599,2.73-3.197,2.73-3.197s1.368-0.684,2.279-1.596  c0.912-0.914,4.332-2.968,8.437-2.968c4.105,0,11.402,2.055,14.365,9.815C239.672,80.236,239.9,89.823,238.759,92.334z" fill="#FFFFFF"/>
</svg>
