<?xml version="1.0" encoding="UTF-8"?>
<svg xmlns="http://www.w3.org/2000/svg" xmlns:xlink="http://www.w3.org/1999/xlink" enable-background="new 0 0 401.582 295.167" height="295.167px" id="Layer_1" version="1.1" viewBox="0 0 401.582 295.167" width="401.582px" x="0px" xml:space="preserve" y="0px">
  <path d="M280.717,250.742c0,0,3.193,4.793,3.646,7.988c0.458,3.193,2.511,11.869-5.014,16.889   c-7.525,5.022-9.354,6.848-13.229,5.707c-3.875-1.142-11.396-2.968-12.996-1.826c-1.599,1.146-3.877,5.707-1.599,7.99   c2.282,2.28,8.21,5.704,19.84,4.336c11.63-1.369,26.224-14.836,27.362-23.966c1.143-9.13,0.229-10.502,1.826-12.099   c1.595-1.596,9.805-10.043,14.591-17.803c4.789-7.762,4.334-12.104,11.174-15.521c6.841-3.423,7.981-1.371,7.981-2.969   c0-1.596-4.788-7.76-7.524-8.443c-2.734-0.686-12.312,0.912-15.506,3.879c-3.191,2.969-9.354,19.629-11.857,23.055   c-2.509,3.424-9.805,8.442-11.854,9.584C285.505,248.685,280.717,250.742,280.717,250.742z" fill="#B82025"/>
</svg>
