<?xml version="1.0" encoding="UTF-8"?>
<svg xmlns="http://www.w3.org/2000/svg" xmlns:xlink="http://www.w3.org/1999/xlink" enable-background="new 0 0 401.582 295.167" height="295.167px" id="Layer_1" version="1.1" viewBox="0 0 401.582 295.167" width="401.582px" x="0px" xml:space="preserve" y="0px">
  <path d="M225.079,213.08c0,0,4.104,1.598,7.068,2.967c2.963,1.369,4.561,2.738,8.665,2.062   c4.104-0.688,15.729-7.071,20.75-10.499c5.018-3.432,54.727-37.662,73.196-55.922c18.469-18.259,31.688-34.923,36.256-41.314   c4.561-6.39,20.748-38.575,23.257-44.966c2.51-6.391,5.929-18.716,5.929-20.543c0-1.826-0.911-4.108-0.911-4.108   s-16.646,22.141-20.979,27.39c-4.332,5.25-33.521,47.249-83.91,81.938c-50.396,34.694-71.604,45.879-76.161,47.705   c-4.562,1.826-12.998,5.938-12.998,5.938s1.142,2.058,4.789,3.646c3.646,1.604,6.841,2.512,6.841,2.512s13.229-6.391,19.382-9.811   c6.155-3.427,20.75-13.926,26.45-16.66c5.7-2.738,11.628-4.793,11.628-4.793s-9.806,11.639-14.82,14.379   c-5.018,2.734-18.235,9.354-22.348,12.553C233.06,208.744,225.079,213.08,225.079,213.08z" fill="#B82025"/>
</svg>
