<?xml version="1.0" encoding="UTF-8"?>
<svg xmlns="http://www.w3.org/2000/svg" xmlns:xlink="http://www.w3.org/1999/xlink" enable-background="new 0 0 401.582 295.167" height="295.167px" id="Layer_1" version="1.1" viewBox="0 0 401.582 295.167" width="401.582px" x="0px" xml:space="preserve" y="0px">
  <path d="M277.753,261.24c-0.597,1.19-28.271-4.336-41.271-7.988c-12.998-3.646-77.983-27.162-131.114-65.965   S17.349,93.019,10.281,76.356C3.212,59.692,0.475,49.193,0.247,44.172c-0.228-5.022,0.457-7.305,0.457-7.305   s12.085,22.37,25.771,35.608c13.681,13.238,49.021,53.411,59.279,61.171c10.267,7.76,54.729,42.682,63.619,48.16   c8.896,5.479,44.008,24.195,56.101,29.674c12.085,5.479,28.729,11.412,38.764,14.15c10.033,2.74,18.928,5.935,22.574,6.392   c3.646,0.456,10.026,3.651,14.137,4.106c4.106,0.459,9.35,0.687,9.807,1.828c0.457,1.141-2.964,2.055-5.019,3.424   c-2.051,1.369-11.629,5.478-19.837,3.879c-8.208-1.596-76.842-30.356-84.604-34.465c-7.753-4.108-42.406-23.51-46.517-26.938   c-4.104-3.424-6.841-6.162-10.488-7.76c-3.646-1.601-6.385-1.826-6.385-1.826s8.438,8.899,13.682,12.558   c5.245,3.648,28.509,19.172,45.604,27.846c17.104,8.679,46.744,21.914,63.162,27.619c16.418,5.707,32.379,10.955,34.432,13.016   C276.841,257.36,278.665,259.414,277.753,261.24z" fill="#B82025"/>
</svg>
