<?xml version="1.0" encoding="UTF-8"?>
<svg xmlns="http://www.w3.org/2000/svg" xmlns:xlink="http://www.w3.org/1999/xlink" enable-background="new 0 183.619 837.471 656.619" height="656.619px" id="FOND" version="1.1" viewBox="0 183.619 837.471 656.619" width="837.471px" x="0px" xml:space="preserve" y="0px">
  <path d="M30.667,664.252c1.142,1.93,1.802,2.905,3.998,2.92c1.566,0.01,4.191,0.639,3.757,2.821  c-0.585,2.937-5.584,3.349-7.612,2.359c-1.169-0.57-2.033-1.695-2.626-2.752c-0.752-1.34-1.812-2.562-2.447-3.959  c-0.5-1.099-0.459-2.193-1.68-2.783c-1.106-0.537-2.355-0.852-2.402-2.277c-0.065-2.026,1.787-3.594,2.806-5.141  c0.764-1.162,3.794-6.596,5.756-5.545c1.649,0.881-1.915,5.447-2.043,6.646C27.893,659.144,29.39,662.095,30.667,664.252z" fill="#5B6C8B"/>
</svg>
