<?xml version="1.0" encoding="UTF-8"?>
<svg xmlns="http://www.w3.org/2000/svg" xmlns:xlink="http://www.w3.org/1999/xlink" enable-background="new 0 183.619 837.471 656.619" height="656.619px" id="FOND" version="1.1" viewBox="0 183.619 837.471 656.619" width="837.471px" x="0px" xml:space="preserve" y="0px">
  <path d="M642.159,277.664c-2.17,0.164-1.975-1.983-2.873-3.312c-1.908-2.819-6.85-0.907-8.973-3.669  c-2.552-3.319,6.082-0.793,5.938-3.021c-0.072-1.104-4.891-2.908-5.729-3.343c-3.195-1.656-6.462-2.764-9.392-4.905  c-0.803-0.586-1.57-0.938-1.827-1.9c-0.294-1.1,0.198-1.976,1.182-2.409c2.479-1.098,5.23-0.103,7.488,1.013  c2.893,1.427,5.104,3.422,7.381,5.647c2.104,2.056,2.908,4.447,5.987,5.209c2.89,0.714,4.665,1.974,6.902,3.9  c1.741,1.5,3.632,2.574,5.375,4.067c1.992,1.704,6.101,3.125,5.699,6.461c-1.956,0.104-3.584-0.673-5.593-0.673  c-1.762,0-3.759,0.257-5.505,0c-2.486-0.365,0.502-1.555,1.015-2.338c0.566-0.865-1.965-0.931-2.332-0.96  C645.263,277.294,643.803,277.541,642.159,277.664z" fill="#3B425A"/>
</svg>
