<?xml version="1.0" encoding="UTF-8"?>
<svg xmlns="http://www.w3.org/2000/svg" xmlns:xlink="http://www.w3.org/1999/xlink" enable-background="new 0 183.619 837.471 656.619" height="656.619px" id="FOND" version="1.1" viewBox="0 183.619 837.471 656.619" width="837.471px" x="0px" xml:space="preserve" y="0px">
  <path d="M365.146,531.416c3.215,1.328,7.411,0.724,10.818,0.716c1.611-0.004,4.158,0.627,1.438,1.619  c-1.289,0.471-2.356,0.42-3.717,0.688c-0.94,0.187-2.284,0.275-3.13,0.738c0.047-0.025-0.761,0.864-0.54,0.684  c-1.003,0.822-2.229,1.388-3.043,2.416c-1.384,1.748-1.807,4.172-4.49,3.892c-1.802-0.188-3.827-1.265-5.494-1.98  c-2.175-0.936-5.216,0.225-7.425,0.748c-1.83,0.432-4.857,0.521-6.323,1.66c-0.916,0.711-1.443,1.904-2.401,2.631  c-0.854,0.648-2.808,1.764-3.883,1.223c-0.679-0.34-1.152-1.631-0.926-2.328c0.374-1.149,5.031-3.396,2.954-4.17  c-1.092-0.405-2.828,0.754-3.655,1.302c-1.375,0.911-3.584,1.94-3.751,3.666c-0.089,0.92,0.479,1.723,0.333,2.629  c-0.218,1.338-1.686,1.918-2.67,2.694c-0.909,0.718-2.037,1.416-2.813,2.224c-1.2,1.242-1.981,3.875-3.352,4.91  c-0.612,0.465-1.987,0.741-2.699,0.895c-0.692,0.146-2.42,0.58-3.168,0.428c-1.656-0.336-2.306-2.68-2.381-4.062  c-0.223-4.092,3.041-5.869,5.713-8.148c2.803-2.389,4.61-5.801,6.868-8.571c1.943-2.388,4.694-5.873,7.723-6.914  c3.085-1.062,6.809-2.361,10.062-2.623c2.464-0.195,3.506,0.922,5.383,2.164c2.264,1.495,4.058-0.107,6.202-0.992  C359.767,528.314,362.471,530.312,365.146,531.416z" fill="#3B425A"/>
</svg>
