<?xml version="1.0" encoding="UTF-8"?>
<svg xmlns="http://www.w3.org/2000/svg" xmlns:xlink="http://www.w3.org/1999/xlink" enable-background="new 0 183.619 837.471 656.619" height="656.619px" id="FOND" version="1.1" viewBox="0 183.619 837.471 656.619" width="837.471px" x="0px" xml:space="preserve" y="0px">
  <path d="M328.485,562.293c-1.368,0.739-3.188,1.411-4.518,2.366c-1.512,1.086-2.767,2.445-4.82,2.959  c-2.838,0.711-6.562,0.369-9.453,0.213c-2.769-0.146-5.814-1.276-7.963-3.086c-1.602-1.35-2.813-2.512-4.997-3.28  c-1.975-0.695-3.872-0.955-5.888-1.388c-1.631-0.352-4.397-0.455-5.063-2.159c-0.345-0.882-0.178-2.511,0-3.392  c0.28-1.387,0.642-3.713,1.364-4.867c2.32-3.698,6.046-2.143,9.736-2.457c4.368-0.375,6.255-6.487,10.494-6.657  c1.365-0.056,2.573,0.717,3.656,1.463c0.736,0.506,1.106,0.881,1.985,1.209c0.784,0.295,2.112,0.418,2.805,0.948  c0.972,0.748,0.916,1.359,0.323,2.312c-0.835,1.34-2.641,1.617-3.657,2.697c-0.38,0.401-0.873,1.604-1.1,2.182  c-0.922,2.354,0.162,7.428,2.581,8.766c0.936,0.519,2.743,0.361,3.825,0.603c2.167,0.484,3.604,0.934,5.364-0.486  c0.806-0.649,1.783-1.438,2.417-2.254c0.601-0.77,0.753-1.932,1.514-2.564c1.918-1.592,4.532,0.875,4.902,2.882  C332.418,560.586,330.149,561.392,328.485,562.293z" fill="#3B425A"/>
</svg>
