<?xml version="1.0" encoding="UTF-8"?>
<svg xmlns="http://www.w3.org/2000/svg" xmlns:xlink="http://www.w3.org/1999/xlink" enable-background="new 0 183.619 837.471 656.619" height="656.619px" id="FOND" version="1.1" viewBox="0 183.619 837.471 656.619" width="837.471px" x="0px" xml:space="preserve" y="0px">
  <path d="M15.502,659.539c0.585-0.364,2.579-1.02,3.282-0.461c0.711,0.566,0.466,2.066,0.17,2.759  c-0.499,1.166-1.806,1.641-2.295,2.819c-0.611,1.469,0.133,3.269,1.966,2.365c1.28-0.631,2.475-1.73,4.062-0.885  c1.181,0.629,0.543,2.016-0.042,2.846c-0.983,1.393-3.311,0.877-4.796,1.24c-0.938,0.229-2.199,0.863-1.061,1.811  c0.933,0.777,3.699,0.832,3.674,2.318c-0.017,0.922-1.055,1.199-1.859,1.359c-1.842,0.368-3.454-0.048-4.799-1.308  c-2.299-2.154-3.396-6.801-2.216-9.77c0.429-1.074,1.18-1.576,1.784-2.479C14.006,661.209,14.498,660.162,15.502,659.539z" fill="#5B6C8B"/>
</svg>
