<?xml version="1.0" encoding="UTF-8"?>
<svg xmlns="http://www.w3.org/2000/svg" xmlns:xlink="http://www.w3.org/1999/xlink" enable-background="new 0 183.619 837.471 656.619" height="656.619px" id="FOND" version="1.1" viewBox="0 183.619 837.471 656.619" width="837.471px" x="0px" xml:space="preserve" y="0px">
  <path d="M287.768,471.98c3.856-0.77,8.478-2.447,12.311-0.873c1.194,0.49,2.992,1.74,2.735,3.389  c-0.084,0.541-0.945,0.929-1.06,1.613c-0.247,1.482,1.228,2.955,2.242,3.736c1.547,1.188,3.91,1.742,5.687,2.471  c1.584,0.652,2.364,1.521,3.67,2.748c3.437,3.227-0.509,6.256-4.275,6.379c-1.764,0.062-4.854-1.229-6.443-0.426  c-2.092,1.061-2.302,4.148-4.646,5.012c-5.404,1.99-9.854-4.647-14.898-2.604c-2.391,0.969-4.814,4.793-4.153,7.186  c0.647,2.338,2.822,3.789,5.259,3.494c0.245-1.545-1.286-2.221-1.725-3.332c-0.795-2.018,1.8-6.732,3.467-3.85  c0.863,1.494,0.2,3.627,1.146,5.153c1.308,2.115,3.416,2.306,5.727,2.781c1.776,0.367,6.133,0.484,6.596,2.797  c0.593,2.955-4.407,2.875-6.248,3.006c-1.057,0.072-3.302-0.385-4.342,0.058c-2.021,0.858-0.618,3.645-0.627,5.338  c-0.005,1.086,0.484,2.877-0.852,3.27c-1.291,0.381-1.675-1.067-1.979-1.92c-0.827-2.319-0.544-5.211-1.984-7.317  c-2.131-3.115-4.093-3.873-7.201-5.849c-2.288-1.455-4.479-3.463-4.658-6.334c-0.12-1.934,1.345-3.844,2.537-5.237  c1.972-2.306,4.688-5.347,7.711-5.941c0.924-0.184,3.707-0.248,4.16-1.238c0.469-1.022-1.682-1.518-2.605-1.562  c-2.133-0.107-5.361,1.354-7.342,2.16c-1.679,0.686-3.562,1.719-5.107,2.891c-1.341,1.018-2.72,1.977-4.327,2.58  c-1.817,0.684-4.639,3.18-5.941,0.646c-1.408-2.733,1.035-5.803,2.55-7.834c1.611-2.161,3.545-4.061,5.405-5.998  c2.109-2.194,4.846-3.62,7.674-4.604C280.058,472.431,283.851,472.761,287.768,471.98z" fill="#5B6C8B"/>
</svg>
