<?xml version="1.0" encoding="UTF-8"?>
<svg xmlns="http://www.w3.org/2000/svg" xmlns:xlink="http://www.w3.org/1999/xlink" enable-background="new 0 183.619 837.471 656.619" height="656.619px" id="FOND" version="1.1" viewBox="0 183.619 837.471 656.619" width="837.471px" x="0px" xml:space="preserve" y="0px">
  <path d="M31.239,674.529c1.051,0.205,3.214,1.246,2.491,2.646c-0.411,0.797-1.593,0.932-2.411,1.104  c-0.922,0.193-1.776,0.351-2.698,0.418c-0.979,0.072-2.901,0.472-3.846,0.058c-1.306-0.572-0.678-1.785-0.778-2.793  c-0.116-1.154-1.053-1.709-0.486-2.955c0.315-0.697,1.274-2.361,2.252-2.111c0.938,0.244,1.202,1.793,1.722,2.447  C28.364,674.449,29.905,674.267,31.239,674.529z" fill="#5B6C8B"/>
</svg>
