<?xml version="1.0" encoding="UTF-8"?>
<svg xmlns="http://www.w3.org/2000/svg" xmlns:xlink="http://www.w3.org/1999/xlink" enable-background="new 0 183.619 837.471 656.619" height="656.619px" id="FOND" version="1.1" viewBox="0 183.619 837.471 656.619" width="837.471px" x="0px" xml:space="preserve" y="0px">
  <path d="M386.695,550.385c-0.113,2.168-1.523,3.271-2.501,4.985c-1.338,2.349-0.357,4.211-0.001,6.673  c0.144,0.983,0.007,2.032,0.165,3.032c0.493,3.104,3.462,5.068-1.037,6.566c-2.034,0.678-4.264,1.281-5.919,2.67  c-4.71,3.951-9.86,5.951-16.02,5.926c-0.859-0.004-7.427-1.006-6.233-3.237c0.888-1.662,9.305,0,10.934-0.478  c1.009-0.295,4.248-2.125,3.955-3.545c-0.275-1.348-2.373-1.135-3.101-1.979c-2.07-2.402,1.285-3.854,3.227-3.73  c3.912,0.246,6.736,0.732,9.999-1.629c2.519-1.822,1.979-3.154,0.833-5.646c-1.04-2.26-2.218-4.241-3.444-6.393  c-1.211-2.123-1.347-5.402-0.269-7.711c0.915-1.961,4.174-1.521,5.802-0.928C385.18,545.728,386.813,548.138,386.695,550.385z" fill="#3B425A"/>
</svg>
