<?xml version="1.0" encoding="UTF-8"?>
<svg xmlns="http://www.w3.org/2000/svg" xmlns:xlink="http://www.w3.org/1999/xlink" enable-background="new 0 183.619 837.471 656.619" height="656.619px" id="FOND" version="1.1" viewBox="0 183.619 837.471 656.619" width="837.471px" x="0px" xml:space="preserve" y="0px">
  <path d="M456.709,564.051c1.159,0.617,2.854-0.125,4.147,0.375c2.279,0.875,2.931,2.998,2.956,5.237  c0.018,1.455-0.98,2.904-2.371,1.634c-1.348-1.234-1.089-3.336-2.738-4.4c-1.242-0.801-1.731-0.607-3.053-0.367  c-1.268,0.232-2.47-0.072-3.148-1.297c-0.608-1.096,0.028-1.674,1.083-1.908c0.466-0.104,1.194-0.178,1.672-0.098  C455.979,563.345,456.109,563.732,456.709,564.051z" fill="#5B6C8B"/>
</svg>
