<?xml version="1.0" encoding="UTF-8"?>
<svg xmlns="http://www.w3.org/2000/svg" xmlns:xlink="http://www.w3.org/1999/xlink" enable-background="new 0 183.619 837.471 656.619" height="656.619px" id="FOND" version="1.1" viewBox="0 183.619 837.471 656.619" width="837.471px" x="0px" xml:space="preserve" y="0px">
  <path d="M93.697,754.734c0.654-1.522,2.55-3.188,3.47-4.664c2.042-3.279,3.352-8.336,6.803-10.25  c2.097-1.164,4.881-1.195,7.176-1.588c1.023-0.176,2.388-0.791,3.465-0.602c2.301,0.405,3.512,2.799,3.736,4.797  c0.525,4.646-3.669,5.428-6.44,8.01c-2.643,2.463-3.602,6.336-5.839,9.064c-1.292,1.58-4.515,3.172-5.201,5.114  c-0.579,1.64,1.093,3.314,0.732,5.013c-0.6,2.823-3.36,2.18-5.202,0.979c-2.365-1.543-2.873-4.613-2.935-7.215  C93.396,760.658,92.563,757.377,93.697,754.734z" fill="#3B425A"/>
</svg>
