<?xml version="1.0" encoding="UTF-8"?>
<svg xmlns="http://www.w3.org/2000/svg" xmlns:xlink="http://www.w3.org/1999/xlink" enable-background="new 0 183.619 837.471 656.619" height="656.619px" id="FOND" version="1.1" viewBox="0 183.619 837.471 656.619" width="837.471px" x="0px" xml:space="preserve" y="0px">
  <path d="M86.712,825.301c-0.726-1.345-1.385-2.92-1.854-4.371c-0.625-1.938,0.036-4.008-0.401-5.904  c-0.582-2.52-3.445-4.065-5.58-5.229c-2.694-1.466-8.864-4.677-9.419-8.166c-0.233-1.468,0.485-1.986,1.966-2.414  c3.312-0.957,4.099,1.885,6.937,2.899c2.154,0.771,4.818,0.613,5.934-1.375c1.369-2.442,2.387-5.221,3.493-7.776  c1.896-4.388,8.145-2.353,11.139-5.724c1.912-2.153,1.553-4.729,2.291-7.319c0.733-2.574,2.029-5.064,2.635-7.656  c0.579-2.473-0.085-4.781,1.35-7.01c2.233-3.479,5.88-7.615,9.242-10.031c1.574-1.131,4.622-3.479,6.703-3.172  c3.455,0.51-2.886,5.762-4.03,7.127c-1.179,1.404-3.194,3.149-3.802,4.961c-0.226,0.674-0.129,1.52-0.314,2.221  c-0.518,1.93-1.809,3.271-2.354,5.094c-1.649,5.511,3.811,10.291,0.289,15.423c-1.659,2.418-4.43,3.782-6.649,5.526  c-2.463,1.933-3.649,4.762-4.191,7.703c-0.521,2.828-0.785,5.596,1.086,8.014c1.741,2.25,5.169,3.158,7.537,4.591  c2.003,1.213,4.301,2.42,5.86,4.186c0.726,0.822,1.185,1.846,1.899,2.684c1.511,1.771,3.537,4.015,5.717,4.55  c3.619,0.887,6.574,0.754,9.912,3.184c2.391,1.742,3.994,4.16,2.029,6.646c-4.4,5.563-13.798,4.684-19.123,1.405  c-5.567-3.428-9.151-9.412-14.637-12.983c-0.453-0.295-5.441-3.429-4.471-0.49c0.407,1.231,3.224,1.639,4.059,2.606  c1.138,1.318,0.814,3.875-0.315,5.188c-1.567,1.82-4.671,2.582-7.005,1.977c-1.477-0.385-2.23-1.146-2.998-2.391  C88.82,827.935,87.476,826.715,86.712,825.301z" fill="#3B425A"/>
</svg>
