<?xml version="1.0" encoding="UTF-8"?>
<svg xmlns="http://www.w3.org/2000/svg" xmlns:xlink="http://www.w3.org/1999/xlink" enable-background="new 0 183.619 837.471 656.619" height="656.619px" id="FOND" version="1.1" viewBox="0 183.619 837.471 656.619" width="837.471px" x="0px" xml:space="preserve" y="0px">
  <path d="M187.787,529.992c-0.329,2.205,0.104,4.595-1.23,6.49c-0.66,0.938-1.833,2.336-3.169,2.182  c-0.753-0.086-1.96-1.364-2.227-2.127c-0.557-1.584,1.447-4.104,1.898-5.432c0.901-2.654,1.471-5.34,2.963-7.727  c1.64-2.625,3.495-4.191,6.183-5.732c0.846-0.486,1.605-0.951,2.48-1.277c0.892-0.332,2.849-2.057,3.832-1.27  c1.69,1.35-1.238,3.945-2.287,4.586c-1.833,1.117-3.382,2.908-4.888,4.436C189.734,525.756,188.138,527.646,187.787,529.992z" fill="#5B6C8B"/>
</svg>
