<?xml version="1.0" encoding="UTF-8"?>
<svg xmlns="http://www.w3.org/2000/svg" xmlns:xlink="http://www.w3.org/1999/xlink" enable-background="new 0 183.619 837.471 656.619" height="656.619px" id="FOND" version="1.1" viewBox="0 183.619 837.471 656.619" width="837.471px" x="0px" xml:space="preserve" y="0px">
  <path d="M239.443,509.881c2.979,0.016,5.81,0.396,8.766,0.034c2.564-0.313,4.848-0.821,7.303-1.577  c3.083-0.945,5.487-2.804,8.391-4.039c3.088-1.312,5.078,1.766,5.85,4.229c0.791,2.529,1.661,5.681,3.858,7.474  c2.4,1.961,6.545,1.471,9.357,2.561c1.793,0.695,4.334,2.449,4.801,4.43c0.628,2.662-3.481,6.482-6.088,6.068  c-1.008-0.162-1.007-0.68-1.786-1.266c-1.223-0.92-2.709-1.58-3.989-2.435c-2.979-1.99-6.081-0.565-9.07-2.063  c-3.354-1.679-5.957-4.718-8.7-7.195c-1.146-1.033-4.608-3.627-6.262-2.576c-0.882,0.562-0.818,1.799-0.7,2.758  c0.097,0.787,0.709,2.428,1.593,2.623c1.539,0.342,0.253-1.188,0.476-1.957c0.713-2.449,5.46,1.705,5.762,3.062  c0.542,2.451-1.739,3.373-3.523,4.387c-2.855,1.623-4.9,1.146-7.855,0.027c-2.633-0.996-4.785-2.672-7.252-4.133  c-1.949-1.154-4.069-2.345-5.975-3.509c-1.575-0.965-2.506-2.188-2.687-4.045c-0.152-1.565,1.26-3.354,2.823-3.612  C236.055,508.873,237.831,509.869,239.443,509.881z" fill="#5B6C8B"/>
</svg>
