<?xml version="1.0" encoding="UTF-8"?>
<svg xmlns="http://www.w3.org/2000/svg" xmlns:xlink="http://www.w3.org/1999/xlink" enable-background="new 0 183.619 837.471 656.619" height="656.619px" id="FOND" version="1.1" viewBox="0 183.619 837.471 656.619" width="837.471px" x="0px" xml:space="preserve" y="0px">
  <path d="M382.116,498.812c0.259,2.293-3.762,0.912-4.73,0.539c-1.185-0.455-2.47-1.541-3.697-1.412  c-2.5,0.262-4.735,1.584-7.366,0.953c-1.568-0.379-2.35-2.303-2.601-3.863c-0.129-0.807-0.196-2.293,0.431-2.799  c1.038-0.836,3.779-0.018,4.807,0.334c1.798,0.615,4.018,1.115,5.318,2.512c1.285,1.379,2.031,2.406,4.095,2.597  C379.359,497.761,381.946,497.299,382.116,498.812z" fill="#5B6C8B"/>
</svg>
