<?xml version="1.0" encoding="UTF-8"?>
<svg xmlns="http://www.w3.org/2000/svg" xmlns:xlink="http://www.w3.org/1999/xlink" enable-background="new 0 183.619 837.471 656.619" height="656.619px" id="FOND" version="1.1" viewBox="0 183.619 837.471 656.619" width="837.471px" x="0px" xml:space="preserve" y="0px">
  <path d="M678.326,387.621c-0.334-1.874-0.52-4.171-2.857-4.555c0,0.65,0.108,1.928-0.614,2.164  c-1.442,0.47-2.522-3.147-2.917-3.918c-0.623-1.225-1.715-2.537-2.502-3.77c-1.424-2.227-2.23-4.78-2.817-7.348  c-0.139-0.604-0.961-5.74,0.067-5.814c0.804,1.562,1.042,3.429,1.812,5.034c0.936,1.943,2.196,4.127,3.92,5.419  c1.71,1.282,3.705,2.396,5.14,3.994c1.245,1.389,1.54,3.323,3.033,4.532c0.653,0.529,1.183,0.928,1.763,1.582  c0.758,0.854,1.354,1.166,2.233,1.696c1.54,0.929,2.99,1.545,4.661,2.249c1.877,0.789,5.53,1.499,6.265,3.694  c-1.241,0.075-2.031-0.357-3.199-0.604c-0.703-0.147-1.433-0.166-1.77,0.595c-0.505,1.14,1.454,3.336,0.73,4.258  c-0.554,0.708-2.04-0.115-2.454-0.518c-0.884-0.855-1.401-2.146-2.085-3.155c-1.462-2.171-0.773,1.315-0.87,2.177  c-1.764,0.542-2.935-2.153-3.721-3.106C680.821,390.62,678.738,389.931,678.326,387.621z" fill="#3B425A"/>
</svg>
