<?xml version="1.0" encoding="UTF-8"?>
<svg xmlns="http://www.w3.org/2000/svg" xmlns:xlink="http://www.w3.org/1999/xlink" enable-background="new 0 183.619 837.471 656.619" height="656.619px" id="FOND" version="1.1" viewBox="0 183.619 837.471 656.619" width="837.471px" x="0px" xml:space="preserve" y="0px">
  <path d="M371.691,610.041c-1.126,1.937-5.681-0.192-7.711-0.038c-1.133,0.084-2.543,0.479-3.476,1.057  c-1.65,1.016-1.894,2.889-2.542,4.69c-0.701,1.945-1.012,2.402-3.066,2.662c-1.909,0.242-4.578,0.322-6.467-0.108  c-2.127-0.484-6.282-2.662-3.812-5.213c1.601-1.65,4.855-1.578,6.685-3.05c1.136-0.911,1.469-2.448,2.942-2.838  c2.173-0.569,4.419,0.42,6.63-0.078C362.316,606.801,374.035,606.015,371.691,610.041z" fill="#5B6C8B"/>
</svg>
