<?xml version="1.0" encoding="UTF-8"?>
<svg xmlns="http://www.w3.org/2000/svg" xmlns:xlink="http://www.w3.org/1999/xlink" enable-background="new 0 183.619 837.471 656.619" height="656.619px" id="FOND" version="1.1" viewBox="0 183.619 837.471 656.619" width="837.471px" x="0px" xml:space="preserve" y="0px">
  <path d="M731.908,398.511c-0.665-0.383-3.639-2.45-1.755-2.898c1.926-0.459,4.045,0.392,5.964,0.431  c0.988,0.021,2.037,0.094,2.999-0.123c0.788-0.177,1.469-0.434,2.288-0.471c0.729-0.032,1.175,0.067,1.047,0.955  c-0.157,1.102-1.503,1.604-2.413,1.926c-1.142,0.406-2.027,0.747-1.509,1.974c0.242,0.572,0.754,1.011-0.168,1.27  c-1.242,0.35-1.996-0.542-2.974-1.1c-0.528-0.302-1.08-0.38-1.61-0.688C733.123,399.408,732.563,398.889,731.908,398.511z" fill="#5B6C8B"/>
</svg>
