<?xml version="1.0" encoding="UTF-8"?>
<svg xmlns="http://www.w3.org/2000/svg" xmlns:xlink="http://www.w3.org/1999/xlink" enable-background="new 0 183.619 837.471 656.619" height="656.619px" id="FOND" version="1.1" viewBox="0 183.619 837.471 656.619" width="837.471px" x="0px" xml:space="preserve" y="0px">
  <path d="M564.16,379.338c0.896,1.559,1.595,3.2,2.547,4.729c1.975,3.167,3.421,7.185,2.781,10.999  c-0.438,2.618-2.221-1.372-2.96-1.873c-1.582-1.07-2.125,2.792-2.84,3.66c-1.536,1.863-2.012-1.482-2.143-2.574  c-0.382-3.153-0.204-6.312-0.042-9.465c0.116-2.311-0.123-4.193-0.86-6.371c-0.628-1.856-1.33-3.685-1.167-5.693  c0.039-0.482,1.132,0.444,1.207,0.542c0.404,0.531,0.386,1.327,0.633,1.926C561.946,376.744,563.338,377.905,564.16,379.338z" fill="#5B6C8B"/>
</svg>
