<?xml version="1.0" encoding="UTF-8"?>
<svg xmlns="http://www.w3.org/2000/svg" xmlns:xlink="http://www.w3.org/1999/xlink" enable-background="new 0 183.619 837.471 656.619" height="656.619px" id="FOND" version="1.1" viewBox="0 183.619 837.471 656.619" width="837.471px" x="0px" xml:space="preserve" y="0px">
  <path d="M705.232,396.82c2.37,0.645,2.223,2.877,4.062,4.058c2.801,1.797,7.239,0.697,10.402,0.856  c1.462,0.074,2.835,0.654,4.267,0.886c0.521,0.085,3.223,0.661,3.592,0.116c0.511-0.752-0.97-0.783-1.284-0.932  c-0.888-0.417-1.835-1.312-1.636-2.381c1.396-0.524,4.02-0.564,5.391,0.068c1.706,0.789,2.761,2.205,4.607,2.731  c1.551,0.441,3.607,1.312,4.801,2.373c-1.248,0.614-3.855,0.292-5.264,0.289c-1.563-0.003-3.496,0.413-2.181,2.259  c0.44,0.616,1.192,1.185,1.77,1.671c0.553,0.467,1.578,0.798,1.969,1.382c1.376,2.061-5.352,2.352-6.486,1.882  c-2.086-0.862-3.768-2.426-6.1-2.73c-0.93-0.122-2.993-0.427-3.442,0.469c-0.483,0.967,0.354,1.026-0.753,1.656  c-0.952,0.542-2.299,0.543-3.351,0.491c-1.716-0.085-3.296-0.728-4.341-2.119c-1.202-1.604-2.457-4.279-4.292-5.252  c-1.515-0.805-3.976,1.287-3.679,2.946c0.106,0.601,0.729,0.961,1.282,0.598c0.688-0.452,0.302-1.036,1.272-1.188  c1.074-0.166,1.555,0.927,1.347,1.847c-0.255,1.116-1.519,1.953-2.501,2.364c-2.022,0.845-3.69,0.449-5.355-0.881  c-1.361-1.089-2.812-2.645-3.621-4.196c-0.512-0.982-1.453-3.067-0.946-4.25c0.888-2.068,3.569,0.052,4.895-0.774  c1.984-1.236-1.782-1.37-2.477-1.521c-1.711-0.371-3.228-1.348-4.177-2.831c-0.446-0.695-1.277-1.962-1.091-2.815  c1.829-0.089,3.539,0.717,5.202,1.362C699.777,396.289,702.541,396.089,705.232,396.82z" fill="#3B425A"/>
</svg>
