<?xml version="1.0" encoding="UTF-8"?>
<svg xmlns="http://www.w3.org/2000/svg" xmlns:xlink="http://www.w3.org/1999/xlink" enable-background="new 0 183.619 837.471 656.619" height="656.619px" id="FOND" version="1.1" viewBox="0 183.619 837.471 656.619" width="837.471px" x="0px" xml:space="preserve" y="0px">
  <path d="M449.898,525.773c0.763,0.42,1.507,0.422,2.299,0.691c0.378,0.131,0.945,0.479,0.61,0.996  c-0.207,0.319-1.132,0.182-1.186,0.672c-0.072,0.657,1.604,1.387,1.99,1.672c0.643,0.475,1.297,0.791,1.9,1.346  c0.545,0.5,1.079,0.936,1.812,1.111c0.412,0.1,1.484,0.168,1.55,0.748c0.108,0.951-2.517,0.842-3.004,0.84  c-1.795-0.002-3.184,0.01-4.749-1.016c-0.741-0.486-1.513-1.052-2.172-1.646c-0.802-0.721-1.249-1.682-1.876-2.535  c-0.733-1.004-1.687-1.219-2.787-1.635c-1.09-0.414-2.604-1.41-3.11-2.506c-0.424-0.912,0.182-1.107,0.983-1.205  c1.434-0.174,3.069-0.531,4.396,0.256C447.697,524.244,448.726,525.127,449.898,525.773z" fill="#5B6C8B"/>
</svg>
