<?xml version="1.0" encoding="UTF-8"?>
<svg xmlns="http://www.w3.org/2000/svg" xmlns:xlink="http://www.w3.org/1999/xlink" enable-background="new 0 183.619 837.471 656.619" height="656.619px" id="FOND" version="1.1" viewBox="0 183.619 837.471 656.619" width="837.471px" x="0px" xml:space="preserve" y="0px">
  <path d="M86.411,624.115c1.498-0.893,2.956-3.449,4.83-3.44c1.255,0.004,1.731,0.932,2.236,1.875  c0.639,1.188,1.499,1.782,2.839,2.131c0.958,0.248,2.645,0.809,3.621,0.59c1.071-0.238,2.062-1.098,3.19-1.26  c1.331-0.193,2.756-0.058,4.021,0.278c2.164,0.576,4.067,1,6.464,1.007c2.171,0.006,3.468-0.283,4.202-2.337  c0.443-1.239,1.14-1.563,2.31-0.834c0.853,0.531,1.429,0.99,1.652,1.951c0.517,2.203-0.627,2.812-2.403,4.054  c-1.337,0.934-2.622,1.206-4.223,1.502c-1.309,0.241-3.071,0.61-4.231,1.239c-1.701,0.92-3.222,2.513-4.657,3.795  c-2.113,1.888-4.327,4.062-7.177,4.681c-1.562,0.338-3.423,0.698-5.04,0.516c-1.59-0.184-2.674-1.596-4.117-2.231  c-1.408-0.619-3.115-1.289-4.66-1.33c-1.362-0.035-2.747,0.196-4.117,0.203c-1.67,0.006-2.229,0.069-3.341-1.203  c-0.748-0.854-1.262-1.855-1.87-2.775c-1.319-1.998-3.195-4.08-5.249-5.355c-0.428-0.264-1.229-0.463-1.559-0.813  c-0.99-1.066,0.501-1.91,1.523-1.764c1.19,0.172,1.977,1.489,3.179,1.764c1.724,0.391,2.135-1.295,3.077-2.281  C79.363,621.508,83.44,625.885,86.411,624.115z" fill="#5B6C8B"/>
</svg>
