<?xml version="1.0" encoding="UTF-8"?>
<svg xmlns="http://www.w3.org/2000/svg" xmlns:xlink="http://www.w3.org/1999/xlink" enable-background="new 0 183.619 837.471 656.619" height="656.619px" id="FOND" version="1.1" viewBox="0 183.619 837.471 656.619" width="837.471px" x="0px" xml:space="preserve" y="0px">
  <path d="M329.97,616.906c-2.482-1.44-3.86-2.979-5.509-5.215c-0.805-1.09-1.344-2.129-2.459-2.934  c-1.489-1.07-3.308-1.838-4.869-2.847c-1.577-1.02-3.271-1.653-4.83-2.621c-1.573-0.975-3.104-2.309-4.116-3.844  c-0.796-1.205-1.526-2.707-2.473-3.801c-2.315-2.682-6.902-3.371-9.771-5.416c-1.093-0.779-1.516-1.299-2.12-2.416  c-0.616-1.133-1.255-2.279-1.998-3.336c-0.674-0.953-1.641-2.668-2.699-3.23c-1.172-0.62-2.519-0.723-3.74-1.229  c-0.791-0.328-2.498-1.172-3.252-0.363c-1.13,1.211,2.257,1.459,2.649,1.584c0.891,0.285,3.158,1.385,3.62,2.254  c0.667,1.254-0.662,2.05-1.86,1.955c-1.594-0.127-2.896-1.59-4.161-2.36c-1.34-0.818-2.876-0.757-4.426-0.757  c-3.072,0-6.875,0.814-7.296-3.125c-0.121-1.135-0.021-1.868,0.857-2.622c1.632-1.4,2.565,1.271,4.273,1.659  c1.315,0.302,2.188-1.146,3.179-1.815c1.521-1.029,3.707-1.521,5.546-1.271c1.289,0.176,2.456,1.013,3.746,1.32  c2.685,0.645,5.46,1.471,8.22,1.602c3.562,0.166,7.211,0.031,10.715,0.814c0.847,0.189,2.172,0.811,2.292,1.857  c0.094,0.823-1.349,1.403-1.854,1.653c-1.812,0.906-5.569,0.303-3.29,3.252c2.735,3.539,10.402,4.961,10.329,10.203  c-0.026,1.832,0.068,4.851,2.278,5.051c1.555,0.144,3.262-0.901,4.271-2.03c1.618-1.812,1.862-4.386-0.938-4.351  c-0.096,0.924,0.477,3.668-1.553,3.234c-1.005-0.213-1.185-1.967-0.825-2.832c0.864-2.08,3.729-3.348,5.855-2.604  c2.706,0.947,2.241,4.283,2.224,6.58c-0.023,3.14-1.121,5.898,0.075,9.062c0.724,1.91,2.854,3.858,4.314,5.205  c1.851,1.703,4.088,3.323,6.457,4.424c0.867,0.4,3.47,0.789,3.805,1.594c0.615,1.48-1.924,2.277-2.934,2.451  c-1.559,0.266-2.966-0.934-4.008-1.934C332.568,618.623,331.342,617.701,329.97,616.906z" fill="#5B6C8B"/>
</svg>
