<?xml version="1.0" encoding="UTF-8"?>
<svg xmlns="http://www.w3.org/2000/svg" xmlns:xlink="http://www.w3.org/1999/xlink" enable-background="new 0 183.619 837.471 656.619" height="656.619px" id="FOND" version="1.1" viewBox="0 183.619 837.471 656.619" width="837.471px" x="0px" xml:space="preserve" y="0px">
  <path d="M605.964,246.259c-1.937-1.643-3.947-1.522-6.321-1.681c-0.708-2.893,7.587-2.756,9.074-2.125  c2.133,0.903,2.908,1.814,3.628,3.854c0.283,0.804,0.196,1.711,1.403,1.379c0.547-1.328-0.304-3.932,0.94-4.721  c1.799-1.142,2.527,1.586,2.632,2.785c0.185,2.084-1.073,3.178-2.392,4.635c-0.923,1.021-2.247,2.229-1.349,3.538  c0.887,1.29,2.428,1.223,1.501,3.403c-0.429,1.011-2.054,2.604-3.342,1.993c-0.819-0.389-0.559-1.946-1.464-2.192  c-0.838-0.229-1.727,0.719-2.673,0.572c-0.32-2.001,0.69-3.932,0.642-5.96C608.194,249.592,607.656,247.697,605.964,246.259z" fill="#5B6C8B"/>
</svg>
