<?xml version="1.0" encoding="UTF-8"?>
<svg xmlns="http://www.w3.org/2000/svg" xmlns:xlink="http://www.w3.org/1999/xlink" enable-background="new 0 183.619 837.471 656.619" height="656.619px" id="FOND" version="1.1" viewBox="0 183.619 837.471 656.619" width="837.471px" x="0px" xml:space="preserve" y="0px">
  <path d="M204.325,555.179c0.814,1.598,2.5,3.264,3.627,4.717c1.594,2.057,2.04,3.916,2.972,6.318  c1.29,3.328,4.514,5.819,7.006,8.271c1.702,1.672,2.445,3.101,2.982,5.562c0.418,1.916,0.534,4.08,0.183,6.026  c-0.33,1.824-1.274,3.105-2.093,4.787c-0.771,1.582-2.163,2.898-3.088,4.406c-0.912,1.486-1.627,3.084-2.562,4.561  c-1.084,1.713-3.779,5.322-4.812,1.545c-1.266-4.627,4.665-8.692,5.023-13.149c0.188-2.338-0.438-4.588-1.041-6.763  c-0.521-1.879-2.025-7.719-4.583-8.207c-1.857-0.356-1.782,1.025-2.051,2.599c-0.692,4.063-3.34,5.795-6.616,8.428  c-3.209,2.578-7.424,3.881-11.558,3.047c-4.379-0.885-4.897-2.629-2.312-6.053c2.87-3.799,7.584-6.172,10.714-9.834  c2.472-2.891,2.945-5.148,2.689-8.848c-0.347-5.021-2.362-10.101-1.396-15.164c0.307-1.609,1.842-6.175,3.964-6.144  C204.586,541.338,203.24,553.054,204.325,555.179z" fill="#5B6C8B"/>
</svg>
