<?xml version="1.0" encoding="UTF-8"?>
<svg xmlns="http://www.w3.org/2000/svg" xmlns:xlink="http://www.w3.org/1999/xlink" enable-background="new 0 183.619 837.471 656.619" height="656.619px" id="FOND" version="1.1" viewBox="0 183.619 837.471 656.619" width="837.471px" x="0px" xml:space="preserve" y="0px">
  <path d="M667.979,385.785c-0.247-0.917-0.405-1.854-0.48-2.799c-0.02-0.246-0.22-1.297-0.043-1.532  c0.494-0.663,1.267-0.195,1.608,0.206c0.799,0.932,1.515,2.263,1.911,3.418c0.395,1.149,0.633,2.006,1.728,2.635  c0.676,0.39,1.419,0.642,1.996,1.189c0.349,0.332,0.494,0.965,1,0.938c0.045-0.507-0.168-1.985,0.23-2.261  c0.646-0.445,1.269,1.272,1.48,1.682c0.364,0.697,0.774,1.742,0.134,2.355c-0.582,0.56-1.979,0.574-2.662,0.281  c-0.777-0.334-1.285-1.488-2.143-1.631c-0.713-0.118-0.668,0.35-0.92,0.928c-0.487,1.119-1.648,1.021-2.296,0.175  c-0.591-0.771-0.747-1.745-0.814-2.688C668.634,387.66,668.246,386.785,667.979,385.785z" fill="#5B6C8B"/>
</svg>
