<?xml version="1.0" encoding="UTF-8"?>
<svg xmlns="http://www.w3.org/2000/svg" xmlns:xlink="http://www.w3.org/1999/xlink" enable-background="new 0 183.619 837.471 656.619" height="656.619px" id="FOND" version="1.1" viewBox="0 183.619 837.471 656.619" width="837.471px" x="0px" xml:space="preserve" y="0px">
  <path d="M370.688,550.201c0.824-0.774,2.049-3.487,3.117-3.629c1.335-0.176,1.758,1.627,1.64,2.664  c-0.128,1.125-0.957,1.994-1.772,2.777c-0.409,0.391-0.811,0.592-1.066,1.049c-0.224,0.398-0.148,0.916-0.486,1.324  c-1.026,1.248-2.579,1.436-4.033,1.436c-2.306,0-6.074,0.906-5.971-2.617c0.023-0.83,3.443-0.459,3.946-0.545  C367.808,552.357,369.411,551.404,370.688,550.201z" fill="#5B6C8B"/>
</svg>
