<?xml version="1.0" encoding="UTF-8"?>
<svg xmlns="http://www.w3.org/2000/svg" xmlns:xlink="http://www.w3.org/1999/xlink" enable-background="new 0 183.619 837.471 656.619" height="656.619px" id="FOND" version="1.1" viewBox="0 183.619 837.471 656.619" width="837.471px" x="0px" xml:space="preserve" y="0px">
  <path d="M547.968,391.309c1.145,2.14-0.545,4.824,0.092,6.986c0.326,1.103,1.529,1.683,2.199,2.517  c0.745,0.928,0.7,2.065,0.941,3.178c0.521,2.397,2.68,3.501,4.507,4.881c1.709,1.289,4.214,2.219,4.139,4.749  c-1.122,0.285-1.895,0.443-2.361,1.697c-0.482,1.294,0.024,1.738,0.784,2.729c0.609,0.797,1.114,1.72,1.686,2.556  c0.562,0.82,2.115,2.856,1.344,4.015c-0.479,0.718-1.658,0.33-2.33,0.849c-1.276,0.985-1.233,2.92-0.865,4.291  c0.324,1.2,1.378,4.086,0.201,5.135c-0.804,0.715-1.729,0.137-2.216-0.658c-1.023-1.67-0.751-4.188-0.483-6.049  c0.324-2.264,0.372-4.56-0.146-6.797c-0.596-2.576-1.436-4.449-2.975-6.577c-0.545-0.752-2.49-2.32-2.645-3.238  c-0.239-1.421,2.279-0.711,0.942-2.066c-0.416-0.421-1.104-0.476-1.525-0.886c-0.802-0.775-2.036-1.697-2.356-2.813  c-0.225-0.787-0.175-1.605-0.47-2.43c-0.597-1.666-1.267-3.309-1.729-5.02c-0.399-1.482-0.812-3.261-0.291-4.769  c0.229-0.656,0.616-1.199,1.195-1.594C545.855,391.826,547.791,390.979,547.968,391.309z" fill="#5B6C8B"/>
</svg>
