<?xml version="1.0" encoding="UTF-8"?>
<svg xmlns="http://www.w3.org/2000/svg" xmlns:xlink="http://www.w3.org/1999/xlink" enable-background="new 0 183.619 837.471 656.619" height="656.619px" id="FOND" version="1.1" viewBox="0 183.619 837.471 656.619" width="837.471px" x="0px" xml:space="preserve" y="0px">
  <path d="M61.51,731.635c1.771-1.988-0.445-4.474,2.78-5.836c1.848-0.783,3.331,0.205,5.126-0.166  c2.225-0.461,4.702-3.099,6.142-4.736c2.333-2.652,8.746-12.15,12.76-7.828c4.298,4.627-5.198,8.238-7.462,10.949  c-3.189,3.82-3.778,9.535-7.724,12.771c-1.899,1.56-4.058,2.541-5.896,4.23c-1.484,1.365-2.487,4.248-4.85,3.776  c-2.137-0.426-3.171-2.791-4.679-4.129c-1.882-1.668-3.095-1.135-5.402-1.561c-2.816-0.519-6.962-4.594-1.991-5.404  c1.971-0.322,3.335,0.957,5.188,0.957C57.347,734.662,60.298,732.994,61.51,731.635z" fill="#5B6C8B"/>
</svg>
