<?xml version="1.0" encoding="UTF-8"?>
<svg xmlns="http://www.w3.org/2000/svg" xmlns:xlink="http://www.w3.org/1999/xlink" enable-background="new 0 183.619 837.471 656.619" height="656.619px" id="FOND" version="1.1" viewBox="0 183.619 837.471 656.619" width="837.471px" x="0px" xml:space="preserve" y="0px">
  <path d="M665.816,311.229c-1.669,0.095-5.146,0.396-3.958,3.263c0.165,0.397,0.826,0.729,1.127,1.036  c0.764,0.78,1.08,1.164,1.523,2.25c0.914,2.238,0.547,3.271-0.9,5.251c-0.853,1.167-2.129,1.846-2.947,2.999  c-1.037,1.46-0.708,3.174-0.73,4.874c-0.018,1.164-2.503,9.558-4.868,8.351c-1.966-1.004,2.242-9.784,2.55-11.779  c0.717-4.663,0.051-8.546-1.815-12.804c-0.933-2.118-2.772-5.611-2.354-7.991c0.63-3.579,4.157-0.179,5.78,0.374  c1.344,0.455,2.652,0.247,3.994,0.968C663.561,308.204,666.39,311.197,665.816,311.229z" fill="#5B6C8B"/>
</svg>
