<?xml version="1.0" encoding="UTF-8"?>
<svg xmlns="http://www.w3.org/2000/svg" xmlns:xlink="http://www.w3.org/1999/xlink" enable-background="new 0 183.619 837.471 656.619" height="656.619px" id="FOND" version="1.1" viewBox="0 183.619 837.471 656.619" width="837.471px" x="0px" xml:space="preserve" y="0px">
  <path d="M798.043,387.636c1.338-0.417,2.546-1.038,3.938-1.328c1.281-0.268,2.597-0.289,3.881-0.585  c1.44-0.332,2.492-1.089,3.767-1.765c0.702-0.373,1.563-0.562,2.334-0.749c1.143-0.276,1.897-0.719,2.831-1.434  c1.228-0.939,2.715-1.693,4.077-2.406c0.634-0.331,1.308-0.846,2-0.939c-0.034,1.384-2.896,3.079-3.914,3.845  c-1.589,1.189-3.184,2.449-4.994,3.28c-0.871,0.399-1.635,0.306-2.523,0.532c-1.535,0.394-2.5,1.855-4.038,2.289  c-0.738,0.208-1.528,0.174-2.283,0.312c-0.804,0.146-1.549,0.401-2.345,0.552c-1.185,0.224-2.375,0.185-3.555,0.388  c-0.719,0.123-2.673,0.403-3.194-0.227c-0.553-0.668,0.818-0.866,1.204-0.932C796.259,388.296,797.041,387.948,798.043,387.636z" fill="#5B6C8B"/>
</svg>
