<?xml version="1.0" encoding="UTF-8"?>
<svg xmlns="http://www.w3.org/2000/svg" xmlns:xlink="http://www.w3.org/1999/xlink" enable-background="new 0 183.619 837.471 656.619" height="656.619px" id="FOND" version="1.1" viewBox="0 183.619 837.471 656.619" width="837.471px" x="0px" xml:space="preserve" y="0px">
  <path d="M566.314,558.732c-0.208,1.174-2.826,1.912-3.621,2.656c-0.959,0.896-1.812,2.006-2.745,2.961  c-1.899,1.943-4.208,3.5-6.271,5.254c-0.594,0.506-1.115,0.99-1.779,1.396c-0.271,0.166-1.153,0.391-1.273,0.741  c-0.147,0.431,0.437,0.765,0.387,1.248c-0.078,0.783-1.14,1.072-1.721,1.379c-1.146,0.605-1.751,1.3-2.605,2.263  c-1.728,1.946-4.825,3.885-7.396,4.401c-0.957,0.193-5.308,0.703-5.785-0.467c-0.831-2.024,4.473-2.615,5.298-3.334  c0.864-0.756,1.478-6.248,3.137-4.129c0.417,0.531,0.209,1.047,0.978,1.35c0.393,0.152,1.262,0.054,1.631-0.096  c1.135-0.459,2.31-1.715,3.297-2.445c1.932-1.432,3.617-3.373,5.433-4.967c2.477-2.176,5.348-3.901,7.861-6.047  c0.952-0.811,2.146-1.371,3.211-2.018C564.711,558.66,566.529,557.527,566.314,558.732z" fill="#5B6C8B"/>
</svg>
