<?xml version="1.0" encoding="UTF-8"?>
<svg xmlns="http://www.w3.org/2000/svg" xmlns:xlink="http://www.w3.org/1999/xlink" enable-background="new 0 183.619 837.471 656.619" height="656.619px" id="FOND" version="1.1" viewBox="0 183.619 837.471 656.619" width="837.471px" x="0px" xml:space="preserve" y="0px">
  <path d="M674.838,365.575c0.943,1.612,2.064,3.093,3.058,4.655c0.417,0.657,0.712,1.331,1.292,1.977  c0.784,0.874,1.646,1.656,2.275,2.653c1.09,1.729,2.365,2.743,3.83,4.09c0.593,0.546,1.871,1.325,0.718,1.667  c-0.788,0.232-1.829-0.476-1.535,0.769c0.141,0.6,0.771,1.023,0.661,1.669c-1.269,0.06-2.48-0.431-3.367-1.366  c-0.562-0.597-1.042-1.347-1.504-2.021c-0.618-0.9-0.714-1.831-1.106-2.819c-0.281-0.714-0.836-1.438-1.396-1.954  c-0.946-0.868-2.131-1.062-2.854-2.212c-0.665-1.06-0.685-2.242-1.117-3.364c-0.138-0.355-0.188-0.695-0.595-0.786  c-0.252,0.666,0.235,1.743-0.295,2.217c-1.009,0.897-1.818-2.286-2.184-3.071c-0.888-1.913-1.272-3.096-0.828-5.112  c0.211-0.961,0.528-3.405-1.101-2.133c-0.834,0.649-2.154,1.586-1.92-0.377c0.402-3.36,2.408-6.647,4.252-9.453  c0.5-0.76,2.441-3.354,2.596-1.157c0.113,1.625-0.281,3.242-0.296,4.866c-0.013,1.176,0.091,2.391-0.011,3.561  c-0.062,0.723-0.408,1.333-0.515,2.036C672.603,361.869,673.892,363.96,674.838,365.575z" fill="#5B6C8B"/>
</svg>
