<?xml version="1.0" encoding="UTF-8"?>
<svg xmlns="http://www.w3.org/2000/svg" xmlns:xlink="http://www.w3.org/1999/xlink" enable-background="new 0 183.619 837.471 656.619" height="656.619px" id="FOND" version="1.1" viewBox="0 183.619 837.471 656.619" width="837.471px" x="0px" xml:space="preserve" y="0px">
  <path d="M79.494,693.467c1.619-0.851,3.097-2.205,4.74-2.984c1.188-0.564,2.744-0.578,4.015-0.809  c1.274-0.232,2.492-0.463,3.785-0.623c0.892-0.111,3.454-0.979,4.306-0.453c2.874,1.774-5.175,6.604-6.693,7.229  c-1.723,0.709-3.107,0.974-3.739,2.953c-0.552,1.728-0.64,3.252-1.933,4.601c-1.216,1.271-4.109,2.688-5.914,2.465  c-2.561-0.312-3.263-3.529-5.282-4.619c-1.72-0.93-3.468-0.414-5.347-0.674c-2.055-0.281-4.138-0.881-5.928-1.949  c-2.596-1.549-1.931-2.664-1.484-5.195c0.327-1.854-0.373-6.182,2.808-5.069c1.402,0.489,1.59,2.327,2.394,3.448  C67.928,695.558,75.827,695.388,79.494,693.467z" fill="#5B6C8B"/>
</svg>
