<?xml version="1.0" encoding="UTF-8"?>
<svg xmlns="http://www.w3.org/2000/svg" xmlns:xlink="http://www.w3.org/1999/xlink" enable-background="new 0 183.619 837.471 656.619" height="656.619px" id="FOND" version="1.1" viewBox="0 183.619 837.471 656.619" width="837.471px" x="0px" xml:space="preserve" y="0px">
  <path d="M336.13,487.592c1.355-0.347,2.016-0.82,3.45-0.373c1.145,0.354,2.094,1.348,3.122,1.797  c0.731,0.315,1.583,0.131,2.358,0.395c2.956,1.006,4.457,5.756,6.276,7.859c0.812,0.941,2.517,1.916,2.916,3.029  c0.573,1.604-0.898,3.707-2.198,4.44c-2.53,1.429-5.628,0.293-8.243-0.176c-3.109-0.557-5.483-1.191-8.736-1  c-1.881,0.111-4.765,0.812-6.661,0.25c-1.435-0.426-3.673-2.734-3.043-4.406c0.56-1.485,3.44-2.578,4.806-2.815  c2.007-0.351,2.802,0.916,4.66,1.319c2.863,0.627,2.479-2.842,0.519-3.887c-3.07-1.635-7.44-1.541-9.753,0.937  c-3.901,4.182-9.515,7.563-15.32,7.957c-2.767,0.188-5.73-0.3-8.465-0.642c-1.954-0.246-3.414-0.502-5.396-0.238  c-1.906,0.253-3.886,0.621-5.764-0.004c-1.35-0.448-1.616-1.61-0.949-2.77c0.764-1.328,2.168-1.604,3.589-1.484  c1.875,0.16,4.924,1.142,6.768,0.457c2.381-0.885,1.735-5.451,5.343-4.729c1.307,0.262,2.247,0.953,3.697,1.035  c2.657,0.146,4.217-1.091,6.242-2.662c1.666-1.293,2.549-3.463,4.371-4.562c2.454-1.479,4.849-0.559,7.404-0.153  C329.876,487.601,333.393,488.293,336.13,487.592z" fill="#5B6C8B"/>
</svg>
