<?xml version="1.0" encoding="UTF-8"?>
<svg xmlns="http://www.w3.org/2000/svg" xmlns:xlink="http://www.w3.org/1999/xlink" enable-background="new 0 183.619 837.471 656.619" height="656.619px" id="FOND" version="1.1" viewBox="0 183.619 837.471 656.619" width="837.471px" x="0px" xml:space="preserve" y="0px">
  <path d="M435.248,535.607c-0.812,2.613-0.402,6.973-2.4,9.096c-1.914,2.035-4.076-0.524-6.512-0.448  c-2.844,0.086-3.675,1.575-4.899,3.536c-1.766,2.824-3.78,0.158-3.219-2.362c0.606-2.732,5.81-5.086,3.495-7.854  c-0.704-0.842-9.385-4.606-5.953-6.426c2.042-1.082,7.116,1.943,8.552,3.117c1.666,1.359,1.652,4.002,4.21,3.24  c2.229-0.664,4.215-3.277,5.317-5.201c1.021-1.783,1.029-4.584,2.475-6.09c1.348-1.404,3.438,0.106,4.725,0.819  c0.503,0.279,1.844,1.256,1.825,1.914c-0.037,1.386-1.495,0.586-2.465,0.771C437.768,530.209,435.977,533.265,435.248,535.607z" fill="#5B6C8B"/>
</svg>
