<?xml version="1.0" encoding="UTF-8"?>
<svg xmlns="http://www.w3.org/2000/svg" xmlns:xlink="http://www.w3.org/1999/xlink" enable-background="new 0 183.619 837.471 656.619" height="656.619px" id="FOND" version="1.1" viewBox="0 183.619 837.471 656.619" width="837.471px" x="0px" xml:space="preserve" y="0px">
  <path d="M587.27,238.024c2.007-0.575,15.414-1.333,14.981,1.418c-1.219,0.528-9.709,1.845-8.976,4.421  c0.293,1.026,1.445-0.113,1.935,0.58c0.608,0.863-0.89,1.643-1.52,1.938c-4.336,2.032-7.731,3.229-10.311,7.683  c-1.77,3.057-2.133,7.232-1.32,10.707c0.259,1.104,1.364,3.805,0.468,4.791c-1.296,1.424-2.788-0.619-3.417-1.562  c-1.409-2.107-1.466-4.136-1.463-6.596c0.001-0.927,0.492-3.159-0.58-3.538c-1.587-0.562-5.274,5.173-3.847,5.727  c1.262,0.49,1.237-2.353,2.93-1.862c0.212,3.004-1.376,5.404-4.258,6.438c-4.093,1.467-7.153-0.996-7.527-5.299  c-0.161-1.866,0.73-3.302,2.071-4.557c1.372-1.284,2.625-0.848,4.007-1.764c1.665-1.104,1.659-4.528,2.098-6.328  c1.646-0.39,1.322,2.727,3.167,2.142c0.089-0.028,0.448-3.873,0.501-4.338C576.738,243.323,582.99,239.249,587.27,238.024z" fill="#5B6C8B"/>
</svg>
