<?xml version="1.0" encoding="UTF-8"?>
<svg xmlns="http://www.w3.org/2000/svg" xmlns:xlink="http://www.w3.org/1999/xlink" enable-background="new 0 183.619 837.471 656.619" height="656.619px" id="FOND" version="1.1" viewBox="0 183.619 837.471 656.619" width="837.471px" x="0px" xml:space="preserve" y="0px">
  <path d="M664.363,328.146c0.577-1.75,2.564-2.271,3.499-3.853c1.994-3.38,0.786-7.279-1.54-9.929  c1.49-0.311,2.624,0.124,3.812,0.944c0.045-0.826,0.221-2.018-0.027-2.814c-0.351-1.132-1.701-2.496-2.415-3.441  c-0.81-1.074-1.763-1.947-2.962-2.573c-1.194-0.623-3.026-0.892-4.04-1.771c-2.503-2.176,5.144-2.462,6.059-2.58  c0.309-1.359-0.22-2.115-1.081-3.142c-0.853-1.015-1.491-1.812-2.685-2.436c-1.363-0.713-2.845-1.159-4.214-1.854  c-1.051-0.532-4.659-2.361-4.075-4.098c0.597-1.772,5.939-0.979,7.049-0.446c1.309,0.629,1.869,1.526,2.676,2.669  c0.761,1.082,1.625,1.816,2.784,2.467c2.041,1.145,4.317,1.185,6.296,2.636c2.645,1.939,3.644,4.767,3.859,7.966  c0.079,1.174,0.922,5.479-1.02,5.617c-0.998,0.069-1.376-1.419-2.234-1.291c-0.812,0.12-0.587,1.678-0.5,2.354  c0.212,1.616,1.139,3.173,1.518,4.805c0.508,2.19,0.043,3.285-1.167,5.062c-0.595,0.872-1.318,1.884-0.989,2.866  c0.165,0.492,0.67,0.846,0.809,1.41c0.124,0.511,0.065,1.319-0.021,1.83c-0.22,1.271-2.903,7.944-4.787,6.461  c-0.025-0.007-0.051-0.014-0.076-0.021c-0.026-0.438,0.59-3.214-0.416-2.846c-0.467,0.17-0.684,1.591-0.854,1.997  c-0.407,0.969-0.929,2.129-1.597,2.936c-0.689,0.834-2.449,1.986-2.949,0.783c-0.479-1.157,0.434-2.43,0.591-3.553  C663.942,332.281,663.72,330.096,664.363,328.146z" fill="#3B425A"/>
</svg>
