<?xml version="1.0" encoding="UTF-8"?>
<svg xmlns="http://www.w3.org/2000/svg" xmlns:xlink="http://www.w3.org/1999/xlink" enable-background="new 0 183.619 837.471 656.619" height="656.619px" id="FOND" version="1.1" viewBox="0 183.619 837.471 656.619" width="837.471px" x="0px" xml:space="preserve" y="0px">
  <path d="M407.968,576.719c0.833,0.865,1.741,1.492,2.841,1.979c0.796,0.354,1.928,0.498,2.655,0.949  c1.595,0.992,0.944,2.396-0.668,2.666c-1.329,0.221-2.458-0.135-3.471-0.982c-0.938-0.788-1.566-2.19-2.758-2.627  c-0.886-0.321-2.062-0.1-2.976-0.106c-2.241-0.023-4.328-1.031-4.877-3.371c-0.954-4.074,1.264-7.65,5.404-8.41  c0.986-0.182,4.422-1.027,3.842,0.867c-0.309,0.998-1.433,1.521-1.759,2.469C405.564,572.008,406.675,575.377,407.968,576.719z" fill="#5B6C8B"/>
</svg>
