<?xml version="1.0" encoding="UTF-8"?>
<svg xmlns="http://www.w3.org/2000/svg" xmlns:xlink="http://www.w3.org/1999/xlink" enable-background="new 0 183.619 837.471 656.619" height="656.619px" id="FOND" version="1.1" viewBox="0 183.619 837.471 656.619" width="837.471px" x="0px" xml:space="preserve" y="0px">
  <path d="M264.396,495.334c1.31-0.871,2.922-2.599,4.546-1.742c2.329,1.229,0.015,4.02-1.49,4.795  c-1.761,0.903-3.555,1.42-5.291,2.467c-2.529,1.527-5.232,2.814-8.104,3.553c-6.171,1.588-12.284,2.963-18.607,3.117  c-3.574,0.09-0.967-1.598,0.969-1.771c2.512-0.228,4.712-0.931,7.038-1.849c2.522-0.998,4.962-1.959,7.252-3.473  c1.589-1.051,3.303-1.994,4.691-3.314c0.536-0.51,0.892-1.174,1.61-1.373c2.371-0.659,4.847,1.086,7.122-0.243  C264.219,495.449,264.307,495.394,264.396,495.334z" fill="#5B6C8B"/>
</svg>
