<?xml version="1.0" encoding="UTF-8"?>
<svg xmlns="http://www.w3.org/2000/svg" xmlns:xlink="http://www.w3.org/1999/xlink" enable-background="new 0 183.619 837.471 656.619" height="656.619px" id="FOND" version="1.1" viewBox="0 183.619 837.471 656.619" width="837.471px" x="0px" xml:space="preserve" y="0px">
  <path d="M134.178,609.795c0.085,1.305-1.922,2.43-2.849,2.76c-1.279,0.457-1.367,0.168-2.192-0.687  c-0.521-0.539-0.88-0.924-1.611-0.963c-1.257-0.063-2.479,0.816-3.57,0.123c-1.277-0.813-1.073-2.291,0.463-2.688  c2.247-0.584,5.743,0.225,6.035-2.896c0.063-0.684,0.011-1.633,0.876-1.703c0.882-0.071,0.938,0.984,0.918,1.617  c-0.027,0.836-0.254,2.006,0.276,2.719C132.908,608.595,134.129,609.041,134.178,609.795z" fill="#5B6C8B"/>
</svg>
