<?xml version="1.0" encoding="UTF-8"?>
<svg xmlns="http://www.w3.org/2000/svg" xmlns:xlink="http://www.w3.org/1999/xlink" enable-background="new 0 183.619 837.471 656.619" height="656.619px" id="FOND" version="1.1" viewBox="0 183.619 837.471 656.619" width="837.471px" x="0px" xml:space="preserve" y="0px">
  <path d="M125.741,708.627c0.633-2.332,2.982-3.175,4.449-4.808c0.79-0.879,1.268-2.17,1.939-3.123  c1.24-1.76,2.91-3.797,4.597-5.153c1.962-1.578,5.718-4.855,8.448-3.527c1.867,0.906,1.922,4.568,1.423,6.18  c-0.938,3.037-2.777,4.273-5.457,5.418c-1.478,0.631-3.049,1.32-4.449,2.144c-1.878,1.106-2.625,2.621-3.809,4.42  c-0.891,1.35-1.318,3.475-2.96,4.182C126.073,716.019,125.014,711.308,125.741,708.627z" fill="#5B6C8B"/>
</svg>
