<?xml version="1.0" encoding="UTF-8"?>
<svg xmlns="http://www.w3.org/2000/svg" xmlns:xlink="http://www.w3.org/1999/xlink" enable-background="new 0 183.619 837.471 656.619" height="656.619px" id="FOND" version="1.1" viewBox="0 183.619 837.471 656.619" width="837.471px" x="0px" xml:space="preserve" y="0px">
  <path d="M571.865,475.705c2.256-2.457,6.101-0.754,8.43-3.512c1.769-2.092,2.653-4.123,5.027-5.754  c0.827-0.568,3.825-2.615,4.986-1.971c1.475,0.819,0.331,5.319-0.133,6.422c-0.903,2.145-2.302,4.529-4,6.154  c-2.048,1.957-4.577,2.079-7.187,2.694c-3.247,0.767-6.457,2.863-8.933,5.058c-1.356,1.2-3.971,6.092-6.386,5.028  c-2.285-1.012,1.646-5.041,2.426-5.885c0.847-0.916,2.046-1.738,2.766-2.725C570.104,479.513,570.391,477.312,571.865,475.705z" fill="#3B425A"/>
</svg>
