<?xml version="1.0" encoding="UTF-8"?>
<svg xmlns="http://www.w3.org/2000/svg" xmlns:xlink="http://www.w3.org/1999/xlink" enable-background="new 0 183.619 837.471 656.619" height="656.619px" id="FOND" version="1.1" viewBox="0 183.619 837.471 656.619" width="837.471px" x="0px" xml:space="preserve" y="0px">
  <path d="M346.728,555.476c0.062,2.959,2.163,4.811,4.116,6.746c2.329,2.309,4.093,2.486,7.252,2.512  c1.941,0.016,7.544,0.35,3.767,2.773c-2.357,1.514-5.959,1.811-8.456,0.592c-1.856-0.906-2.663-1.66-4.877-1.389  c-4.95,0.606-9.589,1.114-14.61,1.12c-1.975,0.003-4.378,0.33-3.721-2.625c0.897-4.038,9.456,0.294,8.718-4.383  c-0.227-1.424-1.928-2.137-2.882-3.18c-0.851-0.928-3.101-3.129-2.896-4.551c0.191-1.341,2.834-2.75,3.89-3.107  c1.109-0.375,1.869-0.092,3.059,0.01c2.928,0.25,2.779-1.02,4.344-2.727c2.586-2.822,6.923-4.07,10.661-3.746  c0.89,0.076,4.424,0.342,4.238,1.5c-0.162,1.027-2.857,1.56-3.646,1.887c-1.999,0.828-3.37,2.492-5.162,3.638  C348.628,551.76,346.674,552.943,346.728,555.476z" fill="#3B425A"/>
</svg>
