<?xml version="1.0" encoding="UTF-8"?>
<svg xmlns="http://www.w3.org/2000/svg" xmlns:xlink="http://www.w3.org/1999/xlink" enable-background="new 0 183.619 837.471 656.619" height="656.619px" id="FOND" version="1.1" viewBox="0 183.619 837.471 656.619" width="837.471px" x="0px" xml:space="preserve" y="0px">
  <path d="M55.733,805.736c2.598-1.149,3.627,0.74,4.082,2.795c0.251,1.133,0.463,2.515,0.291,3.711  c-0.248,1.732-2.27,3.9-2.12,5.556c0.238,2.625,2.557-0.564,2.821-1.789c0.562-2.591,0.899-5.496,3.415-7.037  c3.747-2.293,3.381,1.846,2.438,4.178c-1.657,4.09-3.065,8.381-2.898,12.84c0.067,1.783,0.019,1.97-1.477,2.822  c-3.025,1.725-11.65,2.916-11.769-2.752c-0.044-2.121,1.703-4.006,2.427-5.916c0.629-1.66,0.402-3.139,0.213-4.875  C52.828,812.273,52.297,807.26,55.733,805.736z" fill="#5B6C8B"/>
</svg>
