<?xml version="1.0" encoding="UTF-8"?>
<svg xmlns="http://www.w3.org/2000/svg" xmlns:xlink="http://www.w3.org/1999/xlink" enable-background="new 0 183.619 837.471 656.619" height="656.619px" id="FOND" version="1.1" viewBox="0 183.619 837.471 656.619" width="837.471px" x="0px" xml:space="preserve" y="0px">
  <path d="M417.644,617.082c0.801,0.531,1.489,2.043,1.191,3.08c-0.548,1.898-3.047,0.986-4.2,0.316  c-2.186-1.266-3.021-0.867-5.581-0.742c-2.398,0.121-5.245,1.055-7.53,1.762c-2.7,0.834-5.223,1.416-8.014,1.984  c-3.237,0.658-6.37,1.779-9.617,2.453c-2.886,0.598-5.449,1.213-8.393,1.174c-4.173-0.055-8.266-3.44-11.39-6  c-2.449-2.004-5.774-5.164-1.49-7.799c2.881-1.771,7.302,1.123,10.497,0.973c1.492-0.067,2.907-0.834,2.965-2.645  c0.089-2.762-3.975-4.924-4.005-7.4c-0.026-2.137,2.879-2.596,4.394-2.287c3.235,0.656,5.085,5.144,6.762,7.599  c1.228,1.795,3.113,4.268,5.559,4.422c1.853,0.117,2.633-1.519,3.615-2.931c1.454-2.084,2.888-8.465,6.592-6.909  c2.05,0.862,0.575,4.668,1.133,6.371c0.759,2.323,3.667,5.168,5.932,5.977C409.741,617.793,414.161,614.775,417.644,617.082z" fill="#5B6C8B"/>
</svg>
