<?xml version="1.0" encoding="UTF-8"?>
<svg xmlns="http://www.w3.org/2000/svg" xmlns:xlink="http://www.w3.org/1999/xlink" enable-background="new 0 183.619 837.471 656.619" height="656.619px" id="FOND" version="1.1" viewBox="0 183.619 837.471 656.619" width="837.471px" x="0px" xml:space="preserve" y="0px">
  <path d="M339.106,509.746c-0.849,0.58-1.486,1.443-2.293,2.043c-1.051,0.781-2.475,0.92-3.851,1.343  c-1.401,0.428-2.983,0.752-3.491,2.19c-0.879,2.49,2.573,5.846-2.537,5.625c-2.589-0.113-2.405-3.678-4.03-5.297  c-4.477-4.465-4.021,3.064-7.276,4.137c-1.598,0.527-4.197,0.515-5.146-0.94c-0.473-0.726-0.273-2.144-0.943-2.742  c-0.743-0.668-1.726-0.369-2.442,0.072c-0.842,0.518-0.974,1.479-1.39,2.139c-0.729,1.158-1.576,2.293-2.409,3.441  c-2.44,3.364-4.455,3.694-7.916,1.534c-2.416-1.508-3.16-3.428-2.917-6.305c0.24-2.846,3.142-3.418,5.718-3.945  c1.098-0.223,2.445-0.188,3.019-1.127c0.421-0.69,0.236-1.987,0.556-2.776c0.478-1.183,1.455-3.32,2.682-3.838  c1.14-0.48,2.688,0.446,3.814,0.641c3.05,0.523,6.64-0.146,9.139-2.023c2.097-1.573,4.479-2.104,6.935-0.526  c3.106,2,4.115,4.312,8.084,3.688c1.245-0.194,2.615-0.557,3.869-0.221C336.748,506.984,339.865,509.228,339.106,509.746z" fill="#5B6C8B"/>
</svg>
