<?xml version="1.0" encoding="UTF-8"?>
<svg xmlns="http://www.w3.org/2000/svg" xmlns:xlink="http://www.w3.org/1999/xlink" enable-background="new 0 183.619 837.471 656.619" height="656.619px" id="FOND" version="1.1" viewBox="0 183.619 837.471 656.619" width="837.471px" x="0px" xml:space="preserve" y="0px">
  <path d="M154.152,755.043c1.446-2.3,0.554-5.697,0.879-8.236c0.807-6.267,7.622-6.474,11.555-9.719  c1.712-1.412,4.603-4.099,4.229-6.609c-0.177-1.188-1.03-2.1-1.042-3.391c-0.017-1.826,1.496-3.132,3.004-3.943  c2.567-1.387,7.028-2.889,7.174,1.139c0.101,2.806-2.62,5.101-3.785,7.435c-2.315,4.645,1.389,12.03-4.635,15.057  c-2.031,1.021-4.351,1.789-6.185,2.935c-1.691,1.055-4.428,2.771-5.052,4.812c-0.771,2.529,0.325,4.648-2.156,6.508  c-1.757,1.318-4.719,1.928-6.47,0.281C148.972,758.769,152.958,756.941,154.152,755.043z" fill="#3B425A"/>
</svg>
