<?xml version="1.0" encoding="UTF-8"?>
<svg xmlns="http://www.w3.org/2000/svg" xmlns:xlink="http://www.w3.org/1999/xlink" enable-background="new 0 183.619 837.471 656.619" height="656.619px" id="FOND" version="1.1" viewBox="0 183.619 837.471 656.619" width="837.471px" x="0px" xml:space="preserve" y="0px">
  <path d="M243.491,525.701c1.438,0.533,2.198,1.312,2.148,2.845c-0.038,1.196-0.997,3.487-2.539,3.213  c-0.969-0.172-1.497-1.986-1.945-2.742c-0.894-1.502-2.145-2.318-3.725-3.086c-1.442-0.703-2.659-1.138-4.238-1.451  c-1.093-0.217-2.915-0.098-3.668-1.055c-0.597-0.763-0.635-2.892,0.198-3.543c1.212-0.947,2.646,0.207,3.739,0.819  C236.737,522.543,239.971,524.398,243.491,525.701z" fill="#5B6C8B"/>
</svg>
