<?xml version="1.0" encoding="UTF-8"?>
<svg xmlns="http://www.w3.org/2000/svg" xmlns:xlink="http://www.w3.org/1999/xlink" enable-background="new 0 183.619 837.471 656.619" height="656.619px" id="FOND" version="1.1" viewBox="0 183.619 837.471 656.619" width="837.471px" x="0px" xml:space="preserve" y="0px">
  <path d="M16.354,720.683c2.124,1.229,5.562,2.391,7.979,1.715c1.202-0.336,3.009-1.66,4.239-2.107  c3.021-1.096,6.558-1.739,9.694-0.864c0.906,0.508,1.886,0.811,2.938,0.905c3.452-0.274,6.659-1.334,9.625-3.174  c2.129-1.028,3.155-2.658,3.084-4.885c0.311-2.104,0.821-4.77-1.833-5.232c-0.981-0.17-2.158-0.28-2.547,0.886  c-0.514,1.543,1.895,0.854,2.554,1.471c1.583,1.479-1.258,3.25-2.792,2.92c-0.301-0.065-0.737-0.57-1.058-0.699  c-2.453-0.991-5.36-0.911-7.571-2.379c-1.475-0.979-5.467-3.502-4.369-6.033c0.641-1.477,4.368-2.549,5.622-2.235  c1.728,0.432,2.982,1.471,5.049,0.697c1.553-0.582,1.546-2.31,1.755-3.705c0.396-2.638,2.704-7.959,6.017-7.791  c0.928,0.045,2.232,0.688,2.529,1.659c0.541,1.771-1.757,3.617-1.772,5.367c-0.022,2.281,1.764,4.449,3.721,5.428  c2.831,1.414,7.274,0.771,9.964,2.675c0.918,0.649,2.907,3.129,2.668,4.463c-0.429,2.381-5.55,1.889-7.184,2.293  c-1.797,0.445-3.389,2.055-4.708,3.504c-1.126,1.238-1.227,2.252-1.776,3.553c-0.979,2.31-3.773,6.017-6.202,6.797  c-2.391,0.769-5.474,0.035-7.964,0.142c-2.142,0.09-4.195,1.055-6.307,1.047c-2.485-0.01-13.797-2.668-13.764,0.188  c0.012,0.941,0.91,2.076,1.743,2.539c0.706,0.396,2.156-0.035,2.647,0.797c1.145,1.937-2.736,2.154-3.867,1.904  c-1.961-0.436-4.366-2.18-6.154-3.172c-2.954-1.637-6.433-3.432-8.634-6.066c-1.486-1.78-2.972-5.7-1.138-7.713  c1.449-1.588,3.189,0.586,4.1,1.711C13.735,718.633,14.807,719.787,16.354,720.683z" fill="#5B6C8B"/>
</svg>
