<?xml version="1.0" encoding="UTF-8"?>
<svg xmlns="http://www.w3.org/2000/svg" xmlns:xlink="http://www.w3.org/1999/xlink" enable-background="new 0 183.619 837.471 656.619" height="656.619px" id="FOND" version="1.1" viewBox="0 183.619 837.471 656.619" width="837.471px" x="0px" xml:space="preserve" y="0px">
  <path d="M384.884,573.431c1.78-0.979,2.391-1.478,4.218,0.215c3.824,3.539-1.003,7.432-1.085,11.086  c-0.046,2.064,0.083,4.176-0.137,6.228c-0.266,2.454-0.916,3.36,0.199,5.87c0.449,1.011,1.348,1.72,1.761,2.716  c0.577,1.391,0.558,3.858,0.535,5.448c-0.025,1.9-0.777,5.478-3.403,4.484c-1.596-0.604-3.096-3.717-4.082-4.959  c-1.29-1.627-2.289-3.473-3.745-5.002c-1.163-1.225-2.829-2.729-4.546-3.086c-1.991-0.416-3.775,0.764-5.603,1.271  c-2.396,0.664-6.603,1.736-6.195-2.174c0.295-2.832,3.315-3.604,5.783-4.225c3.729-0.938,7.533-1.791,10.92-3.681  c2.194-1.225,3.885-2.192,2.431-4.416c-1.036-1.584-3.279-3.938-2.567-6.038C380.017,575.258,383.288,574.306,384.884,573.431z" fill="#5B6C8B"/>
</svg>
