<?xml version="1.0" encoding="UTF-8"?>
<svg xmlns="http://www.w3.org/2000/svg" xmlns:xlink="http://www.w3.org/1999/xlink" enable-background="new 0 183.619 837.471 656.619" height="656.619px" id="FOND" version="1.1" viewBox="0 183.619 837.471 656.619" width="837.471px" x="0px" xml:space="preserve" y="0px">
  <path d="M566.164,404.035c-0.857-0.839-2.449-2.946-1.534-4.246c1.569-2.228,4.945,2.14,6.803,1.739  c0.255-0.971-0.446-4.168,1.394-3.04c2.4,1.472,1.552,6.014,2.557,8.266c0.587,1.312,1.711,2.019,2.461,3.171  c0.929,1.429,1.084,3.549,1.083,5.196c-0.001,1.056-0.216,1.82-0.398,2.794c-0.229,1.208-0.063,2.342-0.672,3.485  c-0.426,0.803-1.537,1.85-2.159,0.654c-0.341-0.658-0.015-2.582-0.015-3.286c0-1.495,0.526-3.444,0.175-4.865  c-0.433-1.755-1.978-3.595-3.255-4.806C570.578,407.18,568.168,405.995,566.164,404.035z" fill="#5B6C8B"/>
</svg>
