<?xml version="1.0" encoding="UTF-8"?>
<svg xmlns="http://www.w3.org/2000/svg" xmlns:xlink="http://www.w3.org/1999/xlink" enable-background="new 0 183.619 837.471 656.619" height="656.619px" id="FOND" version="1.1" viewBox="0 183.619 837.471 656.619" width="837.471px" x="0px" xml:space="preserve" y="0px">
  <path d="M87.878,770.021c0.878-0.932,2.208-1.188,3.431-0.732c1.674,0.619,2.483,2.83,3.843,3.978  c1.186,1,3.098,0.123,4.261,0.901c0.85,0.566,0.423,1.451-0.369,1.785c-1.158,0.492-3.113-0.008-4.306-0.254  c-1.562-0.32-3.21-0.844-4.98-0.785c-1.213,0.039-7.022,1.675-6.187-1.08c0.344-1.125,1.445-1.34,2.338-1.801  C86.836,771.552,87.138,770.808,87.878,770.021z" fill="#5B6C8B"/>
</svg>
