<?xml version="1.0" encoding="UTF-8"?>
<svg xmlns="http://www.w3.org/2000/svg" xmlns:xlink="http://www.w3.org/1999/xlink" enable-background="new 0 183.619 837.471 656.619" height="656.619px" id="FOND" version="1.1" viewBox="0 183.619 837.471 656.619" width="837.471px" x="0px" xml:space="preserve" y="0px">
  <path d="M192.45,780.793c-1.572-2.742-1.979-5.916,1.474-7.382c2.142-0.907,3.257-0.098,3.279-3.004  c0.011-1.516-0.222-2.483,0.473-3.774c1.308-2.435,2.133-1.017,2.183,1.03c0.073,3.05,0.586,6.609,0.154,9.578  c-0.339,2.332-3.054,3.031-2.529,5.506c0.271,1.283,2.403,6.355-0.385,5.843c-1.437-0.267-2.279-2.125-2.743-3.332  C193.712,783.582,193.362,782.383,192.45,780.793z" fill="#5B6C8B"/>
</svg>
