<?xml version="1.0" encoding="UTF-8"?>
<svg xmlns="http://www.w3.org/2000/svg" xmlns:xlink="http://www.w3.org/1999/xlink" enable-background="new 0 183.619 837.471 656.619" height="656.619px" id="FOND" version="1.1" viewBox="0 183.619 837.471 656.619" width="837.471px" x="0px" xml:space="preserve" y="0px">
  <path d="M781.149,242.542c-0.843,1.751-1.851,3.478-2.439,5.34c-0.844,2.667-0.369,6.135-0.369,8.973  c0,1.202,0.401,4.104-1.438,2.661c-1.396-1.098-1.896-5.784-2.101-7.359c-0.314-2.45-0.691-4.09,1.145-5.935  c0.444-0.447,1.361-0.804,1.664-1.318c0.434-0.735,0.383-1.908,0.731-2.727c0.683-1.603,1.587-3.222,2.774-4.503  c1.346-1.448,3.062-1.866,4.981-1.569c0.213,1.57-1.731,1.905-2.652,2.668C782.321,239.702,781.775,241.245,781.149,242.542z" fill="#5B6C8B"/>
</svg>
