<?xml version="1.0" encoding="UTF-8"?>
<svg xmlns="http://www.w3.org/2000/svg" xmlns:xlink="http://www.w3.org/1999/xlink" enable-background="new 0 183.619 837.471 656.619" height="656.619px" id="FOND" version="1.1" viewBox="0 183.619 837.471 656.619" width="837.471px" x="0px" xml:space="preserve" y="0px">
  <path d="M604.576,521.98c-1.189,2.451-2.976,4.82-4.593,7.008c-2.367,3.207-4.752,6.662-7.68,9.375  c-3.199,2.967-5.87,6.865-9.516,9.172c-1.247,0.789-3.194,0.935-4.229-0.19c-0.628-0.683-1.174-2.136-0.809-3.062  c0.349-0.891,1.544-0.549,2.451-0.506c1.456,0.07,2.365,0.041,2.569-1.66c0.098-0.813-0.37-2.76,0.479-3.244  c0.604-0.342,1.926,0.353,2.561,0.408c1.155,0.104,2.427-0.381,3.181-1.307c0.679-0.832,0.393-1.986,0.768-2.955  c0.451-1.172,1.489-2.234,2.438-3.021c1.589-1.315,3.499-3.358,3.237-5.661c-0.771-0.095-2.509,0.332-3.142-0.22  c-0.979-0.854,0.018-3.557,0.797-4.143c0.673-0.506,1.646-0.291,2.37-0.076c1.264,0.379,2.397,0.623,3.62-0.225  c1.881-1.306,3.42-3.265,5.284-4.496c0.366-0.242,1.864-1.412,2.16-1.404C608.196,515.814,604.806,521.508,604.576,521.98z" fill="#5B6C8B"/>
</svg>
