<?xml version="1.0" encoding="UTF-8"?>
<svg xmlns="http://www.w3.org/2000/svg" xmlns:xlink="http://www.w3.org/1999/xlink" enable-background="new 0 183.619 837.471 656.619" height="656.619px" id="FOND" version="1.1" viewBox="0 183.619 837.471 656.619" width="837.471px" x="0px" xml:space="preserve" y="0px">
  <path d="M38.914,730.271c1.716,0.057,3.216-0.084,4.985,0.281c1.238,0.256,3.171,1.123,1.628,2.477  c-0.847,0.742-1.809,1.037-2.885,0.988c-0.808-0.037-2.558-0.471-3.146,0.359c-0.87,1.225,1.64,2.528,2.469,2.684  c1.967,0.369,2.896,0.914,4.029,2.43c0.985,1.318,2.074,2.978,3.736,3.379c1.58,0.384,3.368,0.068,4.959,0.558  c1.514,0.465,2.333,1.899,3.107,3.196c0.912,1.527,3.17,5.673,1.005,7.013c-1.339,0.828-1.992,0.498-2.817-0.599  c-0.862-1.147-1.166-2.879-2.002-4.166c-2.496-3.842-6.666-4.885-10.522-6.981c-1.586-0.863-3.163-1.805-4.796-2.424  c-3-1.138-6.028-2.207-9.002-3.406c-0.772-0.312-2.612-0.213-2.355-1.533c0.256-1.311,2.869-0.809,3.836-0.94  c0.226-0.031,1.758,0.01,2.188-0.156c0.645-0.25,0.626-0.631,0.305-1.392c-0.664-1.567-2.163-1.307-3.303-2.211  c-1.326-1.053,0.145-1.702,1.186-1.709C34.275,728.101,36.297,730.185,38.914,730.271z" fill="#5B6C8B"/>
</svg>
