<?xml version="1.0" encoding="UTF-8"?>
<svg xmlns="http://www.w3.org/2000/svg" xmlns:xlink="http://www.w3.org/1999/xlink" enable-background="new 0 183.619 837.471 656.619" height="656.619px" id="FOND" version="1.1" viewBox="0 183.619 837.471 656.619" width="837.471px" x="0px" xml:space="preserve" y="0px">
  <path d="M46.127,774.248c1.026-2.159,3.46-3.379,5.64-4.004c1.073-0.311,4.698-2.844,5.038-0.684  c0.228,1.438-1.601,2.018-2.203,3.059c-0.856,1.479-1.623,2.604-3.105,3.638c-0.522,0.282-1.046,0.563-1.568,0.85  c-0.662,0.17-1.331,0.301-2.009,0.385c-0.652,0.445-0.557,0.988-1.026,1.695c-0.34,0.51-1.259,1.121-1.797,1.449  c-2.058,1.254-5.21,1.188-7.442,0.383c-1.171-0.422-0.923-1.354-0.257-2.129c0.881-1.029,1.754-1.103,2.981-1.242  C42.694,777.383,45.074,776.461,46.127,774.248z" fill="#5B6C8B"/>
</svg>
