<?xml version="1.0" encoding="UTF-8"?>
<svg xmlns="http://www.w3.org/2000/svg" xmlns:xlink="http://www.w3.org/1999/xlink" enable-background="new 0 183.619 837.471 656.619" height="656.619px" id="FOND" version="1.1" viewBox="0 183.619 837.471 656.619" width="837.471px" x="0px" xml:space="preserve" y="0px">
  <path d="M368.7,582.15c1.829-0.625,3.741-1.076,5.613-1.525c0.698-0.168,1.399-0.727,2.188-0.413  c1.479,0.584,1.06,2.739,1.039,4.1c-1.423,0.699-2.607,1.797-4.247,2.248c-1.706,0.467-3.612,0.516-5.091,1.285  c-3.932,2.043-9.078,6.182-13.677,3.532c-2.841-1.637-3.83-6.213-2.127-8.971c1.707-2.768,5.068-0.897,7.269,0.096  c1.103,0.498,2.479,1.294,3.701,1.326C365.121,583.875,367.081,582.703,368.7,582.15z" fill="#3B425A"/>
</svg>
