<?xml version="1.0" encoding="UTF-8"?>
<svg xmlns="http://www.w3.org/2000/svg" xmlns:xlink="http://www.w3.org/1999/xlink" enable-background="new 0 0 401.582 295.167" height="295.167px" id="Layer_1" version="1.1" viewBox="0 0 401.582 295.167" width="401.582px" x="0px" xml:space="preserve" y="0px">
  <path d="M135.922,274.25c0,0,3.192,3.197,3.192,5.248c0,2.062-4.333,8.678-13.453,8.903   c-9.121,0.228-19.839-6.849-25.769-11.87c-5.936-5.021-7.523-14.15-7.752-17.574c-0.229-3.426,1.14-7.761-0.458-8.896   c-1.603-1.146-11.4-10.729-12.771-14.604c-1.368-3.886-6.385-17.121-10.488-19.399c-4.104-2.283-8.893-2.97-9.114-4.562   c-0.229-1.603,3.42-8.902,10.025-9.359c6.614-0.457,11.173,1.146,14.367,16.207c3.191,15.062,12.997,19.172,17.557,22.145   c4.562,2.967,8.438,5.479,8.216,6.852c-0.229,1.365-2.515,8.443-2.059,12.101c0.457,3.646,4.789,13.69,10.718,15.062   C124.065,275.849,128.624,271.74,135.922,274.25z" fill="#B82025"/>
</svg>
