<?xml version="1.0" encoding="utf-8"?>
<!-- Generator: Adobe Illustrator 21.0.0, SVG Export Plug-In . SVG Version: 6.00 Build 0)  -->
<svg version="1.1" id="Calque_1" xmlns="http://www.w3.org/2000/svg" xmlns:xlink="http://www.w3.org/1999/xlink" x="0px" y="0px"
	 viewBox="0 0 168 188" style="enable-background:new 0 0 168 188;" xml:space="preserve">
<style type="text/css">
	.st0{fill:#B53030;stroke:#000000;stroke-miterlimit:10;}
	.st1{fill:#216AEA;stroke:#000000;stroke-width:10;stroke-miterlimit:10;}
	.st2{fill:#37E823;stroke:#000000;stroke-miterlimit:10;}
	.st3{fill:#E3E823;stroke:#000000;stroke-miterlimit:10;}
</style>
<path class="st0" d="M-21.8,93.6c0,0-0.1,22.5,13.7,31.1s63.2-2.5,63.2-2.5S76.3,85.4,47.7,72S-50.2,99.6-21.8,93.6z"/>
<ellipse transform="matrix(0.6532 -0.7572 0.7572 0.6532 -28.6862 135.9851)" class="st1" cx="134.1" cy="99.3" rx="73.5" ry="26.8"/>
<g id="groupe">
	<path class="st2" d="M59.8,2.2C71.9-11.8,80,1.8,94,13.9S122.6,32,110.5,46s-33.2,15.6-47.2,3.5S47.7,16.2,59.8,2.2z"/>
	
		<rect x="61.7" y="130.4" transform="matrix(0.6532 -0.7572 0.7572 0.6532 -86.3443 121.2565)" class="st3" width="55" height="49"/>
</g>
</svg>
