<?xml version="1.0" encoding="UTF-8"?>
<svg xmlns="http://www.w3.org/2000/svg" xmlns:xlink="http://www.w3.org/1999/xlink" enable-background="new 0 183.619 837.471 656.619" height="656.619px" id="FOND" version="1.1" viewBox="0 183.619 837.471 656.619" width="837.471px" x="0px" xml:space="preserve" y="0px">
  <path d="M418.367,512.842c-1.792,4.938-9.57,2.803-13.194,3.377c-3.452,0.549-7.264,2.832-10.412,4.244  c-4.344,1.946-9.297,3.735-14.148,2.416c-2.448-0.666-2.307-1.185-2.919-3.285c-0.595-2.045-1.601-3.246-3.43-4.351  c-1.432-0.862-3.92-2.271-5.541-0.801c-0.646,0.586-0.722,1.529,0.038,2.043c0.458,0.31,1.921,0.244,2.47,0.48  c1.179,0.504,2.599,1.123,1.964,2.547c-1.742,3.908-6.927-1.758-8.502-2.49c-1.884-0.877-4.024-2.154-6.104-2.506  c-2.491-0.42-5.242-0.135-7.781-0.215c-2.399-0.074-8.183,0.043-9.684-2.369c-2.768-4.445,6.456-2.459,7.966-2.381  c2.081,0.106,3.093-0.172,4.821-1.293c2.232-1.445,4.584-3.127,7.375-2.629c3.107,0.553,6.23,2.524,9.236,3.563  c3.731,1.289,7.104,3.367,10.795,4.799c1.451,0.562,3.229,1.142,4.814,1.056c1.124-0.062,3.829-0.804,4.605-1.599  c0.854-0.871,0.87-1.389-0.028-2.578c-1.64-2.168-5.141-2.463-6.215-5.286c-0.93-2.447,0.981-3.757,3.25-3.681  c3.907,0.135,5.873,2.229,8.993,3.717c3.924,1.869,8.952,2.511,13.304,2.822c1.75,0.127,3.569-0.045,5.3,0.217  c1.78,0.269,3.522,0.898,5.307,1.22c0.702,0.127,4.87,1.041,4.541,2.225c-0.29,1.031-2.143,0.252-2.775,0.201  C421.92,512.267,418.51,512.453,418.367,512.842z" fill="#5B6C8B"/>
</svg>
