<?xml version="1.0" encoding="UTF-8"?>
<svg xmlns="http://www.w3.org/2000/svg" xmlns:xlink="http://www.w3.org/1999/xlink" enable-background="new 0 183.619 837.471 656.619" height="656.619px" id="FOND" version="1.1" viewBox="0 183.619 837.471 656.619" width="837.471px" x="0px" xml:space="preserve" y="0px">
  <path d="M226.843,636.763c0,2.135-0.497,4.789-0.146,6.889c0.389,2.314,0.772,5.01-0.006,7.447  c-0.273,0.859-0.754,2.049-1.978,2.113c-1.249,0.063-1.941-1.65-2.011-2.966c-0.102-1.938,1.366-3.62,1.348-5.84  c-0.015-1.688-0.528-3.295-0.865-4.936c-0.365-1.777,0.062-3.222,0.12-5.006c0.065-2.025-0.748-1.718-1.999-3.093  c-1.568-1.721,0.067-3.233,2.018-2.973C227.436,628.949,226.843,633.957,226.843,636.763z" fill="#5B6C8B"/>
</svg>
