<?xml version="1.0" encoding="UTF-8"?>
<svg xmlns="http://www.w3.org/2000/svg" xmlns:xlink="http://www.w3.org/1999/xlink" enable-background="new 0 183.619 837.471 656.619" height="656.619px" id="FOND" version="1.1" viewBox="0 183.619 837.471 656.619" width="837.471px" x="0px" xml:space="preserve" y="0px">
  <path d="M786.158,399.954c0.617-0.528,2.566-3.583,3.592-3.253c0.655,0.212-0.07,1.814,0.517,2.214  c0.962,0.655,2.679-0.163,3.558-0.588c0.95-0.458,3.044-0.868,3.727,0.247c1.067,1.748-1.208,2.556-2.508,2.902  c-0.841,0.226-1.656,0.468-2.532,0.464c-0.718-0.002-1.177-0.122-1.875,0.215c-1.197,0.577-2.036,1.08-3.362,1.176  c-0.021-0.518,0.524-1.727-0.006-1.844c-0.302-0.066-1.451,0.941-1.735,1.116c-0.894,0.545-1.861,0.929-2.825,1.327  c-0.758,0.312-2.771,1.216-3.345,0.146c-0.716-1.337,1.312-2.266,2.338-2.476c0.714-0.146,1.353-0.038,2.069-0.293  C784.628,401.005,785.465,400.55,786.158,399.954z" fill="#5B6C8B"/>
</svg>
