<?xml version="1.0" encoding="UTF-8"?>
<svg xmlns="http://www.w3.org/2000/svg" xmlns:xlink="http://www.w3.org/1999/xlink" enable-background="new 0 183.619 837.471 656.619" height="656.619px" id="FOND" version="1.1" viewBox="0 183.619 837.471 656.619" width="837.471px" x="0px" xml:space="preserve" y="0px">
  <path d="M568.631,550.008c0.81,4.448-6.99,8.535-9.857,10.555c-2.604,1.836-4.6,4.391-7.286,6.193  c-1.948,1.307-4.745,4.436-7.294,4.151c-0.578-2.727,3.733-5.062,4.713-7.455c-2.238-0.477-4.982,2.664-7.067,1.724  c-2.386-1.076,2.426-2.312,3.226-2.578c3.205-1.068,6.159-2.705,9.158-4.23c2.714-1.381,4.798-3.946,7.685-4.889  c1.285-0.418,2.148-0.713,3.227-1.607C566.138,551.037,567.145,549.707,568.631,550.008z" fill="#3B425A"/>
</svg>
