<?xml version="1.0" encoding="UTF-8"?>
<svg xmlns="http://www.w3.org/2000/svg" xmlns:xlink="http://www.w3.org/1999/xlink" enable-background="new 0 183.619 837.471 656.619" height="656.619px" id="FOND" version="1.1" viewBox="0 183.619 837.471 656.619" width="837.471px" x="0px" xml:space="preserve" y="0px">
  <path d="M575.114,426.101c0.857,1.209,2.739,1.891,4.005,2.525c3.617,1.817,5.687,4.771,6.104,8.836  c0.875,8.52-9.26,9.672-15.531,7.354c-5.791-2.139-8.388-10.941-8.252-16.459c1.356-0.049,2.081,0.023,3.302,0.674  c1.175,0.623,2.373,1.812,3.741,1.779c0.548-2.678,0.93-3.307-1.163-5.396c-1.767-1.762-3.596-3.032-4.756-5.333  c-0.571-1.134-1.602-3.337-0.249-3.99c1.818-0.874,6.987,0.747,8.68,1.663c1.188,0.643,1.937,1.665,2.621,2.804  C574.676,422.32,573.998,424.527,575.114,426.101z" fill="#3B425A"/>
</svg>
