<?xml version="1.0" encoding="UTF-8"?>
<svg xmlns="http://www.w3.org/2000/svg" xmlns:xlink="http://www.w3.org/1999/xlink" enable-background="new 0 183.619 837.471 656.619" height="656.619px" id="FOND" version="1.1" viewBox="0 183.619 837.471 656.619" width="837.471px" x="0px" xml:space="preserve" y="0px">
  <path d="M554.941,350.133c2.609,0.396,0.631,6.072,0.979,7.873c0.194,1.001,1.15,1.839,1.465,2.95  c0.271,0.969,0.306,2.179,0.221,3.188c-0.158,1.856-0.357,3.642-0.403,5.528c-0.051,2.121-0.813,4.079-1.798,5.955  c-1.61,3.07-1.345-0.846-1.272-2.262c0.153-3.081,0.108-6.172,0.12-9.26c0.003-0.943-0.057-2.023-0.591-2.852  c-0.492-0.762-0.957-0.464-1.645-0.817c-1.847-0.951-1.361-4.287-0.726-5.794C551.977,353.023,552.65,349.787,554.941,350.133z" fill="#5B6C8B"/>
</svg>
