<?xml version="1.0" encoding="UTF-8"?>
<svg xmlns="http://www.w3.org/2000/svg" xmlns:xlink="http://www.w3.org/1999/xlink" enable-background="new 0 183.619 837.471 656.619" height="656.619px" id="FOND" version="1.1" viewBox="0 183.619 837.471 656.619" width="837.471px" x="0px" xml:space="preserve" y="0px">
  <path d="M411.718,549.898c-0.235,1.26,1.372,7.695-1.626,5.662c-1.205-0.816-1.104-2.924-1.279-4.139  c-0.368-2.556-2.502-7.793-6.017-6.89c-2.13,0.55-1.513,3.506-1.51,5.365c0.003,1.99,0.022,3.455-0.721,5.248  c-0.461,1.111-0.999,1.92,0.039,2.996c1.51,1.565,4.867,1.086,6.799,0.992c1.032-0.052,4.915-0.033,5.062,1.803  c0.171,2.145-9.182,2.815-10.729,2.764c-2.241-0.073-4.162-1.164-6.079-2.258c-1.612-0.922-4.606-1.588-4.116-3.953  c0.407-1.961,2.535-2.328,3.617-3.719c1.329-1.709-0.216-2.508-1.733-3.662c-2.661-2.018-10.278-6.461-5.777-10.047  c3.209-2.557,7.553,1.576,10.724-1.238c3.233-2.867,4.635-7.123,8.464-9.489c1.084-0.671,5.396-3.515,6.102-1.621  c0.715,1.914-2.886,4.651-1.379,6.473c0.959,1.158,4.136,0.949,5.529,1.748c1.06,0.607,3.217,2.061,2.988,3.529  c-0.248,1.619-3.312,2.016-4.322,3.42C414.174,545.076,412.229,547.136,411.718,549.898z" fill="#3B425A"/>
</svg>
