<?xml version="1.0" encoding="UTF-8"?>
<svg xmlns="http://www.w3.org/2000/svg" xmlns:xlink="http://www.w3.org/1999/xlink" enable-background="new 0 183.619 837.471 656.619" height="656.619px" id="FOND" version="1.1" viewBox="0 183.619 837.471 656.619" width="837.471px" x="0px" xml:space="preserve" y="0px">
  <path d="M561.972,496.59c3.478-1.552,6.104-4.994,8.646-7.713c1.69-1.81,3.524-3.257,5.76-4.367  c1.682-0.838,4.245-1.793,6.174-1.468c3.27,0.556-3.476,3.554-4.221,4.015c-1.585,0.979-3.503,1.729-4.813,3.088  c-0.757,0.785-0.578,1.533-0.974,2.533c-1.05,2.653-4.695,3.711-7.006,4.91c-2.72,1.411-5.386,2.729-7.97,4.356  c-0.687,0.433-3.161,2.801-4.106,2.137c-0.061,0.017-0.118,0.013-0.176-0.014c-0.39-1.635,1.904-3.039,2.944-3.859  C558.077,498.752,559.797,497.558,561.972,496.59z" fill="#5B6C8B"/>
</svg>
