<?xml version="1.0" encoding="UTF-8"?>
<svg xmlns="http://www.w3.org/2000/svg" xmlns:xlink="http://www.w3.org/1999/xlink" enable-background="new 0 183.619 837.471 656.619" height="656.619px" id="FOND" version="1.1" viewBox="0 183.619 837.471 656.619" width="837.471px" x="0px" xml:space="preserve" y="0px">
  <path d="M102.643,615.574c0.771-0.43,2.752-0.617,3.598-0.235c0.524,0.237,0.629,0.747,0.876,1.18  c0.479,0.836,0.927,1.896,1.621,2.639c0.632,0.672,1.889,0.916,1.958,2.002c0.077,1.188-1.681,1.576-2.643,1.316  c-1.153-0.312-1.885-0.791-3.199-0.82c-1.049-0.022-2.105,0.142-3.08,0.277c-1.229,0.172-4.05,0.934-4.808-0.679  c-0.634-1.354,1.09-2.506,2.06-3.071C100.327,617.422,101.341,616.301,102.643,615.574z" fill="#5B6C8B"/>
</svg>
