<?xml version="1.0" encoding="UTF-8"?>
<svg xmlns="http://www.w3.org/2000/svg" xmlns:xlink="http://www.w3.org/1999/xlink" enable-background="new 0 183.619 837.471 656.619" height="656.619px" id="FOND" version="1.1" viewBox="0 183.619 837.471 656.619" width="837.471px" x="0px" xml:space="preserve" y="0px">
  <path d="M196.54,596.961c1.352-0.695,2.934-1.494,3.848-2.759c1.127-1.559,0.013-2.754,0.318-4.489  c0.209-1.187,1.237-1.979,1.991-2.83c0.957-1.084,1.562-2.291,2.234-3.574c0.783-1.5,3.366-3.016,4.239-0.512  c1.083,3.102,0.528,9.412-1.742,11.811c-0.651,0.686-1.455,0.871-1.867,1.75c-0.533,1.141-0.139,2.68-0.087,3.9  c0.102,2.391-1.542,4.283-3.846,4.649c-2.654,0.422-6.483-0.457-9.058,0.703c-1.308,0.59-1.29,1.787-1.509,3.062  c-0.234,1.379-0.062,1.787,0.321,3.157c0.268,0.953,0.609,2.964,0.215,3.955c-0.537,1.354-2.086,1.775-3.294,2.273  c-1.022,0.42-1.849,1.238-2.847,1.629c-2.404,0.941-4.95-1.529-3.606-3.896c0.648-1.142,2.091-1.359,2.769-2.609  c0.697-1.291,0.723-2.818,1.026-4.223c0.411-1.896,1.825-3.39,2.227-5.263c0.308-1.442,0.097-2.539,1.275-3.649  C191.121,598.187,194.213,598.16,196.54,596.961z" fill="#5B6C8B"/>
</svg>
