<?xml version="1.0" encoding="UTF-8"?>
<svg xmlns="http://www.w3.org/2000/svg" xmlns:xlink="http://www.w3.org/1999/xlink" enable-background="new 0 183.619 837.471 656.619" height="656.619px" id="FOND" version="1.1" viewBox="0 183.619 837.471 656.619" width="837.471px" x="0px" xml:space="preserve" y="0px">
  <path d="M16.873,700.615c1.133,1.39,1.186,2.869,1.811,4.414c1.893,4.678,5.413,5.496,9.759,5.859  c1.897,0.158,3.972,0.215,5.79,0.608c2.861,0.619,5.367,2.322,8.324,2.222c1.321-0.045,4.648,0.666,2.814,2.674  c-1.694,1.854-5.879-0.891-7.737-1.26c-2.325-0.463-5.249-0.248-7.466,0.442c-4.044,1.265-6.408,2.797-10.965,2.027  c-3.954-0.666-6.69-3.146-9.41-6.049c-1.665-1.775-1.927-2.459-2.141-4.652c-0.269-2.774,0.783-6.854,3.729-7.967  C13.486,698.14,15.563,699.011,16.873,700.615z" fill="#5B6C8B"/>
</svg>
