<?xml version="1.0" encoding="UTF-8"?>
<svg xmlns="http://www.w3.org/2000/svg" xmlns:xlink="http://www.w3.org/1999/xlink" enable-background="new 0 183.619 837.471 656.619" height="656.619px" id="FOND" version="1.1" viewBox="0 183.619 837.471 656.619" width="837.471px" x="0px" xml:space="preserve" y="0px">
  <path d="M511.468,532.224c0.582-0.35,1.257-0.695,1.891-0.928c0.291-0.107,0.385-0.019,0.7-0.256  c0.755-0.57,1.402-1.115,2.319-1.419c0.759-0.254,1.444-0.53,2.257-0.581c0.88-0.056,1.641,0.217,2.502,0.274  c0.897,0.062,1.817-0.192,2.687-0.418c0.33-0.086,1.11-0.207,1.229-0.549c-0.574-0.283-1.286,0.018-1.882-0.254  c-0.69-0.316-0.609-0.888,0.062-1.127c1-0.361,2.452-0.045,3.296-0.787c0.461-0.406,0.646-1.09,1.104-1.523  c1.077-1.018,3.062-0.881,4.447-0.768c0.949,0.078,2.045,0.467,2.916,0.846c0.439,0.193,0.822,0.387,0.924,0.883  c0.175,0.863-0.504,1.39-1.1,1.826c-0.962,0.707-1.804,1.402-2.878,1.943c-1.192,0.604-2.065,1.496-3.139,2.272  c-1.06,0.771-1.977,1.722-2.923,2.625c-1.245,1.188-3.195,2.609-5.077,2.302c-0.459-0.076-0.757-0.314-0.91-0.765  c-0.25-0.729,0.029-1.006,0.458-1.547c0.483-0.609,0.67-1.215,0.099-1.801c-0.683-0.703-1.3-0.818-2.263-0.828  c-0.566-0.004-1.19-0.08-1.738,0.08c-1.168,0.34-2.292,1.104-3.437,1.551c-0.849,0.332-1.615,0.724-2.424,1.135  c-0.745,0.38-1.628,0.877-2.511,0.695c-0.364-0.076-0.913-0.438-0.734-0.902C507.861,532.875,510.389,532.875,511.468,532.224z" fill="#5B6C8B"/>
</svg>
