<?xml version="1.0" encoding="UTF-8"?>
<svg xmlns="http://www.w3.org/2000/svg" xmlns:xlink="http://www.w3.org/1999/xlink" enable-background="new 0 183.619 837.471 656.619" height="656.619px" id="FOND" version="1.1" viewBox="0 183.619 837.471 656.619" width="837.471px" x="0px" xml:space="preserve" y="0px">
  <path d="M586.716,421.814c0.991,1.756,2.172,3.355,2.828,5.287c0.743,2.193,0.922,4.877,0.665,7.174  c-0.097,0.85-0.603,3.484-1.918,3.629c-0.754,0.084-0.878-0.494-0.992-1.188c-0.243-1.466-0.279-3.105-0.438-4.604  c-0.129-1.215,0.173-2.559-0.676-3.531c-0.635-0.729-1.866-1.325-2.739-1.672c-0.998-0.396-4.002-1.033-3.503-2.651  c0.433-1.41,2.273-0.359,2.722-1.673c0.177-0.516-0.078-1.194-0.221-1.67c-0.262-0.875-0.525-1.604-0.57-2.565  c-0.039-0.864,0.25-1.624,1.178-1.829C584.896,416.109,586.031,420.605,586.716,421.814z" fill="#5B6C8B"/>
</svg>
