<?xml version="1.0" encoding="UTF-8"?>
<svg xmlns="http://www.w3.org/2000/svg" xmlns:xlink="http://www.w3.org/1999/xlink" enable-background="new 0 183.619 837.471 656.619" height="656.619px" id="FOND" version="1.1" viewBox="0 183.619 837.471 656.619" width="837.471px" x="0px" xml:space="preserve" y="0px">
  <path d="M289.328,529.463c0.82-0.832,1.036-2.582,1.927-3.236c2.174-1.605,4.572,1.315,4.032,3.504  c-0.302,1.213-0.808,3.387-1.325,4.492c-0.552,1.178-1.044,1.356-2.537,1.469c-2.485,0.184-4.486-1.555-6.691-2.053  c-1.108-0.25-3.176,0.567-3.775-0.76c-0.35-0.771-0.152-0.859,0.464-1.316c1.162-0.861,2.792-0.334,4.09-0.359  C287.004,531.174,288.234,530.57,289.328,529.463z" fill="#5B6C8B"/>
</svg>
