<?xml version="1.0" encoding="UTF-8"?>
<svg xmlns="http://www.w3.org/2000/svg" xmlns:xlink="http://www.w3.org/1999/xlink" enable-background="new 0 183.619 837.471 656.619" height="656.619px" id="FOND" version="1.1" viewBox="0 183.619 837.471 656.619" width="837.471px" x="0px" xml:space="preserve" y="0px">
  <path d="M125.701,753.289c0.383-1.965-0.121-2.778-1.492-4.194c-0.729-0.75-2.3-1.679-2.667-2.668  c-0.789-2.136-0.393-5.693,0.915-7.56c1.918-2.735,6.583-0.371,7.062,2.424c0.213,1.238-0.268,2.634-0.003,3.859  c0.318,1.477,1.546,2.506,2.637,3.641c2.689,2.798,2.943,7.146,1.223,10.806c-1.21,2.571-4.388,3.742-6.941,2.393  C122.418,759.869,125.097,756.383,125.701,753.289z" fill="#5B6C8B"/>
</svg>
