<?xml version="1.0" encoding="UTF-8"?>
<svg xmlns="http://www.w3.org/2000/svg" xmlns:xlink="http://www.w3.org/1999/xlink" enable-background="new 0 183.619 837.471 656.619" height="656.619px" id="FOND" version="1.1" viewBox="0 183.619 837.471 656.619" width="837.471px" x="0px" xml:space="preserve" y="0px">
  <path d="M422.296,514.39c1.663-0.105,3.219,0.891,4.916,0.789c0.249-0.81-0.644-1.627,0.656-1.623  c1.569,0.008,2.17,1.326,3.382,2.055c0.528,0.316,1.052,0.604,1.618,0.851c0.251,0.108,1.05,0.327,1.071,0.702  c0.062,1.021-3.632,0.619-4.229,0.472c-1.35-0.33-2.596-0.408-3.983-0.41c-1.705,0-2.807,0.678-4.146,1.686  c-0.448,0.339-2.282,2.072-2.972,1.554c-0.317-0.24-0.138-1.271-0.105-1.576c0.134-1.295,0.814-2.092,1.504-3.119  C420.573,514.92,421.201,514.459,422.296,514.39z" fill="#5B6C8B"/>
</svg>
