<?xml version="1.0" encoding="UTF-8"?>
<svg xmlns="http://www.w3.org/2000/svg" xmlns:xlink="http://www.w3.org/1999/xlink" enable-background="new 0 183.619 837.471 656.619" height="656.619px" id="FOND" version="1.1" viewBox="0 183.619 837.471 656.619" width="837.471px" x="0px" xml:space="preserve" y="0px">
  <path d="M436.8,580.855c0.646,0.033,1.927-0.262,1.955,0.781c0.017,0.668-1.299,1.217-1.75,1.59  c-0.82,0.674-1.41,1.439-2.414,1.857c-1.118,0.465-2.376,0.579-3.146-0.39c-0.759-0.953-0.453-2.182-1.271-3.053  c-0.996-1.062-1.94-1.367-2.251-2.969c-0.151-0.783-0.733-3.867,0.299-4.263c1.229-0.465,2.744,2.81,3.373,3.49  C432.992,579.42,434.654,580.742,436.8,580.855z" fill="#5B6C8B"/>
</svg>
