<?xml version="1.0" encoding="UTF-8"?>
<svg xmlns="http://www.w3.org/2000/svg" xmlns:xlink="http://www.w3.org/1999/xlink" enable-background="new 0 183.619 837.471 656.619" height="656.619px" id="FOND" version="1.1" viewBox="0 183.619 837.471 656.619" width="837.471px" x="0px" xml:space="preserve" y="0px">
  <path d="M295.49,595.58c-0.38-1.239-1.148-1.963,0.393-2.524c0.711-0.263,1.718-0.217,2.389,0.414  c0.615,0.576,0.559,1.278,0.483,2.145c-0.057,0.662-0.646,1.595-0.198,2.222c0.57,0.797,1.369,0.19,1.598-0.566  c0.201-0.668-0.166-1.379,0.095-2.08c0.368-0.99,1.212-1.342,2.046-0.578c0.872,0.799,1.542,1.941,1.888,3.047  c0.285,0.914,0.543,1.797,0.981,2.574c0.332,0.59,1.123,1.266,1.357,1.785c0.609,1.35-1.423,0.916-2.289,0.459  c-1.905-1.006-2.887-1.728-5.094-1.297c-1.389,0.27-2.979,0.942-4.4,0.547c-0.736-0.205-1.508-0.687-2.236-0.949  c-1.079-0.393-2.746-1.133-1.204-2.018C292.692,597.959,296.366,598.439,295.49,595.58z" fill="#5B6C8B"/>
</svg>
