<?xml version="1.0" encoding="UTF-8"?>
<svg xmlns="http://www.w3.org/2000/svg" xmlns:xlink="http://www.w3.org/1999/xlink" enable-background="new 0 183.619 837.471 656.619" height="656.619px" id="FOND" version="1.1" viewBox="0 183.619 837.471 656.619" width="837.471px" x="0px" xml:space="preserve" y="0px">
  <path d="M370.869,522.972c1.427-0.131,4.236-0.685,3.175,1.926c-0.671,1.646-3.408,2.627-4.969,2.984  c-2.001,0.457-2.556-0.011-4.343-0.754c-4.571-1.902-9.078,1.168-13.742-0.474c-3.604-1.27-6.321-2.305-10.135-1.209  c-3.342,0.961-6.566,1.564-9.51,3.533c-2.184,1.459-3.494,3.582-4.951,5.752c-2.192,3.264-4.599,10.422-9.879,6.805  c-3.9-2.672-5.358-11.127,0.089-12.92c1.42-0.469,3.294,0.216,4.76-0.188c1.993-0.545,3.774-2.469,5.63-3.388  c2.146-1.061,4.789-2.145,7.104-2.793c1.473-0.414,3.052-0.03,4.456-0.448c2.19-0.65,3.716-2.925,5.767-3.951  c3.825-1.918,11.646-2.986,15.397-0.355c1.457,1.023,1.908,2.884,3.269,4.005C365.061,523.205,368.339,523.201,370.869,522.972z" fill="#3B425A"/>
</svg>
