<?xml version="1.0" encoding="UTF-8"?>
<svg xmlns="http://www.w3.org/2000/svg" xmlns:xlink="http://www.w3.org/1999/xlink" enable-background="new 0 183.619 837.471 656.619" height="656.619px" id="FOND" version="1.1" viewBox="0 183.619 837.471 656.619" width="837.471px" x="0px" xml:space="preserve" y="0px">
  <path d="M226.22,784.34c2.86,0.809,5.283,1.049,7.064,3.627c1.251,1.812,2.119,5.01,4.068,6.172  c1.196,0.713,2.727,0.531,3.646,1.586c0.753,0.859,1.303,2.227,0.644,3.271c-1.247,1.976-2.815-0.633-4.046-1.096  c-1.312-0.496-1.743,0.707-2.84,0.711c-1.094,0.004-2.286-1.473-3.049-2.125c-0.97-0.828-1.882-1.447-2.757-2.367  c-1.642-1.721-5.351-4.803-7.842-2.707c-0.976,0.822-1.238,2.062-2.57,2.604c-1.505,0.611-3.292,0.313-4.432-0.996  c-0.781-0.904-1.128-2.307-0.993-3.479c0.121-1.046,0.703-1.933,1.055-2.908c0.46-1.285,0.726-2.658,0.809-4.019  c0.234-3.819-0.554-7.635-1.694-11.268c-0.258-0.818-1.12-2.314-2.115-1.385c-1.17,1.092,0.188,3.813,0.547,4.956  c0.564,1.798,2.041,9.005-1.98,7.791c-0.875-0.264-2.153-1.477-2.894-2.084c-1.291-1.059-2.321-2.401-3.048-3.903  c-1.643-3.398-1.601-7.435-1.171-11.099c0.355-3.047,0.772-5.948,0.782-9.03c0.006-1.771,0.072-3.5-0.237-5.254  c-0.531-3.009-1.844-5.726-3.031-8.505c-1.885-4.405-4.114-8.7-5.519-13.299c-1.245-4.074,3.295-2.141,4.583-0.199  c1.267,1.91,1.696,4.308,2.971,6.271c1.378,2.125,3.642,2.77,5.343,4.535c1.189,1.236,1.798,2.963,2.504,4.488  c0.456,0.989,0.752,1.645,0.627,2.694c-0.233,1.959-1.792,3.83-1.47,5.918c0.42,2.72,4.151,4.435,6.303,5.445  c3.177,1.494,5.319,2.775,7.069,6.02c1.176,2.183,1.274,3.355,0.591,5.679c-0.812,2.76-1.008,5.758-1.065,8.623  c-0.034,1.723,0.025,2.284,1.131,3.562C224.171,783.693,224.873,783.959,226.22,784.34z" fill="#5B6C8B"/>
</svg>
