<?xml version="1.0" encoding="UTF-8"?>
<svg xmlns="http://www.w3.org/2000/svg" xmlns:xlink="http://www.w3.org/1999/xlink" enable-background="new 0 183.619 837.471 656.619" height="656.619px" id="FOND" version="1.1" viewBox="0 183.619 837.471 656.619" width="837.471px" x="0px" xml:space="preserve" y="0px">
  <path d="M344.346,473.99c1.374,1.771,2.735,3.562,4.097,5.342c1.175,1.535,2.201,3.244,3.561,4.604  c1.007,1.008,2.637,1.688,3.06,3.123c-0.994,0.684-2.167,0.59-3.368,0.488c-1.492-0.125-3.557-0.228-4.962-0.818  c-1.376-0.578-2.245-2.068-3.561-2.682c-3.213-1.496-8.168-0.593-11.65-0.593c-4.647,0-8.925,0.336-13.34-1.332  c-1.324-0.502-14.207-6.014-10.979-8.021c2.328-1.447,7.366,0.672,9.543,1.137c4.878,1.043,9.711,2.523,14.64,3.32  c2.03,0.328,4.089,0.188,6.134,0.5c1.936,0.297,3.541,0.664,4.087-1.582c0.427-1.756-0.589-3.34-1.712-4.465  c-0.375-0.377-2.15-1.631-2.169-2.111C337.587,467.377,343.844,473.345,344.346,473.99z" fill="#5B6C8B"/>
</svg>
