<?xml version="1.0" encoding="UTF-8"?>
<svg xmlns="http://www.w3.org/2000/svg" xmlns:xlink="http://www.w3.org/1999/xlink" enable-background="new 0 183.619 837.471 656.619" height="656.619px" id="FOND" version="1.1" viewBox="0 183.619 837.471 656.619" width="837.471px" x="0px" xml:space="preserve" y="0px">
  <path d="M262.679,555.881c-0.308-2.386-1.347-4.738-2.224-6.908c-1.128-2.793-1.758-5.592-3.574-8.019  c-0.83-1.108-1.473-2.059-2.468-3.014c-0.814-0.781-1.535-1.652-2.36-2.424c-1.082-1.01-3.373-2.004-3.949-3.381  c-0.896-2.138,1.06-3.236,2.577-2.324c1.206,0.727,2.049,2.088,3.543,2.613c0.594,0.209,1.187,0.293,1.811,0.297  c2.369,0.014,4.875-0.547,7.344-0.438c1.075,0.049,3.416-0.16,2.882,1.379c-0.163,0.47-1.618,1.107-1.997,1.539  c-1.562,1.781-1.819,5.269,1.275,4.562c3.71-0.844,6.86-2.998,10.833-3.312c2.309-0.182,5.626-0.575,7.732,0.355  c2.956,1.309,6.607,3.381,9.021,5.551c0.163,2.859-11.278,0.596-12.904,0.959c-2.5,0.56-3.168,1.805-5.152,3.229  c-1.055,0.756-2,0.914-3.21,1.364c-3.171,1.185-2.514,3.345,0.549,3.552c3.441,0.231,5.191-2.396,7.773-4.033  c0.97-0.615,2.741-0.795,3.252,0.629c0.907,2.531-4.078,6.576-5.671,7.451c-1.897,1.043-8.092,0.094-8.483,3.166  c-0.233,1.834,2.112,2.621,3.137,3.51c0.76,0.662,3.271,3.104,2.302,4.475c-0.5,0.707-2.765,0.771-3.326,0.724  c-2.295-0.199-5.348-0.873-6.932-2.767C262.251,561.976,263.079,558.972,262.679,555.881z" fill="#5B6C8B"/>
</svg>
