<?xml version="1.0" encoding="UTF-8"?>
<svg xmlns="http://www.w3.org/2000/svg" xmlns:xlink="http://www.w3.org/1999/xlink" enable-background="new 0 183.619 837.471 656.619" height="656.619px" id="FOND" version="1.1" viewBox="0 183.619 837.471 656.619" width="837.471px" x="0px" xml:space="preserve" y="0px">
  <path d="M195.47,655.92c1.587-2.107,2.174-4.789,2.819-7.304c0.469-1.828,1.349-4.924,2.916-6.147  c1.13-0.883,4.706-2.289,5.942-1.15c1.308,1.203-1.188,3.75-0.65,5.326c0.505,1.477,3.271,0.979,3.476,3.225  c0.249,2.758-3.725,3.765-4.866,5.785c-0.539,0.957-0.673,2.406-0.788,3.453c-0.268,2.43-1.393,4.307-3.251,5.809  c-1.261,1.019-2.515,1.759-3.801,2.55c-1.155,0.709-1.888,1.666-3.119,2.211c-1.844,0.813-2.833,0.934-3.92-0.828  c-0.665-1.08-1.491-2.885-1.123-4.187c0.285-1.006,1.252-1.545,1.792-2.366c0.517-0.787,0.446-1.578,0.812-2.433  C192.444,658.136,194.38,657.367,195.47,655.92z" fill="#5B6C8B"/>
</svg>
