<?xml version="1.0" encoding="UTF-8"?>
<svg xmlns="http://www.w3.org/2000/svg" xmlns:xlink="http://www.w3.org/1999/xlink" enable-background="new 0 183.619 837.471 656.619" height="656.619px" id="FOND" version="1.1" viewBox="0 183.619 837.471 656.619" width="837.471px" x="0px" xml:space="preserve" y="0px">
  <path d="M225.593,730.744c2.461,3.05,1.664,4.457,0.021,7.562c-1.993,3.764,0.226,6.899,0.622,10.649  c0.51,4.804-2.703,5.826-6.696,5.854c-3.762,0.025-4.103-2.133-3.936-5.33c0.071-1.369,0.104-2.914-0.22-4.25  c-0.435-1.799-2.02-3.012-2.521-4.752c-0.208-0.723-0.381-1.959-0.158-2.771c0.162-0.592,0.704-1.088,0.995-1.584  c0.83-1.413,1.012-2.424,1.051-4.071c0.075-3.209-2.01-5.062-3.097-7.902c-0.672-1.76-0.568-4.299,0.755-5.752  c1.319-1.447,3.753-0.68,4.939-2.148c2.112-2.614-3.526-8.354-0.704-10.01c3.089-1.812,6.408,3.994,6.489,6.31  c0.11,3.146-1.33,6.276-1.083,9.354C222.3,725.008,223.644,728.33,225.593,730.744z" fill="#5B6C8B"/>
</svg>
