<?xml version="1.0" encoding="UTF-8"?>
<svg xmlns="http://www.w3.org/2000/svg" xmlns:xlink="http://www.w3.org/1999/xlink" enable-background="new 0 183.619 837.471 656.619" height="656.619px" id="FOND" version="1.1" viewBox="0 183.619 837.471 656.619" width="837.471px" x="0px" xml:space="preserve" y="0px">
  <path d="M173.581,602.851c0.651-2.404,1.331-2.451,3.327-3.168c2.411-0.869,5.065-1.797,6.988-3.682  c1.72-1.687,2.188-3.949,4.704-4.681c1.55-0.447,8.405-2.811,9.22-0.799c0.521,1.283-0.887,2.18-1.774,2.699  c-2.182,1.27-4.855,1.305-7.199,2.088c-3.469,1.16-3.435,3.498-4.612,6.69c-1.11,3.013-1.271,6.908-2.796,9.787  c-1.175,2.217-3.954,4.617-6.452,5.107c-4.423,0.869-3.994-3.947-3.646-7.016C171.605,607.552,172.963,605.127,173.581,602.851z" fill="#3B425A"/>
</svg>
