<?xml version="1.0" encoding="UTF-8"?>
<svg xmlns="http://www.w3.org/2000/svg" xmlns:xlink="http://www.w3.org/1999/xlink" enable-background="new 0 183.619 837.471 656.619" height="656.619px" id="FOND" version="1.1" viewBox="0 183.619 837.471 656.619" width="837.471px" x="0px" xml:space="preserve" y="0px">
  <path d="M20.434,772.482c2.243,0.135,4.497,0.17,6.744,0.17c2.19,0,4.367,0.141,6.531,0.201  c1.581,0.045,3.237,0.131,4.812-0.041c1.005-0.107,1.805-0.611,2.784-0.811c1.104-0.226,4.159-0.507,2.909,1.463  c-0.751,1.182-2.126,2.44-3.519,2.537c-1.727,0.118-3.606,0.239-5.354,0.184c-1.339-0.041-2.702-0.057-4.036-0.07  c-2.83-0.026-5.265,1.187-7.548,2.736c-1.374,0.934-3.813,1.512-5.178,0.289c-1.257-1.125-1.494-3.191-3.578-3.437  c-0.867-0.104-1.883,0.386-2.685,0.638c-3.479,1.094-7.659,0.447-11.284,0.455c-0.29-0.48-1.169-0.853-1.019-1.59  c0.133-0.65,1.415-1.478,1.916-1.769c4.604-2.668,9.61-1.94,14.576-1.315C17.811,772.287,19.12,772.4,20.434,772.482z" fill="#5B6C8B"/>
</svg>
