<?xml version="1.0" encoding="UTF-8"?>
<svg xmlns="http://www.w3.org/2000/svg" xmlns:xlink="http://www.w3.org/1999/xlink" enable-background="new 0 183.619 837.471 656.619" height="656.619px" id="FOND" version="1.1" viewBox="0 183.619 837.471 656.619" width="837.471px" x="0px" xml:space="preserve" y="0px">
  <path d="M27.525,681.816c7.138,0.129,7.981,7.879,13.521,10.768c1.335,0.695,2.712,0.916,3.73,1.826  c1.572,1.4,1.162,2.076-0.617,3.074c-3.424,1.918-8.557-0.256-11.276,2.398c-1.891,1.842,0.126,5.104-1.843,6.116  c-3.311,1.701-7.104-1.916-8.807-4.069c-1.178-1.49-1.553-3.394-2.526-4.924c-1.06-1.668-2.855-2.961-4.682-3.673  c-3.428-1.336-7.976-0.663-9.629-4.784c-1.17-2.918-0.357-5.718,1.959-7.771c2.321-2.055,6.613-2.885,9.399-1.715  C20.348,680.572,23.553,681.746,27.525,681.816z" fill="#5B6C8B"/>
</svg>
