<?xml version="1.0" encoding="UTF-8"?>
<svg xmlns="http://www.w3.org/2000/svg" xmlns:xlink="http://www.w3.org/1999/xlink" enable-background="new 0 183.619 837.471 656.619" height="656.619px" id="FOND" version="1.1" viewBox="0 183.619 837.471 656.619" width="837.471px" x="0px" xml:space="preserve" y="0px">
  <path d="M655.687,266.893c1.833,1.738,3.632,3.274,5.129,5.322c1.104,1.514,3.097,2.946,2.952,4.984  c-0.219,3.081-2.438,0.381-3.519-0.866c-1.794-2.075-3.155-3.896-5.599-5.229c-1.744-0.952-2.998-2.302-4.633-3.358  c-1.646-1.064-3.213-1.063-4.501-2.784c-1.106-1.476-1.572-3.261-2.957-4.427c-0.088,1.224,0.354,2.79-1.325,2.646  c-1.607-0.14-2.553-3.274-3.604-4.361c-1.887-1.952-4.78-2.318-4.98-5.403c-0.038-0.582,0.305-2.089-0.475-2.301  c-0.828-0.226-0.981,1.151-1.02,1.726c-1.5,0.746-1.264-0.616-1.621-1.389c-0.816-1.754-1.739-3.187-2.382-5.078  c-0.962-2.837-1.855-4.737-4.854-5.866c-0.994-0.372-2.856-0.064-3.636-0.921c-1.583-1.736,1.886-2.141,2.926-2.247  c2.718-0.277,3.911,0.632,5.039,3.243c0.598,1.386,1.07,3.178,1.893,4.445c0.823,1.268,2.231,1.731,3.37,2.637  c2.746,2.183,4.157,5.611,7.188,7.464c1.587,0.972,3.419,1.559,4.894,2.699c1.343,1.04,2.427,1.767,3.837,2.625  c1.413,0.861,2.191,2.284,3.635,3.061C653.095,264.397,654.321,265.596,655.687,266.893z" fill="#5B6C8B"/>
</svg>
