<?xml version="1.0" encoding="UTF-8"?>
<svg xmlns="http://www.w3.org/2000/svg" xmlns:xlink="http://www.w3.org/1999/xlink" enable-background="new 0 183.619 837.471 656.619" height="656.619px" id="FOND" version="1.1" viewBox="0 183.619 837.471 656.619" width="837.471px" x="0px" xml:space="preserve" y="0px">
  <path d="M276.875,530.308c0.919,2.662-6.341,6.354-8.426,6.096c-0.114-1.49,0.285-2.344,1.214-3.508  c0.758-0.953,1.684-2.012,0.333-3.072c-0.832-0.651-2.483-0.481-3.476-0.447c-1.757,0.062-3.504,0.285-5.262,0.349  c-1.326,0.049-3.031,0.434-4.291,0.354c-2.766-0.17-0.994-3.215,0.524-4.192c1.594-1.025,3.738-1.636,5.636-1.365  c2.787,0.396,5.204,1.9,7.667,3.154c1.188,0.604,2.257,0.983,3.521,1.303C275.201,529.201,276.523,529.291,276.875,530.308z" fill="#5B6C8B"/>
</svg>
