<?xml version="1.0" encoding="UTF-8"?>
<svg xmlns="http://www.w3.org/2000/svg" xmlns:xlink="http://www.w3.org/1999/xlink" enable-background="new 0 183.619 837.471 656.619" height="656.619px" id="FOND" version="1.1" viewBox="0 183.619 837.471 656.619" width="837.471px" x="0px" xml:space="preserve" y="0px">
  <path d="M61.832,799.607c-0.104-0.635-0.2-1.273-0.291-1.914c-0.402-2.84,0.619-6.264,2.237-8.627  c0.932-1.359,1.629-1.951,3.262-1.965c0.782-0.006,1.881-0.187,2.656-0.012c0.694,0.155,1.354,0.758,2.044,0.866  c1.261,0.199,1.945-0.813,2.836-1.549c1.404-1.164,3.133-1.506,4.93-1.774c2.312-0.351,4.841,0.473,6.418,2.387  c0.583,0.707,0.767,1.328,0.552,2.356c-0.16,0.765-0.746,1.914-1.238,2.533c-0.382,0.48-1.066,0.744-1.401,1.261  c-0.565,0.87-0.572,2.237-0.77,3.315c-0.32,1.762-0.943,2.617-2.946,2.984c-1.679,0.307-2,0.312-2.913-0.763  c-1.031-1.213-2.34-2.975-3.881-3.481c-1.577-0.521-3.498-0.193-4.906,0.643c-0.868,0.519-1.583,1.271-1.903,2.244  c-0.469,1.422-0.062,2.088,0.532,3.359c0.381,0.815,0.591,1.848,0.589,2.737c-0.002,0.994,0,0.548-0.452,1.043  c-0.744,0.814-3.077,2.041-4,1.246C61.618,805.148,62.129,801.455,61.832,799.607z" fill="#5B6C8B"/>
</svg>
