<?xml version="1.0" encoding="UTF-8"?>
<svg xmlns="http://www.w3.org/2000/svg" xmlns:xlink="http://www.w3.org/1999/xlink" enable-background="new 0 183.619 837.471 656.619" height="656.619px" id="FOND" version="1.1" viewBox="0 183.619 837.471 656.619" width="837.471px" x="0px" xml:space="preserve" y="0px">
  <path d="M467.697,530.857c0.727,0.113,1.354,0.166,1.999,0.551c0.583,0.347,1.055,0.81,1.724,0.988  c2.169,0.582,4.443,0.236,6.646,0.336c1.252,0.059,2.237,0.91,3.491,0.99c0.539,0.035,3.558-0.324,2.323,0.801  c-0.726,0.66-1.659,0.674-2.597,0.533c-0.345-0.049-1.745-0.496-2.03-0.131c-0.364,0.467,0.763,0.996,1.007,1.141  c0.71,0.42,1.334,0.914,1.993,1.404c0.784,0.586,1.453,1.146,2.031,1.934c0.483,0.658,1.156,0.881,1.841,1.267  c0.563,0.315,1.166,0.614,1.705,0.95c0.281,0.175,0.578,0.435,0.541,0.795c-1.256,0.363-2.789,0.138-4.033-0.149  c-2.358-0.541-4.629-1.381-6.693-2.646c-1.182-0.723-2.311-1.442-3.45-2.229c-1.333-0.918-2.787-1.453-4.206-2.195  c-0.49-0.256-0.775-0.68-1.203-0.953c-0.426-0.271-1.233-0.35-1.729-0.528c-0.621-0.228-1.229-0.543-1.864-0.726  c-0.598-0.174-1.261-0.16-1.876-0.252c-0.952-0.143-1.86-0.42-2.778-0.703c-1.312-0.405-2.36-1.311-3.462-2.102  c-0.616-0.443-1.534-1.277-1.423-2.129c1.2-0.052,2.265,0.963,3.353,1.416c0.838,0.348,1.735,0.514,2.593,0.805  c0.897,0.305,1.866,0.205,2.812,0.283c0.296,0.022,0.606-0.035,0.896,0.053c0.351,0.105,0.586,0.334,0.949,0.4  C466.718,530.847,467.225,530.783,467.697,530.857z" fill="#5B6C8B"/>
</svg>
