<?xml version="1.0" encoding="UTF-8"?>
<svg xmlns="http://www.w3.org/2000/svg" xmlns:xlink="http://www.w3.org/1999/xlink" enable-background="new 0 183.619 837.471 656.619" height="656.619px" id="FOND" version="1.1" viewBox="0 183.619 837.471 656.619" width="837.471px" x="0px" xml:space="preserve" y="0px">
  <path d="M17.359,783.244c0.186,0.105,0.387,0.189,0.609,0.244c3.211,0.816,6.537-2.1,8.627-4.096  c1.892-1.807,4.983-2.965,7.218-0.684c2.597,2.647-1.229,4.223-3.378,4.411c-1.363,0.121-2.688,0.236-3.924,0.88  c-1.427,0.741-2.399,2.038-3.543,3.006c-0.882,0.746-2.241,1.521-3.404,1.647c-1.359,0.148-2.163-0.721-3.439-0.967  c-2.586-0.496-5.641-0.529-5.956-3.896c-0.191-2.037,0.167-4.726,2.732-4.839C15.447,778.842,15.491,782.17,17.359,783.244z" fill="#5B6C8B"/>
</svg>
