<?xml version="1.0" encoding="UTF-8"?>
<svg xmlns="http://www.w3.org/2000/svg" xmlns:xlink="http://www.w3.org/1999/xlink" enable-background="new 0 183.619 837.471 656.619" height="656.619px" id="FOND" version="1.1" viewBox="0 183.619 837.471 656.619" width="837.471px" x="0px" xml:space="preserve" y="0px">
  <path d="M398.256,589.027c1.102,2.438,3.28,3.551,3.325,6.508c0.051,3.373-3.361,5.033-6.159,5.933  c-1.651,0.528-2.445-0.179-3.28-1.584c-2.354-3.959-1.256-7.351-0.716-11.588c0.319-2.521-0.438-5.064,0.426-7.521  c0.738-2.102,1.999-4.836,3.398-6.578c1.355-1.688,1.338,0.472,1.325,1.537c-0.021,1.898-0.459,3.209,1.09,4.512  c1.045,0.877,1.97,0.961,1.872,2.541C399.405,584.969,397.199,586.691,398.256,589.027z" fill="#5B6C8B"/>
</svg>
