<?xml version="1.0" encoding="UTF-8"?>
<svg xmlns="http://www.w3.org/2000/svg" xmlns:xlink="http://www.w3.org/1999/xlink" enable-background="new 0 183.619 837.471 656.619" height="656.619px" id="FOND" version="1.1" viewBox="0 183.619 837.471 656.619" width="837.471px" x="0px" xml:space="preserve" y="0px">
  <path d="M791.147,276.735c0.106-2.564-1.375-4.606-1.137-7.199c2.414-0.711,3.681,6.406,3.931,7.818  c0.712,4.018,3.212,5.967,6.146,8.652c1.334,1.224,4.678,4.898,3.355,7.025c-1.389,2.234-4.494-0.019-5.312-1.492  c-1.305-2.346-0.959-2.225-3.522-2.807c-1.861-0.422-3.932-1.935-3.565-4.152c0.902-0.039,1.896,0.051,2.763-0.075  c0.378-1.359-2.692-3.142-3.782-3.449c-0.957-0.271-1.884-0.01-2.83-0.183c-1.524-0.279-1.516-1.676-2.653-2.19  c-1.91-0.867-0.794,2.401-0.004,3.071c0.941,0.798,3.526,1.057,3.088,2.773c-5.509,2.341-8.387-4.278-10.35-8.194  c-0.957-1.905-2.234-4.869-1.903-6.946c-1.069-0.227-1.891,0.892-2.628,0.173c-1.377-1.344,0.857-1.941,1.302-2.839  c0.561-1.132-0.173-2.676,0.902-3.654c0.593-0.54,1.752-0.762,2.401-0.178c0.864,0.776,0.808,3.966,1.107,5.176  c0.44,1.778,1.219,3.38,2.491,4.718C783.55,275.517,787.471,276.62,791.147,276.735z" fill="#5B6C8B"/>
</svg>
