<?xml version="1.0" encoding="UTF-8"?>
<svg xmlns="http://www.w3.org/2000/svg" xmlns:xlink="http://www.w3.org/1999/xlink" enable-background="new 0 183.619 837.471 656.619" height="656.619px" id="FOND" version="1.1" viewBox="0 183.619 837.471 656.619" width="837.471px" x="0px" xml:space="preserve" y="0px">
  <path d="M119.953,690.051c0.456-3.293,4.575-7.494,7.122-9.142c2.564-1.655,2.875-0.309,4.937,1.021  c1.273,0.822,4.071,1.295,5.593,0.926c1.992-0.486,3.755-2.4,5.341-3.629c1.659-1.285,3.302-3.775,5.677-3.25  c1.089,0.24,2.355,1.084,1.878,2.348c-0.359,0.947-2.442,1.179-3.133,2.228c-1.957,2.979-0.956,6.699-4.984,7.795  c-2.608,0.707-5.113,1.563-7.438,3.006c-2.878,1.783-3.943,3.686-5.944,6.307c-1.454,1.902-2.514,3.701-4.619,4.892  c-1.289,0.729-5.24,3.946-5.388,0.252c-0.058-1.433,0.938-3.088,1.438-4.396c0.414-1.082,0.89-1.975,0.819-3.112  C121.137,693.457,119.688,691.963,119.953,690.051z" fill="#5B6C8B"/>
</svg>
