<?xml version="1.0" encoding="UTF-8"?>
<svg xmlns="http://www.w3.org/2000/svg" xmlns:xlink="http://www.w3.org/1999/xlink" enable-background="new 0 183.619 837.471 656.619" height="656.619px" id="FOND" version="1.1" viewBox="0 183.619 837.471 656.619" width="837.471px" x="0px" xml:space="preserve" y="0px">
  <path d="M773.471,391.628c1.021-0.149,1.975-0.589,2.982-0.809c0.98-0.212,1.958-0.213,2.941-0.394  c1.798-0.329,3.541-0.815,5.38-0.875c1.036-0.033,2.207-0.289,3.213-0.214c0.276,1.662-3.246,3.503-4.683,3.23  c-1.476-0.278-4.711-1.291-5.408,0.81c-0.144,0.438,0.043,0.785-0.217,1.232c-0.256,0.44-0.678,0.648-1.106,0.896  c-1.214,0.698-2.501,1.271-3.9,1.442c-0.548,0.067-1.611,0.338-1.323-0.456c0.294-0.811,1.867-0.887,1.82-2.062  c-2.244-0.107-4.345,0.903-6.562,1.101c-1.43,0.126-2.789-0.303-4.152-0.667c-0.93-0.248-2.215-0.434-2.934-1.105  c1.188-0.854,3.456-0.53,4.885-0.519c0.828,0.008,1.999,0.826,2.74,0.444c-0.514-0.297-1.13-0.611-0.963-1.317  c0.088-0.358,2.622-0.43,2.943-0.462C770.566,391.759,772.056,391.836,773.471,391.628z" fill="#5B6C8B"/>
</svg>
