<?xml version="1.0" encoding="UTF-8"?>
<svg xmlns="http://www.w3.org/2000/svg" xmlns:xlink="http://www.w3.org/1999/xlink" enable-background="new 0 183.619 837.471 656.619" height="656.619px" id="FOND" version="1.1" viewBox="0 183.619 837.471 656.619" width="837.471px" x="0px" xml:space="preserve" y="0px">
  <path d="M808.364,391.396c0.571-0.522,1.283-1.046,2.079-1.115c0.589-0.051,0.828,0.237,1.364,0.367  c1.322,0.317,2.847-0.886,4.113-1.243c1.14-0.32,3.186-1.427,4.312-0.965c-0.396,1.169-3.356,1.556-4.38,1.997  c-1.424,0.614-2.936,1.059-4.363,1.61c-1.438,0.557-2.621,1.771-3.789,2.737c-1.29,1.066-2.617,2.153-4.049,3.021  c-0.78,0.472-2.854,1.562-3.71,0.521c-1.262-1.53,2.124-3.188,2.885-3.922c0.185-0.176,0.593-0.616,0.951-0.506  c0.534,0.162,0.087,0.54,0.294,0.944C804.687,396.048,807.919,391.804,808.364,391.396z" fill="#5B6C8B"/>
</svg>
