<?xml version="1.0" encoding="UTF-8"?>
<svg xmlns="http://www.w3.org/2000/svg" xmlns:xlink="http://www.w3.org/1999/xlink" enable-background="new 0 183.619 837.471 656.619" height="656.619px" id="FOND" version="1.1" viewBox="0 183.619 837.471 656.619" width="837.471px" x="0px" xml:space="preserve" y="0px">
  <path d="M611.902,502.828c-1.06,4.554-4.272,9.466-7.563,12.736c-1.074,1.068-8.499,6.848-7.845,2.119  c0.216-1.551,2.577-3.729,1.953-5.398c-0.376-1.002-0.325-0.506-1.364-0.78c-2.648-0.697-2.688-2.091-2.911-4.644  c-0.212-2.418-0.859-4.256,1.747-5.391c2.613-1.135,5.445-0.695,8.079-2.09c1.471-0.777,2.983-2.609,4.083-3.834  c1.051-1.168,1.479-3.379,3.188-3.988C614.24,490.504,612.158,501.724,611.902,502.828z" fill="#5B6C8B"/>
</svg>
