<?xml version="1.0" encoding="UTF-8"?>
<svg xmlns="http://www.w3.org/2000/svg" xmlns:xlink="http://www.w3.org/1999/xlink" enable-background="new 0 183.619 837.471 656.619" height="656.619px" id="FOND" version="1.1" viewBox="0 183.619 837.471 656.619" width="837.471px" x="0px" xml:space="preserve" y="0px">
  <path d="M641.078,289.509c-0.936-1.242-3.044-3.421-2.838-5.205c0.19-1.636,2.258-0.366,2.667-1.286  c0.482-1.087-1.364-1.431-2.026-1.521c-1.825-0.246-2.18-0.051-3.354-1.824c-0.534-0.809-0.967-1.888-2.143-1.466  c-0.537,1.144,0.462,2.43,0.267,3.713c-1.844,0.322-3.919-2.5-5.355-3.396c-2.948-1.843-6.054-3.584-9.267-5.229  c-1.652-0.846-3.466-1.403-5.083-2.271c-0.676-0.362-1.146-1.058-1.877-1.342c-0.748-0.292-1.886-0.219-2.696-0.403  c-4.65-1.063-9.148-1.23-13.904-1.23c-1.955,0-4.189,0.305-6.1-0.145c-3.12-0.732-3.728-4.667-3.841-7.407  c-0.194-4.711,1.351-7.352,5.521-9.667c3.03-1.683,7.098-2.725,10.561-1.864c5.122,1.272,6.369,9.233,0.408,9.945  c-1.941,0.231-5.245,0.132-4.62-2.675c0.752-0.097,1.793,1.008,2.513,0.347c1.104-1.015-0.643-1.96-1.396-2.142  c-2.79-0.668-3.482,3.045-2.547,4.967c1.1,2.259,5.184,3.192,7.566,2.454c1.593-0.493,3.021-1.52,4.745-1.83  c2.886-0.521,0.872,1.109,1.146,2.938c0.976,0.212,2.226,0.604,3.226,0.354c0.896-0.222,1.547-0.974,2.437-1.281  c2.472-0.856,4.693-0.273,6.74,0.796c1.495,0.783,3.379,1.651,5.027,2.219c1.211,0.417,3.539,0.292,3.807,1.854  c-1.067,0.4-2.735-0.279-3.616,0.498c-1.202,1.061-0.076,1.704,0.426,2.549c1.585,2.667,2.927,3.947,6.001,4.41  c2.025,0.306,2.244,0.276,3.076,2.359c0.635,1.589,0.717,2.919,2.302,3.313c1.352,0.336,1.899-0.518,3.029-0.797  c0.884-0.219,2.223-0.015,3.133,0.031c-0.052,0.806-1.642,1.43-1.092,2.426c0.458,0.832,2.419,0.282,2.008,1.942  c-4.516,0.595,0.211,2.961,0.188,4.423c-1.908,0.696-1.413,1.604,0.135,2.701c2.798,1.983,4.34,5.743,5.069,9.17  c0.336,1.578,0.508,4.833-1.19,2.508c-0.911-1.246-1.022-2.813-1.758-4.079C646.498,295.135,643.327,292.5,641.078,289.509z" fill="#5B6C8B"/>
</svg>
