<?xml version="1.0" encoding="UTF-8"?>
<svg xmlns="http://www.w3.org/2000/svg" xmlns:xlink="http://www.w3.org/1999/xlink" enable-background="new 0 183.619 837.471 656.619" height="656.619px" id="FOND" version="1.1" viewBox="0 183.619 837.471 656.619" width="837.471px" x="0px" xml:space="preserve" y="0px">
  <path d="M582.303,452.98c1.563-2.223,4.689-7.162,8.006-6.385c0.096,0.947,0.487,1.817,0.53,2.756  c0.059,1.301-1.031,3.002-0.843,4.146c0.231,1.398,2.097,1.812,1.99,3.707c-0.104,1.908-1.951,2.459-3.632,2.707  c-2.639,0.39-4.175,1.627-6.077,3.564c-1.002,1.021-2.539,3.934-4.443,3.318c-1.377-0.443-1.041-2.3-1.856-3.253  c-0.849-0.991-2.764-0.868-3.543-2.094c-1.544-2.422,3.267-1.971,4.516-2.473C579.547,457.933,580.783,455.138,582.303,452.98z" fill="#3B425A"/>
</svg>
