<?xml version="1.0" encoding="UTF-8"?>
<svg xmlns="http://www.w3.org/2000/svg" xmlns:xlink="http://www.w3.org/1999/xlink" enable-background="new 0 183.619 837.471 656.619" height="656.619px" id="FOND" version="1.1" viewBox="0 183.619 837.471 656.619" width="837.471px" x="0px" xml:space="preserve" y="0px">
  <path d="M441.663,592.947c-2.047,1.07-3.702,2.236-5.19,4.039c-1.341,1.623-2.851,3.045-4.15,4.697  c-1.234,1.572-2.73,2.863-4.603,3.654c-2.614,1.104-5.432,1.688-8.05,2.78c-1.124,0.472-1.219,0.638-0.159,1.072  c2.065,0.851,4.401-0.113,6.369-0.024c-2.428,4.206-6.282,5.78-11.026,4.924c-3.156-0.572-7.571-1.152-10.021-3.291  c-2.151-1.879-3.468-5.832-2.422-8.611c3.991,0.008,7.819,3.568,11.236-0.223c-1.639-3.756-7.083-3.322-9.036-6.525  c-0.995-1.631-1.847-3.977-2.339-5.828c-0.344-1.295-0.786-3.84-0.083-5.082c0.926-1.637,5.201-1.707,6.38-0.539  c0.855,0.849,1.171,1.996,2.344,2.549c1.119,0.529,2.719,0.478,3.848,0.048c1.256-0.48,2.248-1.498,3.531-1.938  c1.161-0.396,2.521-0.439,3.735-0.365c1.688,0.103,3.812,0.886,2.056,2.494c-1.471,1.351-2.864,1.849-3.039,4.055  c-0.132,1.66,0.278,3.289-1.424,4.285c-1.337,0.785-1.296,0.14-1.735-0.899c-0.324-0.767-0.626-1.15-1.089-0.47  c-0.711,1.041,0.214,2.916,1.113,3.435c1.781,1.024,3.398,0.291,4.302-1.48c0.782-1.534,1.472-2.934,2.523-4.358  c1.104-1.498,3.09-3.738,4.763-4.502c0.163,1.073-2.088,4.946-0.421,5.524c1.089,0.377,2.367-2.032,2.896-2.678  c0.97-1.188,2.521-2.291,3.769-3.158c3.108-2.151,6.841-3.207,9.942-5.381c1.059-0.744,1.758-1.934,2.782-2.641  c0.37-0.256,0.6-0.492,1.079-0.367c0.128,1.219-0.778,1.766-1.071,2.838c-0.32,1.17-0.161,1.389,0.912,1.449  c0.499,0.026,1.396-0.154,1.562,0.481c0.26,0.99-2.411,2.06-2.774,2.688c-1.059,1.828,2.722,1.914,3.261,3.024  c0.479,0.99-0.116,1.31-0.916,1.576c-0.762,0.254-1.229,0.099-1.952,0.095C446.353,590.285,443.567,591.951,441.663,592.947z" fill="#5B6C8B"/>
</svg>
