<?xml version="1.0" encoding="UTF-8"?>
<svg xmlns="http://www.w3.org/2000/svg" xmlns:xlink="http://www.w3.org/1999/xlink" enable-background="new 0 183.619 837.471 656.619" height="656.619px" id="FOND" version="1.1" viewBox="0 183.619 837.471 656.619" width="837.471px" x="0px" xml:space="preserve" y="0px">
  <path d="M145.604,612.01c0.702,1.86,1.789,3.573,1.193,5.545c-0.571,1.895-1.923,3.483-2.225,5.461  c-0.234,1.555-0.263,4.119,0.472,5.543c0.596,1.158,1.906,1.82,1.846,3.293c-0.062,1.566-2.386,4.678-3.415,5.844  c-1.505,1.707-3.46,2.854-4.916,4.689c-0.865,1.09-1.813,2.252-0.934,3.344c0.298,0.367,1.879,1.262,2.437,1.25  c1.214-0.025,1.506-1.068,2.024-2.16c0.47-0.988,0.748-2.545,1.583-3.334c0.721-0.68,2.33-0.781,3.244-0.606  c1.722,0.327,1.482,1.088,1.222,2.524c-0.623,3.437-1.955,5.738-4.714,7.972c-3.331,2.696-6.749,4.075-11.146,3.733  c-1.911-0.149-3.664-1.039-5.651-1.063c-1.742-0.025-2.636,0.782-4.242,1.471c-2.127,0.908-7.109,2.371-9.539,1.563  c-1.636-0.545-3.444-3.606-4.183-5.041c-0.327-0.635-0.804-1.536-0.646-2.305c0.47-2.309,4.492-2.438,6.068-3.697  c1.628-1.303,1.876-2.455,1.672-4.409c-0.22-2.107-0.742-5.156,0.109-7.211c0.817-1.97,4.006-2.959,5.71-4.128  c1.616-1.104,5.123-3.215,5.41-5.303c0.127-0.926-0.456-1.203-0.879-1.83c-1.734-2.573-3.183-5.93-1.527-9.022  c1.602-2.994,2.982-0.459,5.049,0.393c1.496,0.615,4.493,1.48,5.923,0.293c1.265-1.051,0.68-3.084,0.35-4.428  c-0.42-1.715-0.832-3.303,1.065-4.24c2.08-1.026,4.348,0.095,6.022,1.355C144.549,608.679,144.922,610.207,145.604,612.01z" fill="#5B6C8B"/>
</svg>
