<?xml version="1.0" encoding="UTF-8"?>
<svg xmlns="http://www.w3.org/2000/svg" xmlns:xlink="http://www.w3.org/1999/xlink" enable-background="new 0 183.619 837.471 656.619" height="656.619px" id="FOND" version="1.1" viewBox="0 183.619 837.471 656.619" width="837.471px" x="0px" xml:space="preserve" y="0px">
  <path d="M53.188,663.517c-0.005-1.098-0.032-2.172-0.572-3.135c-0.311-0.554-1.034-1.14-1.203-1.758  c-0.473-1.724,1.52-2.298,2.739-1.738c0.828,0.379,1.497,1.274,2.318,1.613c0.846,0.35,2.154,0.182,3.065,0.047  c2.114-0.316,2.344-2.406,3.889-3.486c1.859-1.299,3.946,0.514,3.627,2.498c-0.447,2.775-4.357,3.012-5.495,5.334  c-0.799,1.631,0.096,4.328-1.688,5.438c-0.631,0.396-1.599,0.175-2.282,0.357c-0.71,0.191-1.52,0.719-2.018,1.227  c-0.899,0.923-1.387,2.468-2.922,2.023c-1.474-0.428-2.724-2.061-1.87-3.521C51.803,666.672,53.199,665.783,53.188,663.517z" fill="#5B6C8B"/>
</svg>
