<?xml version="1.0" encoding="UTF-8"?>
<svg xmlns="http://www.w3.org/2000/svg" xmlns:xlink="http://www.w3.org/1999/xlink" enable-background="new 0 183.619 837.471 656.619" height="656.619px" id="FOND" version="1.1" viewBox="0 183.619 837.471 656.619" width="837.471px" x="0px" xml:space="preserve" y="0px">
  <path d="M480.049,545.564c-0.203,1.809-3.658,2.836-5.148,3.107c-1.266,0.229-2.986-0.234-4.123,0.371  c-1.709,0.911-1.864,3.381-3.659,4.418c-1.853,1.069-5.946,1.27-7.968,0.651c-1.805-0.553-3.316-2.059-4.933-2.979  c-0.543,0.891-0.732,2.905-0.31,3.916c0.598,1.428,2.311,1.678,2.833,3.219c0.571,1.682,0.263,2.402-1.331,2.668  c-2.401,0.398-4.408-0.281-5.594-2.564c-0.926-1.786-0.508-3.895-0.754-5.838c-0.277-2.188-1.693-1.848-2.956-0.041  c-1.332,1.908-2.799,5.119-2.503,7.55c0.223,1.827,1.999,1.764,2.679,3.416c0.643,1.557-0.056,3.307,0.729,4.959  c0.454,0.954,2.597,3.389,3.686,1.932c0.828-1.109-1.418-3.295,1.312-2.812c1.365,0.242,1.889,1.486,2.079,2.82  c0.457,3.195-3.12,5.043-5.632,6.328c-3.557,1.816-7.873,3.619-11.632,1.303c-2.844-1.754-5.307-4.541-6.825-7.481  c-1.675-3.236-3.572-7.382-3.9-11.056c-0.332-3.729,0.066-9.596,4.804-10.207c1.512-0.194,2.715,0.406,3.899-0.77  c1.407-1.396,1.1-4.359,1.424-6.168c0.781-4.346,2.754-9.148,7.595-10.188c3.478-0.746,3.86,3.097,6.709,3.81  c1.696,0.426,4.028,0.067,5.709-0.238c0.764-0.141,3.219-1.018,3.974-0.424c1.854,1.461-2.478,2.477-2.453,3.809  c0.026,1.302,4.785,1.47,5.631,1.597c1.919,0.289,3.932,0.426,5.797,0.987c1.508,0.455,2.092,1.396,3.348,2.142  C474.065,544.707,480.358,542.812,480.049,545.564z" fill="#3B425A"/>
</svg>
