<?xml version="1.0" encoding="UTF-8"?>
<svg xmlns="http://www.w3.org/2000/svg" xmlns:xlink="http://www.w3.org/1999/xlink" enable-background="new 0 183.619 837.471 656.619" height="656.619px" id="FOND" version="1.1" viewBox="0 183.619 837.471 656.619" width="837.471px" x="0px" xml:space="preserve" y="0px">
  <path d="M564.199,442.974c1.42,2.238,2.662,4.217,5.156,5.348c2.196,0.998,4.595,1.56,7.002,1.592  c0.581,0.011,1.141-0.155,1.569,0.275c0.889,0.896-0.44,2.814-0.889,3.525c-1.23,1.959-3.143,3.668-5.563,3.676  c-1.373,0.004-3.391-1.74-4.67-1.189c-0.8,0.347-0.812,1.554-0.756,2.386c0.104,1.569,0.965,2.403,2.247,3.241  c2.473,1.619,4.823,3.115,5.245,6.328c0.285,2.174-1.614,2.355-3.371,1.941c-1.459-0.344-2.904-0.916-4.087,0.447  c-0.496,0.571-0.621,1.385-0.914,2.051c-0.404,0.92-1.018,1.662-1.746,2.365c-1.161,1.118-2.931,2.312-4.652,1.993  c-1.801-0.332-1.454-2.754-1.106-4.17c0.565-2.307,2.419-4.104,2.712-6.438c0.199-1.597-0.182-2.726-0.502-4.252  c-0.243-1.16-0.217-2.359-0.216-3.535c0.001-0.992-0.267-2.455-0.001-3.404c0.459-1.641,2.613-0.43,3.548-1.727  c1.662-2.306-2.727-2.103-3.595-2.658c-1.768-1.131-2.875-3.793-3.205-5.785c-0.25-1.506,0.121-2.393,0.718-3.629  c0.579-1.203,1.526-1.938,2.837-2.18C562.554,438.699,563.094,441.228,564.199,442.974z" fill="#5B6C8B"/>
</svg>
