<?xml version="1.0" encoding="UTF-8"?>
<svg xmlns="http://www.w3.org/2000/svg" xmlns:xlink="http://www.w3.org/1999/xlink" enable-background="new 0 183.619 837.471 656.619" height="656.619px" id="FOND" version="1.1" viewBox="0 183.619 837.471 656.619" width="837.471px" x="0px" xml:space="preserve" y="0px">
  <path d="M188.64,695.722c2.334-2.404,3.89-4.729,4.728-8.017c0.279-1.102,1.107-2.584,0.643-3.704  c-0.357-0.859-1.493-1.438-2.027-2.207c-3.215-4.627,4.46-10.849,7.902-12.535c3.027-1.482,5.673-3.41,7.059-6.652  c0.614-1.438,0.435-2.895,1.292-4.254c0.842-1.332,2.261-2.977,4.057-2.637c1.583,0.297,2.93,2.586,2.755,4.203  c-0.367,3.389-3.937,5.809-5.916,8.229c-2.406,2.941-2.817,6.521-2.127,10.316c0.408,2.243,0.115,3.498-0.652,5.727  c-0.354,1.033-0.636,2.047-0.746,3.123c-0.179,1.75-0.457,7.021,1.423,8.041c1.179,0.641,2.729-1.104,2.729-2.465  c0.001-1.34-1.171-2.521-1.319-3.826c-0.387-3.404,5.911-7.713,8.399-4.154c1.184,1.693,0.64,5.088-0.346,6.808  c-1.562,2.721-3.134,5.698-3.376,8.787c-0.181,2.289,0.073,4.672,0.164,6.961c0.057,1.438,0.979,3.811,0.444,5.162  c-1.238,3.129-3.775,1.26-5.097-0.693c-1.81-2.678-1.039-5.188-2.104-8.055c-0.505-1.357-1.209-1.861-2.465-2.855  c-1.447-1.148-2.287-1.869-3.536-0.686c-1.745,1.651-2.854,4.312-3.168,6.657c-0.28,2.105,0.308,5.935-1.188,7.49  c-0.802,0.834-2.177,0.816-3.155,1.271c-2.093,0.975-4.146,2.647-5.503,4.528c-2.114,2.937,2.469,6.8,3.271,9.679  c0.558,2,1.007,3.791,2.112,5.59c1.069,1.737,2.411,3.338,3.128,5.272c0.477,1.283,1.473,3.734,0.906,5.019  c-0.746,1.694-3.845,2.844-5.587,2.664c-2.391-0.25-4.721-1.89-6.562-3.297c-2.57-1.966-4.37-5.505-5.392-8.505  c-0.771-2.27-0.909-4.088,0.689-5.797c1.574-1.686,1.766-1.899,1.563-4.133c-0.146-1.627-0.562-2.99-0.791-4.563  c-0.268-1.843,0.965-2.541,2.2-4.011c1.118-1.332,1.746-2.184,1.622-3.912c-0.138-1.913-0.591-3.598-0.183-5.512  c0.345-1.608,0.614-2.91,0.559-4.562C184.929,700.845,186.278,698.156,188.64,695.722z" fill="#5B6C8B"/>
</svg>
