<?xml version="1.0" encoding="UTF-8"?>
<svg xmlns="http://www.w3.org/2000/svg" xmlns:xlink="http://www.w3.org/1999/xlink" enable-background="new 0 183.619 837.471 656.619" height="656.619px" id="FOND" version="1.1" viewBox="0 183.619 837.471 656.619" width="837.471px" x="0px" xml:space="preserve" y="0px">
  <path d="M261.437,819.566c0.268-2.516-1.195-2.24-3.199-2.895c-4.444-1.455-10.509-5.625-7.893-11.025  c1.188-2.447,2.782-2.9,1.663-5.379c-0.578-1.277-5.363-7.443-7.884-4.586c-1.256,1.426-0.461,6.006-1.146,8.059  c-1.135,3.404-4.211,5.297-3.431,9.156c0.449,2.221,2.1,3.502,3.504,5.219c3.299,4.029,5.377,8.9,8.496,13.041  c1.392,1.849,2.771,5.928,5.472,6.08c2.885,0.164,5.566-2.19,7.114-4.406c1.54-2.205,0.385-4.373-0.856-6.381  c-0.659-1.067-1.446-2.096-1.896-3.278C260.799,821.642,261.279,821.049,261.437,819.566z" fill="#5B6C8B"/>
</svg>
