<?xml version="1.0" encoding="UTF-8"?>
<svg xmlns="http://www.w3.org/2000/svg" xmlns:xlink="http://www.w3.org/1999/xlink" enable-background="new 0 183.619 837.471 656.619" height="656.619px" id="FOND" version="1.1" viewBox="0 183.619 837.471 656.619" width="837.471px" x="0px" xml:space="preserve" y="0px">
  <path d="M664.967,281.706c3.772-2.315,2.104,4.082,4.698,3.898c0.89-0.063,1.19-2.151,2.621-1.049  c1.146,0.883,0.567,3.364,1.354,4.314c0.793,0.957,2.296,0.772,3.102,1.442c1.01,0.841,0.939,1.878,1.321,2.949  c0.479,1.344,1.163,2.352,1.331,3.834c0.109,0.972-0.658,3.8,1.003,3.522c1.137-3.632,2.381-0.237,3.259,1.664  c1.588,3.439,2.622,9.243,0.047,12.479c-0.688,0.864-1.635,1.378-2.312,2.205c-0.577,0.706-0.817,1.591-1.996,1.81  c-2.228,0.413-3.298-2.91-3.227-4.703c1.528-0.062,2.498,0.369,2.968-1.31c0.504-1.805,0.091-4.164,0.262-5.977  c0.18-1.922-0.817-3.852-1.325-5.684c-0.294-1.061-0.756-2.178-1.307-3.104c-0.921-1.548-4.415-6.797-6.349-6.634  c0.16,1.213,0.234,2.078-1.494,1.6C665.666,292.063,660.984,284.151,664.967,281.706z" fill="#5B6C8B"/>
</svg>
