<?xml version="1.0" encoding="UTF-8"?>
<svg xmlns="http://www.w3.org/2000/svg" xmlns:xlink="http://www.w3.org/1999/xlink" enable-background="new 0 183.619 837.471 656.619" height="656.619px" id="FOND" version="1.1" viewBox="0 183.619 837.471 656.619" width="837.471px" x="0px" xml:space="preserve" y="0px">
  <path d="M246.02,784.31c-1.796-2.861-4.56-4.295-4.775-7.748c-0.111-1.773-0.929-4.375,0.43-5.822  c2.58-2.754,4.021-0.442,4.29,2.269c0.335,3.358,1.023,7.211,2.665,10.256c0.912,1.69,2.828,2.903,3.332,4.817  c0.661,2.517-0.535,4.164,1.027,6.449c0.589,0.859,1.308,1.363,1.134,2.474c-0.128,0.817-2.44-0.9-2.638-1.136  c-0.836-1.004-1.046-2.432-1.705-3.541C248.265,789.783,247.594,786.822,246.02,784.31z" fill="#5B6C8B"/>
</svg>
