<?xml version="1.0" encoding="UTF-8"?>
<svg xmlns="http://www.w3.org/2000/svg" xmlns:xlink="http://www.w3.org/1999/xlink" enable-background="new 0 183.619 837.471 656.619" height="656.619px" id="FOND" version="1.1" viewBox="0 183.619 837.471 656.619" width="837.471px" x="0px" xml:space="preserve" y="0px">
  <path d="M755.998,404.416c0.369,0.407,1.49,1.438,1.267,2.042c-0.441,1.188-3.42,0.58-4.142-0.02  c-0.939-0.783-1.109-3.646-2.653-3.039c-1.986,0.782,0.222,3.089-0.279,4.248c-0.367,0.851-1.757,0.758-2.565,0.873  c-1.646,0.234-3.257,0.826-4.914,0.973c-2.475,0.218-6.874,0.056-7.776-2.941c1.354-0.555,7.159,0.985,7.461-1.068  c0.078-0.534-0.38-0.713-0.672-1.084c-0.605-0.772-0.823-1.239-0.889-2.246c-0.102-1.55,0.927-2.237,2.39-1.485  c0.784,0.402,1.703,2.264,2.824,1.976c0.648-0.167,1.438-1.571,2.014-2.006c1.504-1.133,3.315-2.126,5.158-2.558  c0.479-0.112,1.78-0.61,2.214-0.332c0.806,0.521-0.104,2.194-0.233,2.934C754.968,402.008,755.05,403.369,755.998,404.416z" fill="#3B425A"/>
</svg>
