<?xml version="1.0" encoding="UTF-8"?>
<svg xmlns="http://www.w3.org/2000/svg" xmlns:xlink="http://www.w3.org/1999/xlink" enable-background="new 0 183.619 837.471 656.619" height="656.619px" id="FOND" version="1.1" viewBox="0 183.619 837.471 656.619" width="837.471px" x="0px" xml:space="preserve" y="0px">
  <path d="M225.618,682.64c0.399,2.541,1.65,4.236,2.85,6.334c1.055,1.844,1.526,4.014,2.34,5.994  c0.675,1.645,1.195,3.646,1.953,5.188c0.692,1.406,1.936,1.65,3.254,2.656c3.51,2.674,5.146,8.033,2.212,11.736  c-3.929,4.961-2.765-2.568-3.303-4.506c-0.439-1.582-1.947-2.318-3.125-3.474c-2.453-2.401-3.909-4.764-5.198-7.846  c-1.546-3.701-3.629-6.799-4.629-10.762c-1.188-4.707-1.117-9.773-0.979-14.605c0.107-3.793,1.784-7.254,1.822-11.082  c0.02-1.938-0.952-6.324,1.006-7.471c4.512-2.641,3.118,8.945,2.944,10.164C225.932,670.81,224.689,676.734,225.618,682.64z" fill="#5B6C8B"/>
</svg>
