<?xml version="1.0" encoding="UTF-8"?>
<svg xmlns="http://www.w3.org/2000/svg" xmlns:xlink="http://www.w3.org/1999/xlink" enable-background="new 0 183.619 837.471 656.619" height="656.619px" id="FOND" version="1.1" viewBox="0 183.619 837.471 656.619" width="837.471px" x="0px" xml:space="preserve" y="0px">
  <path d="M660.032,376.271c-0.313-1.154-0.172-2.289,0.045-3.443c0.125-0.67,0.733-2.325,0.345-2.976  c-0.989-1.657-1.985,4.34-2.779,4.234c-0.643-0.084-0.62-2.873-0.594-3.491c0.058-1.3,1.354-4.609,0.355-5.739  c-1.632-1.846-2.104,3.654-3.367,3.769c-1.311-2.419-0.612-5.586-0.805-8.24c-0.172-2.378,0.343-3.897,1.591-5.913  c1.253-2.022,2.289-4.411,4.229-5.906c0.507-0.392,1.889-1.14,2.581-0.756c1.169,0.646-0.396,3.651-0.66,4.472  c-0.785,2.428-1.033,5.559-0.229,8.019c0.222,0.678,0.798,1.184,0.967,1.892c0.146,0.616,0.091,1.359,0.066,1.992  c-0.017,0.421-0.32,2.708,0.75,2.297c0.74-0.285,0.25-1.926,1.017-2.216c0.741-0.281,0.646,0.711,0.665,1.244  c0.104,2.713-0.889,5.304-0.063,8.053c0.399,1.335,1.26,2.344,1.896,3.531c0.341,0.638,0.571,1.434,0.328,2.047  c-0.12,0.304-0.479,0.621-0.613,0.993c-0.135,0.368-0.232,0.772-0.277,1.16c-0.062,0.556,0.171,1.396-0.388,1.645  c-0.796,0.352-1.261-0.821-1.542-1.333C662.521,379.745,660.616,378.413,660.032,376.271z" fill="#5B6C8B"/>
</svg>
