<?xml version="1.0" encoding="UTF-8"?>
<svg xmlns="http://www.w3.org/2000/svg" xmlns:xlink="http://www.w3.org/1999/xlink" enable-background="new 0 183.619 837.471 656.619" height="656.619px" id="FOND" version="1.1" viewBox="0 183.619 837.471 656.619" width="837.471px" x="0px" xml:space="preserve" y="0px">
  <path d="M767.569,406.565c1.653-0.432,3.438-0.345,5.143-0.436c-0.642,0.227-1.209,0.691-1.812,1.01  c-0.856,0.452-1.799,0.706-2.696,1.066c-1.382,0.556-2.861,0.862-4.332,1.089c-1.325,0.202-2.875,0.555-4.094,1.118  c-1.406,0.651-2.524,1.331-4.059,1.702c-1.104,0.268-2.22,0.432-3.312,0.731c-1.603,0.439-3.273,1.04-4.938,1.169  c-1.161,0.09-2.271,0.309-3.451,0.31c-1.069,0.001-2.152-0.353-3.199-0.192c-0.15,0.594,0.675,0.75,0.443,1.355  c-0.259,0.679-2.898,0.63-3.529,0.664c-1.442,0.077-3.787,0.547-5.034-0.438c-1.595-1.262,0.851-1.607,1.771-1.699  c0.559-0.057,1.155,0.024,1.707-0.052c0.91-0.129,0.909-0.367,1.373-1.047c0.931-1.355,2.69-1.539,4.208-1.618  c2.108-0.111,4.244-0.441,6.353-0.438c0.738,0.001,3.526,0.446,3.61-0.668c-0.534-0.197-1.392-0.557-0.828-1.137  c0.475-0.489,1.386,0.062,1.923,0.166c1.579,0.301,3.232,0.134,4.776-0.278c1.573-0.421,3.148-0.676,4.747-0.877  C764.101,407.845,765.848,407.014,767.569,406.565z" fill="#5B6C8B"/>
</svg>
