<?xml version="1.0" encoding="UTF-8"?>
<svg xmlns="http://www.w3.org/2000/svg" xmlns:xlink="http://www.w3.org/1999/xlink" enable-background="new 0 183.619 837.471 656.619" height="656.619px" id="FOND" version="1.1" viewBox="0 183.619 837.471 656.619" width="837.471px" x="0px" xml:space="preserve" y="0px">
  <path d="M37.795,675.595c0.831,0.028,1.728,0.19,2.192,0.328c1.642,0.481,2.71,2.032,2.901,3.686  c0.183,1.582-1.058,3.072-0.812,4.555c0.326,1.986,7.133,3.691,6.503,5.627c-0.556,1.699-4.431,0.322-5.477-0.016  c-1.902-0.617-3.7-1.967-4.99-3.486c-1.114-1.312-1.256-2.897-1.766-4.522c-0.448-1.426-1.779-4.801-0.163-5.904  C36.517,675.635,37.136,675.574,37.795,675.595z" fill="#5B6C8B"/>
</svg>
