<?xml version="1.0" encoding="UTF-8"?>
<svg xmlns="http://www.w3.org/2000/svg" xmlns:xlink="http://www.w3.org/1999/xlink" enable-background="new 0 183.619 837.471 656.619" height="656.619px" id="FOND" version="1.1" viewBox="0 183.619 837.471 656.619" width="837.471px" x="0px" xml:space="preserve" y="0px">
  <path d="M540.301,376.696c-0.363-0.632-0.844-1.197-1.168-1.895c-0.333-0.715-1.646-3.879-1.012-4.705  c0.81-1.054,2.269,2.687,2.641,3.409c0.576,1.119,0.965,1.569,2.107,1.348c0.851-0.166,1.731-1.153,2.615-0.896  c0.777,3.011-0.909,5.035-1.975,7.779c-0.864,2.226-0.262,3.304,0.055,5.531c0.106,0.745,0.468,4.244-1.104,3.462  c-0.688-0.342-0.878-2.569-0.985-3.258c-0.327-2.101-0.38-4.229-0.393-6.35c-0.007-0.983-0.166-2.21-0.312-3.154  C540.698,377.489,540.521,377.08,540.301,376.696z" fill="#5B6C8B"/>
</svg>
