<?xml version="1.0" encoding="UTF-8"?>
<svg xmlns="http://www.w3.org/2000/svg" xmlns:xlink="http://www.w3.org/1999/xlink" enable-background="new 0 183.619 837.471 656.619" height="656.619px" id="FOND" version="1.1" viewBox="0 183.619 837.471 656.619" width="837.471px" x="0px" xml:space="preserve" y="0px">
  <path d="M169.603,672.539c3.895-4.457,3.599-10.452,3.569-15.991c-0.022-4.312-1.503-9.685,0.132-13.791  c0.737-1.854,6.393-7.408,7.059-3.185c0.521,3.305-2.279,5.639-1.281,9.15c0.781,2.754,2.82,5.08,2.515,8.096  c-0.247,2.42-2.544,4.389-3.39,6.609c-0.396,1.037-0.647,2.102,0.056,3.063c1.381,1.888,2.611,0.353,4.091-0.315  c2.242-1.01,4.213,1.412,5.401,3.069c1.419,1.98,1.27,5.093,0.358,7.265c-0.747,1.783-2.503,3.065-3.763,4.477  c-1.188,1.328-2.086,2.945-3.337,4.187c-1.292,1.28-3.012,2.116-4.141,3.575c-1.497,1.937-1.124,4.543-2.403,6.562  c-1.102,1.74-2.274,3.281-4.396,2.617c-2.386-0.748-4.226-2.58-6.321-3.812c-2.544-1.494-5.159-2.358-6.536-5.229  c-1.053-2.191-0.789-4.318,0.805-5.98c1.813-1.889,3.048-4.668,5.434-5.805C165.828,675.972,167.837,674.56,169.603,672.539z" fill="#3B425A"/>
</svg>
