<?xml version="1.0" encoding="UTF-8"?>
<svg xmlns="http://www.w3.org/2000/svg" xmlns:xlink="http://www.w3.org/1999/xlink" enable-background="new 0 183.619 837.471 656.619" height="656.619px" id="FOND" version="1.1" viewBox="0 183.619 837.471 656.619" width="837.471px" x="0px" xml:space="preserve" y="0px">
  <path d="M301.97,568.99c4.123,1.881,9.075,2.088,13.535,1.535c3.025-0.375,5.788-2.482,8.943-1.77  c0.827,0.188,1.541,0.922,2.352,1.139c0.896,0.238,1.907,0.139,2.827,0.147c1.562,0.017,3.035-0.25,4.548-0.297  c1.869-0.061,4.361,1.177,2.507,3.25c-1.453,1.623-4.234,0.33-6.034,1.513c-1.111,0.729-1.578,1.678-2.896,2.051  c-1.486,0.42-3.22,0.293-4.751,0.57c-2.633,0.475-5.18,1.745-7.842,2.008c-2.072,0.203-4.109-1.035-5.985-1.82  c-1.749-0.732-3.229-1.258-5.214-1.375c-1.859-0.109-3.387-0.135-4.459-1.877c-1.791-2.91-2.03-5.045-5.755-5.42  c-4.55-0.461-9.058-1.068-13.585-1.697c-1.324-0.186-1.738,0.104-1.854-1.18c-0.092-1.025,0.106-1.031,0.946-1.475  c1.642-0.867,3.567,0.321,5.248-0.355c1.015-0.41,1.552-1.414,2.596-1.836C292.974,559.728,297.438,566.92,301.97,568.99z" fill="#5B6C8B"/>
</svg>
