<?xml version="1.0" encoding="UTF-8"?>
<svg xmlns="http://www.w3.org/2000/svg" xmlns:xlink="http://www.w3.org/1999/xlink" enable-background="new 0 183.619 837.471 656.619" height="656.619px" id="FOND" version="1.1" viewBox="0 183.619 837.471 656.619" width="837.471px" x="0px" xml:space="preserve" y="0px">
  <path d="M96.816,723.467c0.706-2.668-0.589-3.129-2.054-4.974c-0.93-1.176-2.023-2.891-1.713-4.473  c0.326-1.656,2.09-2.771,2.576-4.484c0.312-1.1,0.129-2.022-0.277-3.262c-1.394-4.258-1.504-7.377,1.806-11.119  c1.084-1.227,6.318-6.332,7.303-3.188c0.941,3.014-3.887,5.938-5.019,8.118c-1.005,1.937,0.88,3.851,0.449,6.099  c-0.302,1.572-0.84,2.783-0.746,4.502c0.117,2.152,1.296,4.188,1.744,6.332c0.457,2.176,1.163,4.594,0.521,6.771  c-0.389,1.32-1.972,3.179-3.418,3.386C95.442,727.537,96.439,724.886,96.816,723.467z" fill="#5B6C8B"/>
</svg>
