<?xml version="1.0" encoding="utf-8"?>
<!-- Generator: Adobe Illustrator 16.0.0, SVG Export Plug-In . SVG Version: 6.00 Build 0)  -->
<!DOCTYPE svg PUBLIC "-//W3C//DTD SVG 1.1//EN" "http://www.w3.org/Graphics/SVG/1.1/DTD/svg11.dtd">
<svg version="1.1" id="Layer_1" xmlns="http://www.w3.org/2000/svg" xmlns:xlink="http://www.w3.org/1999/xlink" x="0px" y="0px"
	 width="401.582px" height="295.167px" viewBox="0 0 401.582 295.167" enable-background="new 0 0 401.582 295.167"
	 xml:space="preserve">
<path id="machoire" fill="#FFFFFF" d="M239.445,130.68c0,0-9.12,1.141-11.173,6.391c-2.052,5.249-2.279,28.759-13.909,30.813
	c-11.628,2.055-23.943,3.195-31.239,0c-7.296-3.196-13.909-9.586-13.683-15.064c0.229-5.478-0.456-15.293-3.647-18.489
	c-3.188-3.194-8.894-5.477-8.894-5.477s-0.913,4.335-0.457,6.848c0.456,2.511,1.143,24.651,4.562,29.215
	c3.42,4.562,8.665,14.836,14.143,17.348c5.473,2.512,14.814,4.336,21.207,4.336c6.386,0,22.802,0.684,30.099-9.814
	c7.298-10.5,11.63-23.738,10.946-30.583c-0.688-6.848,2.273-5.251,2.508-7.305C240.129,136.842,240.813,130.68,239.445,130.68z"/>
<g id="Dentition">
	<polygon id="dent_8_" fill="#FFFFFF" points="213.677,148.255 211.169,144.146 211.399,138.896 213.905,138.212 214.362,139.582 
		215.957,140.039 215.957,145.973 	"/>
	<polygon id="dent_7_" fill="#FFFFFF" points="202.733,148.255 203.188,139.125 205.925,139.354 207.521,143.462 207.521,147.57 	
		"/>
	<polygon id="dent_6_" fill="#FFFFFF" points="195.664,148.026 193.385,143.691 195.664,139.354 199.313,139.354 199.541,143.462 
		199.769,147.342 	"/>
	<polygon id="dent_5_" fill="#FFFFFF" points="188.367,147.57 186.77,147.114 186.314,144.375 188.367,139.354 190.192,139.354 
		191.786,143.462 192.016,147.114 	"/>
	<polygon id="dent_4_" fill="#FFFFFF" points="180.841,147.114 178.106,142.777 178.789,141.179 179.473,138.212 183.578,138.44 
		184.261,142.777 184.49,146.657 	"/>
	<polygon id="dent_3_" fill="#FFFFFF" points="182.894,160.81 181.299,158.527 179.473,157.384 178.562,159.439 179.929,163.32 
		183.807,164.232 184.49,161.723 	"/>
	<polygon id="dent_2_" fill="#FFFFFF" points="190.419,158.527 186.542,158.755 186.999,163.32 189.963,165.832 191.786,162.634 	
		"/>
	<polygon id="dent_1_" fill="#FFFFFF" points="198.628,158.982 195.891,159.21 194.753,161.494 195.207,166.516 199.313,165.832 
		200.224,164.46 200.909,163.548 	"/>
	<polygon id="dent" fill="#FFFFFF" points="209.801,158.755 206.61,159.21 207.065,166.059 209.117,166.059 211.854,164.005 
		211.854,160.81 	"/>
</g>
<path fill="#FFFFFF" d="M261.79,46.226c-0.099-0.624-1.069-0.209-1.368-1.369c-0.295-1.16,1.147-2.799,0.914-4.108
	c-0.678-3.771-11.174-22.369-19.147-28.075C234.2,6.967,221.03,1.008,218.466,0.805c-2.562-0.204-11.793-0.508-14.067-0.736
	c-2.281-0.229-9.646,0.052-19.672,1.876c-10.034,1.827-23.032,7.761-25.312,9.587c-2.28,1.826-7.979,7.532-7.979,7.532l-0.229,1.598
	c0,0-4.562,4.108-9.577,12.782c-5.017,8.674-5.018,23.967-5.018,29.216c0,5.25,3.188,18.945,3.188,18.945l3.193,6.621h2.052
	l0.912-10.043c0,0-0.229-2.511-0.912-6.847c-0.686-4.337,0-13.011,2.059-20.315c2.052-7.304,4.562-9.814,7.979-14.608
	c3.42-4.792,6.384-7.76,6.384-7.76l1.689,0.964c0,0-2.604,5.655-3.521,7.709c-0.905,2.054-4.782,14.38-7.979,18.944
	c-3.192,4.565-1.368,30.129-1.598,32.868c-0.229,2.738-0.455,3.88-1.601,4.793c-1.14,0.913-7.827,3-8.667,3.424
	c-0.838,0.424-1.368,4.565-1.368,6.62s2.515,5.021,8.896,8.217c6.385,3.196,12.312,5.021,16.417,6.62
	c4.104,1.598,8.666,10.728,10.72,13.238c2.052,2.51,12.312,3.88,20.979,5.249c8.665,1.37,17.646-2.068,18.973-2.184
	c1.324-0.114,3.601,0.358,4.513,0.586s5.333-4.426,5.937-5.174c0.596-0.747,0.911-2.129,2.963-4.641
	c2.053-2.511,9.577-7.303,16.418-9.586c6.84-2.282,10.913-6.495,11.854-7.761c0.945-1.266,1.69-6.919,1.371-8.094
	c-0.244-0.898-2.344-2.134-4.149-2.772c-1.812-0.639-5.646-2.169-6.336-3.058c-0.697-0.89-0.788-4.096-1.021-7.291
	c-0.229-3.195,1.088-17.044,1.928-17.589c0.849-0.544,2.53,0.725,2.972,1.37c0.434,0.646,0.916,16.8,1.362,17.576
	c0.451,0.777,3.646-2.054,5.243-2.967c1.603-0.913,2.508-8.445,2.965-10.499C260.878,73.16,262.468,50.416,261.79,46.226z
	 M182.439,94.58c-1.064,0.961-5.479,3.232-9.578,4.146c-4.104,0.913-9.349,0.228-11.4-1.597c-2.052-1.826-2.963-8.445-3.188-14.837
	c-0.229-6.392,2.965-13.468,5.93-15.522c2.964-2.054,5.243-4.564,10.488-4.337c5.244,0.229,12.312,3.196,14.136,6.164
	c1.825,2.967,3.422,10.043,2.282,13.01c-1.146,2.968-2.174,5.199-2.483,5.72c-0.316,0.52-1.499,2.131-2.35,3.093
	C185.422,91.379,183.505,93.62,182.439,94.58z M205.924,116.3c-0.567,0.255-6.435-2.092-8.239-1.771
	c-0.658,0.115-0.925,1.452-1.706,1.92c-0.785,0.468-7.393,1.345-8.062,0.993c-0.677-0.353,0-6.621,1.823-11.642
	c1.824-5.021,4.054-12.621,4.562-13.466c0.51-0.847,2.971-2.512,2.971-2.512s2.585-0.917,3.421,0
	c0.833,0.917,3.188,10.271,4.561,13.923C206.608,107.397,206.497,116.044,205.924,116.3z M238.759,92.334
	c-1.139,2.511-8.657,7.305-13.446,7.76c-4.788,0.456-8.896-3.651-10.724-5.478c-1.817-1.826-4.562-3.424-7.062-10.729
	c-2.508-7.304,0.229-11.869,1.367-13.466c1.144-1.599,2.73-3.197,2.73-3.197s1.368-0.684,2.279-1.596
	c0.912-0.914,4.332-2.968,8.437-2.968c4.105,0,11.402,2.055,14.365,9.815C239.672,80.236,239.9,89.823,238.759,92.334z"/>
<g id="Sabre_x5F_b">
	<path fill="#B82025" d="M135.922,274.25c0,0,3.192,3.197,3.192,5.248c0,2.062-4.333,8.678-13.453,8.903
		c-9.121,0.228-19.839-6.849-25.769-11.87c-5.936-5.021-7.523-14.15-7.752-17.574c-0.229-3.426,1.14-7.761-0.458-8.896
		c-1.603-1.146-11.4-10.729-12.771-14.604c-1.368-3.886-6.385-17.121-10.488-19.399c-4.104-2.283-8.893-2.97-9.114-4.562
		c-0.229-1.603,3.42-8.902,10.025-9.359c6.614-0.457,11.173,1.146,14.367,16.207c3.191,15.062,12.997,19.172,17.557,22.145
		c4.562,2.967,8.438,5.479,8.216,6.852c-0.229,1.365-2.515,8.443-2.059,12.101c0.457,3.646,4.789,13.69,10.718,15.062
		C124.065,275.849,128.624,271.74,135.922,274.25z"/>
	<path fill="#B82025" d="M82.336,255.078c-1.301,1.301-10.938-0.229-15.049,0c-4.104,0.229-16.418,2.057-18.698-0.457
		c-2.273-2.513-4.332-7.531-4.788-9.354c-0.449-1.825-2.729-4.342,0.912-5.479c3.647-1.146,14.601-1.603,20.979-1.371
		c6.387,0.229,11.629,3.424,14.823,8.441C83.705,251.882,83.705,253.708,82.336,255.078z"/>
	<path fill="#B82025" d="M46.992,259.186c-1.104,0.664-7.068,3.194-7.068,4.565c0,1.369-4.104,2.729-2.509,4.334
		c1.604,1.601,6.385-0.688,7.524-2.053c1.142-1.371,3.188-4.793,3.646-5.705S48.132,258.5,46.992,259.186z"/>
	<path fill="#B82025" d="M38.1,245.72c0.539,2.834,3.42,9.814,1.141,12.324c-2.28,2.511-7.525,5.477-11.63,2.511
		c-4.104-2.968-13.909-12.554-7.068-20.542c6.84-7.988,15.962-6.164,17.786-4.795c1.823,1.371,1.823,1.371,1.823,1.371
		s-1.597,2.511-1.823,3.881C38.1,241.837,37.187,240.925,38.1,245.72z"/>
	<path fill="#B82025" d="M163.057,230.197c0,0-12.771,2.74-19.154,5.252c-6.383,2.51-20.979,7.305-27.362,5.705
		c-6.386-1.598-15.729-8.673-15.729-8.673s9.351-1.825,17.787-3.651c8.436-1.828,29.187-7.305,31.232-7.305
		c2.059,0,3.877,1.369,7.752,3.424C161.46,227.001,163.513,229.057,163.057,230.197z"/>
	<path fill="#B82025" d="M173.773,233.393c-2.51-0.209-28.047,7.075-32.606,8.674c-4.562,1.599-20.062,4.108-22.574,6.394
		c-2.509,2.281-5.693,5.705-5.693,7.31c0,1.603,0.228,1.146,3.42,1.146c3.188,0,54.27-10.957,59.742-12.326
		c5.472-1.368,11.173-1.825,11.173-3.424c0-1.604-1.825-2.06-5.701-3.887C177.65,235.449,176.509,233.623,173.773,233.393z"/>
	<path fill="#B82025" d="M225.079,213.08c0,0,4.104,1.598,7.068,2.967c2.963,1.369,4.561,2.738,8.665,2.062
		c4.104-0.688,15.729-7.071,20.75-10.499c5.018-3.432,54.727-37.662,73.196-55.922c18.469-18.259,31.688-34.923,36.256-41.314
		c4.561-6.39,20.748-38.575,23.257-44.966c2.51-6.391,5.929-18.716,5.929-20.543c0-1.826-0.911-4.108-0.911-4.108
		s-16.646,22.141-20.979,27.39c-4.332,5.25-33.521,47.249-83.91,81.938c-50.396,34.694-71.604,45.879-76.161,47.705
		c-4.562,1.826-12.998,5.938-12.998,5.938s1.142,2.058,4.789,3.646c3.646,1.604,6.841,2.512,6.841,2.512s13.229-6.391,19.382-9.811
		c6.155-3.427,20.75-13.926,26.45-16.66c5.7-2.738,11.628-4.793,11.628-4.793s-9.806,11.639-14.82,14.379
		c-5.018,2.734-18.235,9.354-22.348,12.553C233.06,208.744,225.079,213.08,225.079,213.08z"/>
</g>
<g id="Sabre_x5F_a">
	<path fill="#B82025" d="M277.753,261.24c-0.597,1.19-28.271-4.336-41.271-7.988c-12.998-3.646-77.983-27.162-131.114-65.965
		S17.349,93.019,10.281,76.356C3.212,59.692,0.475,49.193,0.247,44.172c-0.228-5.022,0.457-7.305,0.457-7.305
		s12.085,22.37,25.771,35.608c13.681,13.238,49.021,53.411,59.279,61.171c10.267,7.76,54.729,42.682,63.619,48.16
		c8.896,5.479,44.008,24.195,56.101,29.674c12.085,5.479,28.729,11.412,38.764,14.15c10.033,2.74,18.928,5.935,22.574,6.392
		c3.646,0.456,10.026,3.651,14.137,4.106c4.106,0.459,9.35,0.687,9.807,1.828c0.457,1.141-2.964,2.055-5.019,3.424
		c-2.051,1.369-11.629,5.478-19.837,3.879c-8.208-1.596-76.842-30.356-84.604-34.465c-7.753-4.108-42.406-23.51-46.517-26.938
		c-4.104-3.424-6.841-6.162-10.488-7.76c-3.646-1.601-6.385-1.826-6.385-1.826s8.438,8.899,13.682,12.558
		c5.245,3.648,28.509,19.172,45.604,27.846c17.104,8.679,46.744,21.914,63.162,27.619c16.418,5.707,32.379,10.955,34.432,13.016
		C276.841,257.36,278.665,259.414,277.753,261.24z"/>
	<path fill="#B82025" d="M280.717,250.742c0,0,3.193,4.793,3.646,7.988c0.458,3.193,2.511,11.869-5.014,16.889
		c-7.525,5.022-9.354,6.848-13.229,5.707c-3.875-1.142-11.396-2.968-12.996-1.826c-1.599,1.146-3.877,5.707-1.599,7.99
		c2.282,2.28,8.21,5.704,19.84,4.336c11.63-1.369,26.224-14.836,27.362-23.966c1.143-9.13,0.229-10.502,1.826-12.099
		c1.595-1.596,9.805-10.043,14.591-17.803c4.789-7.762,4.334-12.104,11.174-15.521c6.841-3.423,7.981-1.371,7.981-2.969
		c0-1.596-4.788-7.76-7.524-8.443c-2.734-0.686-12.312,0.912-15.506,3.879c-3.191,2.969-9.354,19.629-11.857,23.055
		c-2.509,3.424-9.805,8.442-11.854,9.584C285.505,248.685,280.717,250.742,280.717,250.742z"/>
	<path fill="#B82025" d="M345.476,248.001c-2.838-1.104-8.209-0.229-14.365,0c-6.156,0.228-11.173-0.459-15.506,2.281
		c-4.332,2.732-7.298,12.098-7.298,12.098s16.42-0.229,22.349,1.143c5.936,1.371,11.857,0.684,14.592-3.425
		c2.736-4.106,4.335-7.763,3.194-9.815C347.302,248.229,349.579,249.599,345.476,248.001z"/>
	<path fill="#B82025" d="M350.72,243.894v1.596c0,0,5.245,1.143,4.561,3.195c-0.684,2.057-6.147,13.469-4.561,17.12
		c1.597,3.651,5.7,6.39,11.396,4.336c5.7-2.056,10.944-7.076,9.578-15.292c-1.371-8.217-3.424-9.586-8.438-11.186
		C358.242,242.067,350.72,243.894,350.72,243.894z"/>
	<path fill="#B82025" d="M343.196,268.085c0,0-0.684,2.967,0.911,5.479c1.597,2.512,7.98,3.648,7.98,3.648l1.818-2.281
		c0,0-2.51-1.367-5.018-3.191c-2.508-1.828-3.649-3.654-3.649-3.654H343.196L343.196,268.085z"/>
</g>
</svg>
