<?xml version="1.0" encoding="utf-8"?>
<!-- Generator: Adobe Illustrator 16.0.0, SVG Export Plug-In . SVG Version: 6.00 Build 0)  -->
<!DOCTYPE svg PUBLIC "-//W3C//DTD SVG 1.0//EN" "http://www.w3.org/TR/2001/REC-SVG-20010904/DTD/svg10.dtd">
<svg version="1.0" id="Layer_1" xmlns="http://www.w3.org/2000/svg" xmlns:xlink="http://www.w3.org/1999/xlink" x="0px" y="0px"
	 width="50px" height="50px" viewBox="0 0 50 50" enable-background="new 0 0 50 50" xml:space="preserve">
<path fill="#231F20" d="M25.02,0c0.212,0.628,5.211,16.069,5.891,18.213c0.811-0.001,17.654-0.029,19.062,0
	c-0.807,0.594-14.652,10.785-15.422,11.257c0.321,1.034,5.437,17.004,5.891,18.214c-0.972-0.709-14.584-10.63-15.421-11.257
	c-0.803,0.583-14.446,10.483-15.422,11.257c0.387-1.198,5.593-17.336,5.891-18.214c-0.71-0.518-14.116-10.288-15.422-11.257
	c1.057-0.001,17.682-0.029,19.063,0C19.474,17.139,24.485,1.528,25.02,0z"/>
</svg>
