<?xml version="1.0" encoding="utf-8"?>
<!-- Generator: Adobe Illustrator 21.0.0, SVG Export Plug-In . SVG Version: 6.00 Build 0)  -->
<svg version="1.1" id="Calque_1" xmlns="http://www.w3.org/2000/svg" xmlns:xlink="http://www.w3.org/1999/xlink" x="0px" y="0px"
	 viewBox="0 0 284 293" style="enable-background:new 0 0 284 293;" xml:space="preserve">
<style type="text/css">
	.st0{fill:none;}
	.st1{fill:#231F20;}
	.st2{fill:#ED2024;stroke:#000000;stroke-miterlimit:10;}
	.st3{fill:#EAC321;stroke:#000000;stroke-miterlimit:10;}
	.st4{fill:#00AAFF;stroke:#000000;stroke-miterlimit:10;}
	.st5{fill:#9FCC15;stroke:#000000;stroke-miterlimit:10;}
	.st6{fill:#E20EE2;}
	.st7{font-family:'Tokyo-OneSolid';}
	.st8{font-size:48.8314px;}
	.st9{fill:#7C147F;}
	.st10{fill:#157C7C;}
</style>
<g>
	<g>
		<g>
			<g>
				<g>
					<g>
						<path class="st0" d="M237.7,222c3.7,0,7.3,0.7,10.7,2l5.4-14c-5.1-2-10.6-3-16.1-3L237.7,222L237.7,222z"/>
					</g>
					<path class="st1" d="M247.9,215.4l-0.4,1.4c0.8,0.2,1.6,0.5,2.4,0.8l0.5-1.4C249.5,215.9,248.7,215.6,247.9,215.4z"/>
					<path class="st1" d="M243.4,214.5l-0.2,1.5l1.2,0.2c0.4,0.1,0.8,0.1,1.2,0.2l0.3-1.5c-0.4-0.1-0.8-0.2-1.3-0.3L243.4,214.5z"/>
					<polygon class="st1" points="238.7,214.1 238.7,215.6 241.2,215.7 241.3,214.2 					"/>
				</g>
			</g>
			<g>
				<g>
					<g>
						<path class="st0" d="M248.4,224.1c3.4,1.3,6.6,3.3,9.3,5.8l10.1-11.1c-4.1-3.7-8.8-6.7-13.9-8.7L248.4,224.1z"/>
					</g>
					<path class="st1" d="M260.3,221.6l-0.9,1.2c0.7,0.5,1.4,1,1.9,1.5l1-1.1C261.7,222.6,261,222.1,260.3,221.6z"/>
					<polygon class="st1" points="256.4,219 255.7,220.3 257.8,221.6 258.6,220.4 					"/>
					<polygon class="st1" points="252.3,216.9 251.7,218.3 254,219.4 254.6,218.1 					"/>
				</g>
			</g>
			<g>
				<g>
					<g>
						<path class="st0" d="M257.7,229.8c2.7,2.5,5,5.4,6.6,8.7l13.4-6.7c-2.5-4.9-5.8-9.4-9.9-13.1L257.7,229.8z"/>
					</g>
					<path class="st1" d="M269.7,231.8l-1.3,0.8c0.4,0.7,0.9,1.4,1.3,2.1l1.3-0.7C270.6,233.2,270.1,232.5,269.7,231.8z"/>
					<polygon class="st1" points="267,228 265.8,228.9 267.3,230.9 268.6,230.1 					"/>
					<path class="st1" d="M263.9,224.6l-1,1.1c0.6,0.5,1.1,1.2,1.7,1.8l1.1-1C265.1,225.8,264.5,225.1,263.9,224.6z"/>
				</g>
			</g>
			<g>
				<g>
					<g>
						<path class="st0" d="M264.3,238.5c1.6,3.3,2.6,6.8,3,10.5l14.9-1.4c-0.5-5.5-2-10.9-4.5-15.8L264.3,238.5z"/>
					</g>
					<polygon class="st1" points="274.7,244.7 273.3,244.9 273.6,247.4 275.1,247.2 					"/>
					<path class="st1" d="M273.6,240.2l-1.4,0.5c0.3,0.8,0.4,1.6,0.7,2.4l1.5-0.4C274.1,241.8,273.9,241,273.6,240.2z"/>
					<polygon class="st1" points="271.9,235.9 270.5,236.5 271.1,237.6 271.5,238.8 272.9,238.3 272.5,237 					"/>
				</g>
			</g>
			<g>
				<g>
					<g>
						<path class="st0" d="M267.3,249c0.4,3.7,0,7.4-1,10.9l14.4,4.1c1.5-5.3,2.1-10.9,1.5-16.3L267.3,249z"/>
					</g>
					<path class="st1" d="M274.8,258.5l-1.5-0.3c-0.1,0.8-0.3,1.6-0.5,2.4l1.5,0.4C274.4,260.2,274.7,259.4,274.8,258.5z"/>
					<path class="st1" d="M275.3,253.9l-1.5-0.1c0,0.8-0.1,1.7-0.2,2.5l1.5,0.2C275.3,255.7,275.3,254.8,275.3,253.9z"/>
					<path class="st1" d="M275.3,249.3l-1.5,0.1c0,0.8,0.1,1.7,0.1,2.5h1.5C275.4,251,275.3,250.2,275.3,249.3z"/>
				</g>
			</g>
			<g>
				<g>
					<g>
						<path class="st0" d="M266.2,259.9c-1,3.5-2.7,6.8-4.9,9.7l12,9c3.3-4.4,5.8-9.4,7.3-14.7L266.2,259.9z"/>
					</g>
					<path class="st1" d="M269.8,271.5l-1.3-0.8c-0.4,0.7-0.8,1.4-1.4,2.1l1.2,0.9C268.9,272.9,269.4,272.2,269.8,271.5z"/>
					<polygon class="st1" points="272,267.4 270.6,266.8 269.6,269 270.9,269.7 					"/>
					<polygon class="st1" points="273.7,263.1 272.3,262.6 271.4,265 272.8,265.5 					"/>
				</g>
			</g>
			<g>
				<g>
					<g>
						<path class="st0" d="M261.4,269.6c-2.2,2.9-5,5.4-8.1,7.4l7.9,12.7c4.7-2.9,8.8-6.7,12.1-11.1L261.4,269.6z"/>
					</g>
					<path class="st1" d="M260.5,281.7l-0.9-1.2c-0.7,0.5-1.3,1-2,1.5l0.8,1.3C259.2,282.8,259.8,282.2,260.5,281.7z"/>
					<polygon class="st1" points="264,278.7 263,277.6 261.2,279.3 262.1,280.5 					"/>
					<path class="st1" d="M267.1,275.3l-1.2-0.9c-0.5,0.7-1.1,1.2-1.6,1.9l1.1,1C266,276.6,266.6,276,267.1,275.3z"/>
				</g>
			</g>
			<g>
				<g>
					<g>
						<path class="st0" d="M253.3,277c-3.1,1.9-6.6,3.3-10.1,3.9l2.7,14.7c5.4-1,10.6-3,15.3-5.9L253.3,277z"/>
					</g>
					<polygon class="st1" points="248.1,288 247.7,286.5 245.3,287.1 245.6,288.6 					"/>
					<path class="st1" d="M252.5,286.4l-0.6-1.4c-0.8,0.3-1.6,0.6-2.3,0.9l0.5,1.4C250.9,287,251.7,286.8,252.5,286.4z"/>
					<path class="st1" d="M256.6,284.3l-0.8-1.3c-0.4,0.2-0.7,0.4-1.1,0.6l-1.1,0.5l0.7,1.3l1.2-0.6
						C255.9,284.8,256.3,284.5,256.6,284.3z"/>
				</g>
			</g>
			<g>
				<g>
					<g>
						<path class="st0" d="M243.2,280.9c-0.9,0.1-1.8,0.3-2.7,0.4l-2.7,0.1l-2.7-0.1c-0.9-0.1-1.8-0.3-2.7-0.4l-2.7,14.7
							c1.4,0.2,2.7,0.5,4.1,0.6l4.1,0.2l4.1-0.2c1.4-0.1,2.7-0.4,4.1-0.6L243.2,280.9z"/>
					</g>
					<path class="st1" d="M234.3,289.3l0.1-1.5c-0.8,0-1.6-0.2-2.5-0.3l-0.2,1.5C232.6,289.1,233.5,289.3,234.3,289.3z"/>
					<polygon class="st1" points="239,289.4 238.9,287.9 237.7,288 236.4,287.9 236.4,289.4 237.7,289.5 					"/>
					<path class="st1" d="M243.6,289l-0.2-1.5c-0.8,0.1-1.6,0.3-2.5,0.3l0.1,1.5C241.9,289.3,242.7,289.1,243.6,289z"/>
				</g>
			</g>
			<g>
				<g>
					<g>
						<path class="st0" d="M232.2,280.9c-3.6-0.7-7-2-10.1-3.9l-7.9,12.7c4.7,2.9,9.9,4.9,15.3,5.9L232.2,280.9z"/>
					</g>
					<path class="st1" d="M221,285.5l0.7-1.3l-1.1-0.5c-0.4-0.2-0.7-0.4-1.1-0.6l-0.8,1.3c0.4,0.2,0.7,0.5,1.1,0.7L221,285.5z"/>
					<path class="st1" d="M225.3,287.3l0.5-1.4c-0.8-0.3-1.6-0.6-2.3-0.9l-0.6,1.4C223.7,286.8,224.5,287,225.3,287.3z"/>
					<polygon class="st1" points="229.7,288.6 230,287.1 227.6,286.5 227.2,288 					"/>
				</g>
			</g>
			<g>
				<g>
					<g>
						<path class="st0" d="M222.1,277c-3.1-1.9-5.9-4.4-8.1-7.4l-12,9c3.3,4.4,7.4,8.2,12.1,11.1L222.1,277z"/>
					</g>
					<path class="st1" d="M209.9,277.2l1.1-1c-0.5-0.6-1.2-1.2-1.6-1.9l-1.2,0.9C208.7,276,209.4,276.6,209.9,277.2z"/>
					<polygon class="st1" points="213.3,280.5 214.2,279.3 212.4,277.6 211.3,278.7 					"/>
					<path class="st1" d="M216.9,283.2l0.8-1.3c-0.7-0.4-1.3-1-2-1.5l-0.9,1.2C215.6,282.2,216.2,282.8,216.9,283.2z"/>
				</g>
			</g>
			<g>
				<g>
					<g>
						<path class="st0" d="M214,269.6c-2.2-2.9-3.9-6.2-4.9-9.7l-14.4,4.1c1.5,5.3,4,10.3,7.3,14.7L214,269.6z"/>
					</g>
					<polygon class="st1" points="202.6,265.5 204,264.9 203.1,262.6 201.7,263 					"/>
					<polygon class="st1" points="204.5,269.7 205.8,269 204.7,266.7 203.4,267.4 					"/>
					<path class="st1" d="M207,273.6l1.2-0.9c-0.5-0.6-0.9-1.4-1.4-2.1l-1.3,0.8C206,272.2,206.4,272.9,207,273.6z"/>
				</g>
			</g>
			<g>
				<g>
					<g>
						<path class="st0" d="M209.2,259.9c-1-3.5-1.4-7.2-1-10.9l-14.9-1.4c-0.5,5.5,0,11,1.5,16.3L209.2,259.9z"/>
					</g>
					<path class="st1" d="M200,251.9h1.5c0-0.8,0.1-1.7,0.1-2.5l-1.5-0.1C200,250.1,200,251,200,251.9z"/>
					<path class="st1" d="M200.3,256.5l1.5-0.2c-0.2-0.8-0.2-1.6-0.2-2.5l-1.5,0.1C200.1,254.8,200.1,255.6,200.3,256.5z"/>
					<path class="st1" d="M201.2,261l1.5-0.4c-0.2-0.8-0.5-1.6-0.5-2.4l-1.5,0.3C200.7,259.4,201,260.2,201.2,261z"/>
				</g>
			</g>
			<g>
				<g>
					<g>
						<path class="st0" d="M208.1,249c0.3-3.6,1.4-7.2,3-10.5l-13.4-6.7c-2.5,4.9-4,10.3-4.5,15.8L208.1,249z"/>
					</g>
					<polygon class="st1" points="202.5,238.2 203.9,238.8 204.3,237.6 204.9,236.5 203.5,235.9 202.9,237 					"/>
					<path class="st1" d="M201.1,242.7l1.5,0.4c0.2-0.8,0.4-1.6,0.7-2.4l-1.4-0.5C201.5,241,201.3,241.8,201.1,242.7z"/>
					<polygon class="st1" points="200.3,247.2 201.7,247.4 202.1,244.9 200.6,244.6 					"/>
				</g>
			</g>
			<g>
				<g>
					<g>
						<path class="st0" d="M211.1,238.5c1.6-3.3,3.9-6.2,6.6-8.7l-10.1-11.1c-4.1,3.7-7.4,8.2-9.9,13.1L211.1,238.5z"/>
					</g>
					<path class="st1" d="M209.8,226.4l1.1,1c0.6-0.6,1.1-1.3,1.7-1.8l-1-1.1C210.9,225.1,210.3,225.8,209.8,226.4z"/>
					<polygon class="st1" points="206.8,230 208.1,230.9 209.6,228.9 208.4,228 					"/>
					<path class="st1" d="M204.4,234l1.3,0.7c0.4-0.7,0.8-1.4,1.3-2.1l-1.3-0.8C205.3,232.5,204.8,233.2,204.4,234z"/>
				</g>
			</g>
			<g>
				<g>
					<g>
						<path class="st0" d="M217.7,229.8c2.7-2.5,5.9-4.4,9.3-5.8l-5.4-14c-5.1,2-9.9,4.9-13.9,8.7L217.7,229.8z"/>
					</g>
					<path class="st1" d="M220.8,218l0.7,1.3c0.7-0.4,1.5-0.7,2.2-1.1l-0.6-1.4C222.3,217.3,221.5,217.7,220.8,218z"/>
					<polygon class="st1" points="216.7,220.4 217.6,221.6 219.7,220.3 219,219 					"/>
					<path class="st1" d="M213.1,223.2l1,1.1c0.6-0.6,1.3-1,1.9-1.5l-0.9-1.2C214.4,222.1,213.7,222.6,213.1,223.2z"/>
				</g>
			</g>
			<g>
				<g>
					<g>
						<path class="st0" d="M227,224.1c3.4-1.3,7-2,10.7-2v-15c-5.5,0-11,1-16.1,3L227,224.1z"/>
					</g>
					<polygon class="st1" points="234.1,214.2 234.2,215.7 236.7,215.5 236.7,214 					"/>
					<path class="st1" d="M229.5,214.9l0.3,1.5c0.8-0.2,1.6-0.3,2.4-0.4l-0.2-1.5C231.2,214.6,230.3,214.7,229.5,214.9z"/>
					<path class="st1" d="M225.1,216.2l0.5,1.4l1.2-0.4c0.4-0.1,0.8-0.2,1.2-0.3l-0.4-1.4c-0.4,0.1-0.8,0.2-1.2,0.3L225.1,216.2z"/>
				</g>
			</g>
		</g>
	</g>
</g>
<circle class="st2" cx="200.5" cy="224.7" r="37.2"/>
<rect x="140.8" y="165.4" class="st3" width="64.5" height="64.5"/>
<polygon class="st4" points="133.5,122.3 98.6,187.5 173,187.5 "/>
<polygon class="st5" points="109,84.4 118.6,113 148.9,113.4 124.6,131.4 133.6,160.2 109,142.7 84.3,160.2 93.3,131.4 69.1,113.4 
	99.3,113 "/>
<text transform="matrix(1 0 0 1 163.2891 84.3688)" class="st6 st7 st8">ROPE</text>
<path class="st9" d="M110.1,67c-7.4-20.7-30.4-21.1-49.8-13.5s-19.4,30.4-5.9,43.9s17.7,47.1,33.8,32s0.8-15.9,0-30.3
	s22-10.1,22-21.1S114.3,78.8,110.1,67z"/>
<g>
	<path class="st10" d="M51.9,10.3c-2.4-1-4.8-1.7-7.4-2C42,8,39.4,8.1,36.9,8.6c-5,0.9-9.6,3.6-13.4,6.9c-3.8,3.4-6.8,7.5-9.4,11.9
		c-1.3,2.2-2.4,4.5-3.4,6.8s-1.9,4.7-2.5,7.1c-0.6,2.4-0.8,4.9-0.6,7.3c0.4,2.4,1,4.7,2,6.9c2,4.4,5.5,7.9,9.6,10.4
		s8.9,3.8,13.7,4.2c1.2,0.1,2.4,0.1,3.6,0h2l2,0.1c2.7,0.2,5.3,0.6,7.9,1.2c5.1,1.1,10,2.7,14.9,4c2.4,0.7,4.9,1.3,7.3,1.7
		c2.4,0.4,4.8,0.6,6.8,0c1-0.3,1.8-0.8,2.4-1.5c0.2-0.2,0.3-0.3,0.4-0.6c0.1-0.2,0.3-0.4,0.4-0.6c0.2-0.5,0.4-1,0.6-1.5
		c0.6-2.1,0.6-4.7,0.5-7.1c-0.1-2.5-0.4-4.9-1.3-7c-0.4-1-1.1-2-1.9-2.6c-0.8-0.7-1.9-1.2-3-1.5c-2.3-0.7-4.9-1-7.5-1.7
		c-2.5-0.8-5-2-7-3.6c-2.1-1.6-3.8-4-4.1-6.7c-0.4-2.7,0.4-5.3,1.3-7.7c0.9-2.4,2-4.7,2.9-7.1c0.4-1.2,0.8-2.4,1-3.7
		c0.2-1.2,0.2-2.6-0.3-3.7c-0.2-0.6-0.6-1.1-0.9-1.6c-0.4-0.5-0.9-0.9-1.3-1.4c-0.5-0.4-0.9-0.9-1.3-1.4c-0.4-0.5-0.8-1-1.1-1.6
		c-0.1-0.3-0.2-0.7,0-0.9c0.1-0.1,0.3-0.2,0.4-0.3c0.1-0.1-0.1-0.2-0.2-0.3c-0.6-0.3-1.1-0.6-1.7-0.8L51.9,10.3z M51.9,10.3l3.5,1.5
		c0.6,0.3,1.2,0.5,1.7,0.8c0.1,0,0.1,0.1,0.2,0.1c0.1,0.1,0.1,0.2,0,0.2c-0.1,0.1-0.3,0.2-0.4,0.3c-0.2,0.2-0.1,0.6,0,0.9
		c0.2,0.6,0.7,1.1,1.1,1.6c0.4,0.5,0.9,0.9,1.3,1.4c0.5,0.4,0.9,0.9,1.4,1.4c0.4,0.5,0.7,1.1,1,1.7c0.5,1.2,0.5,2.5,0.4,3.8
		c-0.2,1.3-0.5,2.5-0.9,3.7c-0.8,2.4-1.9,4.8-2.7,7.2s-1.4,4.9-0.9,7.4c0.4,2.4,2,4.5,4,5.8c2,1.5,4.3,2.4,6.7,3
		c2.4,0.6,4.9,0.7,7.6,1.3c1.3,0.3,2.7,0.8,3.9,1.7c1.2,0.9,2.1,2.1,2.7,3.4c1.2,2.6,1.7,5.2,1.9,7.9c0.1,0.7,0.1,1.3,0.1,2
		s0.1,1.3,0.1,2s0,1.4-0.1,2.1l-0.1,1c-0.1,0.3-0.1,0.7-0.2,1.1c-0.1,0.7-0.4,1.4-0.7,2.1c-0.1,0.3-0.4,0.7-0.5,1
		c-0.2,0.3-0.4,0.7-0.7,1c-1,1.3-2.4,2.2-3.9,2.6c-1.5,0.5-2.9,0.7-4.3,0.7s-2.8-0.1-4.1-0.3c-2.7-0.4-5.2-1-7.7-1.6
		c-5-1.3-9.9-2.8-14.8-3.8c-2.4-0.5-4.9-1-7.3-1.2L38.4,74h-1.8c-1.4,0-2.7,0-4.1-0.1c-5.4-0.5-10.7-2.1-15.2-5.1
		C12.8,65.9,9.1,61.6,7,56.6c-1-2.5-1.6-5.2-1.6-7.9c-0.1-2.7,0.3-5.4,1.1-7.9c0.8-2.6,1.8-4.9,3-7.2c1.1-2.3,2.4-4.6,3.8-6.8
		c2.8-4.4,6.1-8.4,10-11.7c2-1.7,4.1-3.1,6.4-4.3C32,9.7,34.5,8.9,37,8.4c2.4-0.4,5-0.5,7.6-0.1C47.1,8.6,49.6,9.3,51.9,10.3z"/>
</g>
</svg>
