<?xml version="1.0" encoding="utf-8"?>
<!-- Generator: Adobe Illustrator 16.0.0, SVG Export Plug-In . SVG Version: 6.00 Build 0)  -->
<!DOCTYPE svg PUBLIC "-//W3C//DTD SVG 1.1//EN" "http://www.w3.org/Graphics/SVG/1.1/DTD/svg11.dtd">
<svg version="1.1" id="Layer_1" xmlns="http://www.w3.org/2000/svg" xmlns:xlink="http://www.w3.org/1999/xlink" x="0px" y="0px"
	 width="841.89px" height="595.28px" viewBox="0 0 841.89 595.28" enable-background="new 0 0 841.89 595.28" xml:space="preserve">
<polygon fill="#FFDE17" points="300.496,114.446 305.688,130.725 322.773,130.631 308.896,140.598 314.264,156.819 300.496,146.7 
	286.729,156.819 292.097,140.598 278.219,130.631 295.306,130.725 "/>
<polygon fill="#FFDE17" points="483.144,274.916 486.76,286.259 498.667,286.194 488.996,293.14 492.737,304.443 483.144,297.392 
	473.549,304.443 477.29,293.14 467.62,286.194 479.525,286.259 "/>
<polygon fill="#FFDE17" points="391.9,337.31 397.092,353.588 414.178,353.494 400.301,363.462 405.669,379.683 391.9,369.564 
	378.133,379.683 383.502,363.462 369.624,353.494 386.711,353.588 "/>
<polygon fill="#FFDE17" points="366.72,227.097 369.365,235.391 378.07,235.343 371,240.421 373.735,248.686 366.72,243.53 
	359.706,248.686 362.441,240.421 355.37,235.343 364.076,235.391 "/>
<polygon fill="#FFDE17" points="248.819,334.264 251.464,342.557 260.169,342.51 253.099,347.588 255.834,355.853 248.819,350.697 
	241.805,355.853 244.54,347.588 237.469,342.51 246.175,342.557 "/>
<polygon fill="#FFDE17" points="256.36,188.729 259.906,199.85 271.578,199.786 262.099,206.595 265.766,217.676 256.36,210.764 
	246.955,217.676 250.623,206.595 241.142,199.786 252.815,199.85 "/>
<polygon fill="#FFDE17" points="101.544,264.45 104.189,272.744 112.894,272.696 105.823,277.775 108.559,286.039 101.544,280.884 
	94.529,286.039 97.265,277.775 90.194,272.696 98.899,272.744 "/>
<polygon fill="#FFDE17" points="666.895,114.939 669.539,123.232 678.244,123.186 671.174,128.264 673.908,136.528 666.895,131.373 
	659.879,136.528 662.615,128.264 655.543,123.186 664.25,123.232 "/>
<polygon fill="#FFDE17" points="488.776,106.999 491.422,115.292 500.126,115.245 493.057,120.323 495.791,128.587 488.776,123.432 
	481.762,128.587 484.497,120.323 477.426,115.245 486.133,115.292 "/>
<polygon fill="#FFDE17" points="598.492,213.156 602.949,227.13 617.615,227.049 605.702,235.605 610.311,249.529 598.492,240.844 
	586.674,249.529 591.283,235.605 579.369,227.049 594.037,227.13 "/>
<polygon fill="#FFDE17" points="605.236,444.687 610.428,460.965 627.514,460.871 613.637,470.839 619.004,487.06 605.236,476.941 
	591.469,487.06 596.838,470.839 582.959,460.871 600.047,460.965 "/>
<polygon fill="#FFDE17" points="235.771,414.221 238.416,422.514 247.121,422.467 240.05,427.545 242.786,435.809 235.771,430.654 
	228.756,435.809 231.492,427.545 224.421,422.467 233.126,422.514 "/>
<polygon fill="#FFDE17" points="166.735,416.088 167.954,419.91 171.966,419.888 168.708,422.229 169.968,426.037 166.735,423.661 
	163.503,426.037 164.763,422.229 161.505,419.888 165.517,419.91 "/>
<polygon fill="#FFDE17" points="346.324,418.213 347.542,422.035 351.554,422.013 348.295,424.354 349.556,428.162 346.324,425.786 
	343.091,428.162 344.352,424.354 341.093,422.013 345.105,422.035 "/>
<polygon fill="#FFDE17" points="44.534,433.302 45.753,437.124 49.765,437.102 46.506,439.442 47.767,443.25 44.534,440.875 
	41.302,443.25 42.562,439.442 39.304,437.102 43.315,437.124 "/>
<polygon fill="#FFDE17" points="305.065,364.402 306.283,368.225 310.295,368.203 307.037,370.543 308.297,374.352 305.065,371.976 
	301.832,374.352 303.093,370.543 299.833,368.203 303.846,368.225 "/>
<polygon fill="#FFDE17" points="204.241,247.613 205.46,251.435 209.472,251.413 206.214,253.753 207.474,257.562 204.241,255.186 
	201.009,257.562 202.269,253.753 199.011,251.413 203.023,251.435 "/>
<polygon fill="#FFDE17" points="140.441,475.86 141.66,479.683 145.671,479.66 142.413,482.001 143.673,485.809 140.441,483.434 
	137.208,485.809 138.469,482.001 135.21,479.66 139.222,479.683 "/>
<polygon fill="#FFDE17" points="722.912,485.771 724.131,489.593 728.143,489.57 724.884,491.911 726.145,495.72 722.912,493.344 
	719.68,495.72 720.939,491.911 717.682,489.57 721.693,489.593 "/>
<polygon fill="#FFDE17" points="742.455,508.767 743.674,512.589 747.685,512.566 744.427,514.907 745.688,518.716 742.455,516.34 
	739.223,518.716 740.482,514.907 737.225,512.566 741.236,512.589 "/>
<polygon fill="#FFDE17" points="391.298,135.337 392.517,139.159 396.529,139.137 393.271,141.478 394.531,145.285 391.298,142.91 
	388.066,145.285 389.326,141.478 386.068,139.137 390.08,139.159 "/>
<polygon fill="#FFDE17" points="568.088,177.625 569.307,181.447 573.318,181.425 570.06,183.765 571.32,187.574 568.088,185.198 
	564.854,187.574 566.115,183.765 562.856,181.425 566.869,181.447 "/>
<polygon fill="#FFDE17" points="569.747,62.778 570.966,66.601 574.978,66.578 571.72,68.919 572.979,72.728 569.747,70.352 
	566.515,72.728 567.774,68.919 564.517,66.578 568.528,66.601 "/>
<polygon fill="#FFDE17" points="487.205,177.896 488.424,181.718 492.436,181.695 489.178,184.036 490.438,187.844 487.205,185.469 
	483.973,187.844 485.232,184.036 481.975,181.695 485.986,181.718 "/>
<polygon fill="#FFDE17" points="599.383,334.594 600.602,338.416 604.613,338.394 601.354,340.734 602.615,344.543 599.383,342.167 
	596.15,344.543 597.41,340.734 594.152,338.394 598.164,338.416 "/>
<polygon fill="#FFDE17" points="618.926,357.59 620.145,361.412 624.156,361.39 620.897,363.73 622.158,367.539 618.926,365.163 
	615.693,367.539 616.953,363.73 613.695,361.39 617.707,361.412 "/>
<polygon fill="#FFDE17" points="477.182,351.808 478.4,355.63 482.412,355.607 479.153,357.948 480.414,361.756 477.182,359.381 
	473.949,361.756 475.209,357.948 471.951,355.607 475.963,355.63 "/>
<polygon fill="#FFDE17" points="737.712,282.908 738.931,286.73 742.942,286.709 739.684,289.049 740.944,292.857 737.712,290.481 
	734.479,292.857 735.739,289.049 732.48,286.709 736.493,286.73 "/>
<polygon fill="#FFDE17" points="655.63,279.249 656.849,283.071 660.86,283.049 657.603,285.39 658.862,289.198 655.63,286.822 
	652.397,289.198 653.657,285.39 650.399,283.049 654.411,283.071 "/>
<polygon fill="#FFDE17" points="573.088,394.366 574.307,398.188 578.318,398.166 575.061,400.507 576.32,404.314 573.088,401.939 
	569.855,404.314 571.115,400.507 567.857,398.166 571.869,398.188 "/>
<polygon fill="#FFDE17" points="371.384,295.401 372.817,299.896 377.534,299.869 373.703,302.621 375.185,307.1 371.384,304.306 
	367.583,307.1 369.065,302.621 365.234,299.869 369.951,299.896 "/>
<polygon fill="#FFDE17" points="424.434,513.977 425.866,518.471 430.584,518.444 426.752,521.197 428.234,525.675 424.434,522.882 
	420.633,525.675 422.115,521.197 418.283,518.444 423.001,518.471 "/>
<polygon fill="#FFDE17" points="240.949,281.623 242.382,286.117 247.1,286.091 243.269,288.843 244.75,293.32 240.949,290.527 
	237.148,293.32 238.63,288.843 234.799,286.091 239.517,286.117 "/>
<polygon fill="#FFDE17" points="534.035,234.628 535.469,239.122 540.186,239.097 536.354,241.848 537.836,246.326 534.035,243.533 
	530.233,246.326 531.716,241.848 527.884,239.097 532.603,239.122 "/>
<polygon fill="#FFDE17" points="437.521,230.325 438.954,234.819 443.672,234.793 439.841,237.545 441.322,242.024 437.521,239.23 
	433.721,242.024 435.202,237.545 431.371,234.793 436.088,234.819 "/>
<polygon fill="#FFDE17" points="266.576,423.101 268.009,427.596 272.726,427.569 268.895,430.321 270.377,434.799 266.576,432.006 
	262.775,434.799 264.257,430.321 260.426,427.569 265.143,427.596 "/>
<polygon fill="#FFDE17" points="642.792,173.037 646.044,183.239 656.753,183.18 648.056,189.427 651.42,199.593 642.792,193.251 
	634.163,199.593 637.527,189.427 628.83,183.18 639.538,183.239 "/>
<polygon fill="#FFDE17" points="701.395,356.273 704.712,366.677 715.631,366.616 706.763,372.986 710.192,383.353 701.395,376.887 
	692.596,383.353 696.027,372.986 687.157,366.616 698.078,366.677 "/>
<polygon fill="#FFDE17" points="186.239,140.766 188.884,149.06 197.589,149.012 190.518,154.09 193.253,162.354 186.239,157.199 
	179.224,162.354 181.959,154.09 174.889,149.012 183.594,149.06 "/>
<polygon fill="#FFDE17" points="110.835,194.116 113.48,202.409 122.185,202.362 115.115,207.44 117.85,215.705 110.835,210.549 
	103.82,215.705 106.556,207.44 99.484,202.362 108.191,202.409 "/>
<polygon fill="#FFDE17" points="242.954,73.808 245.6,82.101 254.304,82.054 247.234,87.132 249.969,95.396 242.954,90.241 
	235.939,95.396 238.675,87.132 231.604,82.054 240.311,82.101 "/>
<polygon fill="#FFDE17" points="93.004,52.455 94.223,56.277 98.235,56.254 94.977,58.595 96.237,62.403 93.004,60.028 
	89.772,62.403 91.032,58.595 87.774,56.254 91.786,56.277 "/>
<polygon fill="#FFDE17" points="188.911,95.013 190.13,98.835 194.142,98.813 190.884,101.154 192.144,104.961 188.911,102.586 
	185.679,104.961 186.938,101.154 183.681,98.813 187.692,98.835 "/>
<polygon fill="#FFDE17" points="139.228,147.443 140.66,151.937 145.378,151.911 141.547,154.663 143.028,159.142 139.228,156.348 
	135.427,159.142 136.908,154.663 133.077,151.911 137.794,151.937 "/>
<polygon fill="#FFDE17" points="310.827,79.801 312.046,83.624 316.058,83.601 312.799,85.942 314.06,89.75 310.827,87.375 
	307.595,89.75 308.854,85.942 305.597,83.601 309.608,83.624 "/>
<polygon fill="#FFDE17" points="371.444,109.978 372.663,113.8 376.675,113.777 373.416,116.118 374.677,119.927 371.444,117.551 
	368.212,119.927 369.472,116.118 366.214,113.777 370.226,113.8 "/>
<polygon fill="#FFDE17" points="490.23,35.296 491.449,39.118 495.461,39.097 492.202,41.437 493.463,45.245 490.23,42.869 
	486.997,45.245 488.258,41.437 484.999,39.097 489.012,39.118 "/>
<polygon fill="#FFDE17" points="408.148,31.637 409.367,35.459 413.379,35.437 410.121,37.777 411.381,41.586 408.148,39.21 
	404.916,41.586 406.176,37.777 402.918,35.437 406.93,35.459 "/>
<polygon fill="#FFDE17" points="457.499,425.271 458.718,429.094 462.729,429.071 459.472,431.412 460.731,435.22 457.499,432.845 
	454.267,435.22 455.526,431.412 452.269,429.071 456.28,429.094 "/>
<polygon fill="#FFDE17" points="339.408,371.755 340.627,375.577 344.639,375.555 341.38,377.896 342.641,381.703 339.408,379.328 
	336.176,381.703 337.436,377.896 334.178,375.555 338.189,375.577 "/>
<polygon fill="#FFDE17" points="373.901,265.981 375.12,269.804 379.132,269.781 375.873,272.122 377.134,275.931 373.901,273.555 
	370.669,275.931 371.929,272.122 368.671,269.781 372.683,269.804 "/>
<polygon fill="#FFDE17" points="393.444,288.978 394.663,292.8 398.675,292.777 395.416,295.118 396.677,298.927 393.444,296.551 
	390.212,298.927 391.472,295.118 388.214,292.777 392.226,292.8 "/>
<polygon fill="#FFDE17" points="430.148,210.637 431.367,214.459 435.379,214.437 432.121,216.777 433.381,220.586 430.148,218.21 
	426.916,220.586 428.176,216.777 424.918,214.437 428.93,214.459 "/>
<polygon fill="#FFDE17" points="690.441,58.801 691.66,62.624 695.672,62.601 692.413,64.942 693.674,68.75 690.441,66.375 
	687.209,68.75 688.469,64.942 685.211,62.601 689.223,62.624 "/>
<polygon fill="#FFDE17" points="781.444,169.39 782.663,173.212 786.675,173.189 783.416,175.53 784.677,179.339 781.444,176.963 
	778.212,179.339 779.472,175.53 776.214,173.189 780.226,173.212 "/>
<polygon fill="#FFDE17" points="735.606,206.166 736.825,209.988 740.837,209.966 737.579,212.307 738.839,216.114 735.606,213.739 
	732.374,216.114 733.634,212.307 730.376,209.966 734.388,209.988 "/>
<polygon fill="#FFDE17" points="291.018,485.465 292.237,489.287 296.249,489.265 292.99,491.605 294.25,495.414 291.018,493.038 
	287.786,495.414 289.046,491.605 285.788,489.265 289.799,489.287 "/>
<polygon fill="#FFDE17" points="310.562,508.461 311.78,512.283 315.792,512.261 312.533,514.602 313.794,518.41 310.562,516.034 
	307.329,518.41 308.589,514.602 305.331,512.261 309.343,512.283 "/>
<polygon fill="#FFDE17" points="506.867,456.26 508.086,460.082 512.098,460.06 508.84,462.4 510.1,466.208 506.867,463.833 
	503.635,466.208 504.895,462.4 501.637,460.06 505.648,460.082 "/>
<polygon fill="#FFDE17" points="558.884,334.87 559.424,336.552 561.19,336.546 559.758,337.579 560.309,339.257 558.884,338.214 
	557.459,339.257 558.01,337.579 556.577,336.546 558.344,336.552 "/>
<polygon fill="#FFDE17" points="531.192,343.169 535.597,356.889 550.006,356.838 538.319,365.267 542.819,378.954 531.192,370.443 
	519.564,378.954 524.065,365.267 512.379,356.838 526.788,356.889 "/>
</svg>
