<?xml version="1.0" encoding="utf-8"?>
<!-- Generator: Adobe Illustrator 21.0.0, SVG Export Plug-In . SVG Version: 6.00 Build 0)  -->
<svg version="1.1" id="Calque_1" xmlns="http://www.w3.org/2000/svg" xmlns:xlink="http://www.w3.org/1999/xlink" x="0px" y="0px"
	 viewBox="0 0 255.1 255.1" style="enable-background:new 0 0 255.1 255.1;" xml:space="preserve">
<style type="text/css">
	.st0{fill:#25A1E5;stroke:#000000;stroke-miterlimit:10;}
	.st1{fill:#E83F23;stroke:#000000;stroke-miterlimit:10;}
	.st2{fill:#EAC321;}
	.st3{fill:none;}
	.st4{fill-rule:evenodd;clip-rule:evenodd;fill:#231F20;}
</style>
<rect x="16.1" y="11.1" class="st0" width="97.9" height="97.9"/>
<rect x="80.8" y="64.1" class="st1" width="97.9" height="97.9"/>
<g>
	<rect x="129.8" y="113.1" class="st2" width="97.9" height="97.9"/>
	<g>
		<g>
			<g>
				<g>
					<g>
						<rect x="220.2" y="120.5" class="st3" width="15" height="13.8"/>
					</g>
					<rect x="226.7" y="130.8" class="st4" width="1.5" height="2.6"/>
					<rect x="226.7" y="126.2" class="st4" width="1.5" height="2.6"/>
					<rect x="226.7" y="121.6" class="st4" width="1.5" height="2.6"/>
				</g>
			</g>
			<g>
				<g>
					<g>
						<rect x="220.2" y="134.4" class="st3" width="15" height="13.8"/>
					</g>
					<rect x="226.7" y="144.6" class="st4" width="1.5" height="2.6"/>
					<rect x="226.7" y="140" class="st4" width="1.5" height="2.6"/>
					<rect x="226.7" y="135.4" class="st4" width="1.5" height="2.6"/>
				</g>
			</g>
			<g>
				<g>
					<g>
						<rect x="220.2" y="148.2" class="st3" width="15" height="13.8"/>
					</g>
					<rect x="226.7" y="158.4" class="st4" width="1.5" height="2.6"/>
					<rect x="226.7" y="153.8" class="st4" width="1.5" height="2.6"/>
					<rect x="226.7" y="149.2" class="st4" width="1.5" height="2.6"/>
				</g>
			</g>
			<g>
				<g>
					<g>
						<rect x="220.2" y="162" class="st3" width="15" height="13.8"/>
					</g>
					<rect x="226.7" y="172.2" class="st4" width="1.5" height="2.6"/>
					<rect x="226.7" y="167.6" class="st4" width="1.5" height="2.6"/>
					<rect x="226.7" y="163" class="st4" width="1.5" height="2.6"/>
				</g>
			</g>
			<g>
				<g>
					<g>
						<rect x="220.2" y="175.8" class="st3" width="15" height="13.8"/>
					</g>
					<rect x="226.7" y="186" class="st4" width="1.5" height="2.6"/>
					<rect x="226.7" y="181.4" class="st4" width="1.5" height="2.6"/>
					<rect x="226.7" y="176.9" class="st4" width="1.5" height="2.6"/>
				</g>
			</g>
			<g>
				<g>
					<g>
						<rect x="220.2" y="189.6" class="st3" width="15" height="13.8"/>
					</g>
					<rect x="226.7" y="199.9" class="st4" width="1.5" height="2.6"/>
					<rect x="226.7" y="195.3" class="st4" width="1.5" height="2.6"/>
					<rect x="226.7" y="190.7" class="st4" width="1.5" height="2.6"/>
				</g>
			</g>
			<g>
				<g>
					<g>
						<rect x="206.3" y="203.5" class="st3" width="13.8" height="15"/>
					</g>
					<rect x="207.4" y="210" class="st4" width="2.6" height="1.5"/>
					<rect x="212" y="210" class="st4" width="2.6" height="1.5"/>
					<rect x="216.5" y="210" class="st4" width="2.6" height="1.5"/>
				</g>
			</g>
			<g>
				<g>
					<g>
						<rect x="192.5" y="203.5" class="st3" width="13.8" height="15"/>
					</g>
					<rect x="193.5" y="210" class="st4" width="2.6" height="1.5"/>
					<rect x="198.1" y="210" class="st4" width="2.6" height="1.5"/>
					<rect x="202.7" y="210" class="st4" width="2.6" height="1.5"/>
				</g>
			</g>
			<g>
				<g>
					<g>
						<rect x="178.7" y="203.5" class="st3" width="13.8" height="15"/>
					</g>
					<rect x="179.7" y="210" class="st4" width="2.6" height="1.5"/>
					<rect x="184.3" y="210" class="st4" width="2.6" height="1.5"/>
					<rect x="188.9" y="210" class="st4" width="2.6" height="1.5"/>
				</g>
			</g>
			<g>
				<g>
					<g>
						<rect x="164.9" y="203.5" class="st3" width="13.8" height="15"/>
					</g>
					<rect x="165.9" y="210" class="st4" width="2.6" height="1.5"/>
					<rect x="170.5" y="210" class="st4" width="2.6" height="1.5"/>
					<rect x="175.1" y="210" class="st4" width="2.6" height="1.5"/>
				</g>
			</g>
			<g>
				<g>
					<g>
						<rect x="151.1" y="203.5" class="st3" width="13.8" height="15"/>
					</g>
					<rect x="152.1" y="210" class="st4" width="2.6" height="1.5"/>
					<rect x="156.7" y="210" class="st4" width="2.6" height="1.5"/>
					<rect x="161.3" y="210" class="st4" width="2.6" height="1.5"/>
				</g>
			</g>
			<g>
				<g>
					<g>
						<rect x="137.2" y="203.5" class="st3" width="13.8" height="15"/>
					</g>
					<rect x="138.3" y="210" class="st4" width="2.6" height="1.5"/>
					<rect x="142.9" y="210" class="st4" width="2.6" height="1.5"/>
					<rect x="147.5" y="210" class="st4" width="2.6" height="1.5"/>
				</g>
			</g>
			<g>
				<g>
					<g>
						<rect x="122.3" y="189.6" class="st3" width="15" height="13.8"/>
					</g>
					<rect x="129.2" y="190.7" class="st4" width="1.5" height="2.6"/>
					<rect x="129.2" y="195.3" class="st4" width="1.5" height="2.6"/>
					<rect x="129.2" y="199.8" class="st4" width="1.5" height="2.6"/>
				</g>
			</g>
			<g>
				<g>
					<g>
						<rect x="122.3" y="175.8" class="st3" width="15" height="13.8"/>
					</g>
					<rect x="129.2" y="176.8" class="st4" width="1.5" height="2.6"/>
					<rect x="129.2" y="181.4" class="st4" width="1.5" height="2.6"/>
					<rect x="129.2" y="186" class="st4" width="1.5" height="2.6"/>
				</g>
			</g>
			<g>
				<g>
					<g>
						<rect x="122.3" y="162" class="st3" width="15" height="13.8"/>
					</g>
					<rect x="129.2" y="163" class="st4" width="1.5" height="2.6"/>
					<rect x="129.2" y="167.6" class="st4" width="1.5" height="2.6"/>
					<rect x="129.2" y="172.2" class="st4" width="1.5" height="2.6"/>
				</g>
			</g>
			<g>
				<g>
					<g>
						<rect x="122.3" y="148.2" class="st3" width="15" height="13.8"/>
					</g>
					<rect x="129.2" y="149.2" class="st4" width="1.5" height="2.6"/>
					<rect x="129.2" y="153.8" class="st4" width="1.5" height="2.6"/>
					<rect x="129.2" y="158.4" class="st4" width="1.5" height="2.6"/>
				</g>
			</g>
			<g>
				<g>
					<g>
						<rect x="122.3" y="134.4" class="st3" width="15" height="13.8"/>
					</g>
					<rect x="129.2" y="135.4" class="st4" width="1.5" height="2.6"/>
					<rect x="129.2" y="140" class="st4" width="1.5" height="2.6"/>
					<rect x="129.2" y="144.6" class="st4" width="1.5" height="2.6"/>
				</g>
			</g>
			<g>
				<g>
					<g>
						<rect x="122.3" y="120.5" class="st3" width="15" height="13.8"/>
					</g>
					<rect x="129.2" y="121.6" class="st4" width="1.5" height="2.6"/>
					<rect x="129.2" y="126.2" class="st4" width="1.5" height="2.6"/>
					<rect x="129.2" y="130.8" class="st4" width="1.5" height="2.6"/>
				</g>
			</g>
			<g>
				<g>
					<g>
						<rect x="137.2" y="105.6" class="st3" width="13.8" height="15"/>
					</g>
					<rect x="147.5" y="112.5" class="st4" width="2.6" height="1.5"/>
					<rect x="142.9" y="112.5" class="st4" width="2.6" height="1.5"/>
					<rect x="138.3" y="112.5" class="st4" width="2.6" height="1.5"/>
				</g>
			</g>
			<g>
				<g>
					<g>
						<rect x="151.1" y="105.6" class="st3" width="13.8" height="15"/>
					</g>
					<rect x="161.3" y="112.5" class="st4" width="2.6" height="1.5"/>
					<rect x="156.7" y="112.5" class="st4" width="2.6" height="1.5"/>
					<rect x="152.1" y="112.5" class="st4" width="2.6" height="1.5"/>
				</g>
			</g>
			<g>
				<g>
					<g>
						<rect x="164.9" y="105.6" class="st3" width="13.8" height="15"/>
					</g>
					<rect x="175.1" y="112.5" class="st4" width="2.6" height="1.5"/>
					<rect x="170.5" y="112.5" class="st4" width="2.6" height="1.5"/>
					<rect x="165.9" y="112.5" class="st4" width="2.6" height="1.5"/>
				</g>
			</g>
			<g>
				<g>
					<g>
						<rect x="178.7" y="105.6" class="st3" width="13.8" height="15"/>
					</g>
					<rect x="188.9" y="112.5" class="st4" width="2.6" height="1.5"/>
					<rect x="184.3" y="112.5" class="st4" width="2.6" height="1.5"/>
					<rect x="179.7" y="112.5" class="st4" width="2.6" height="1.5"/>
				</g>
			</g>
			<g>
				<g>
					<g>
						<rect x="192.5" y="105.6" class="st3" width="13.8" height="15"/>
					</g>
					<rect x="202.7" y="112.5" class="st4" width="2.6" height="1.5"/>
					<rect x="198.1" y="112.5" class="st4" width="2.6" height="1.5"/>
					<rect x="193.6" y="112.5" class="st4" width="2.6" height="1.5"/>
				</g>
			</g>
			<g>
				<g>
					<g>
						<rect x="206.3" y="105.6" class="st3" width="13.8" height="15"/>
					</g>
					<rect x="216.6" y="112.5" class="st4" width="2.6" height="1.5"/>
					<rect x="212" y="112.5" class="st4" width="2.6" height="1.5"/>
					<rect x="207.4" y="112.5" class="st4" width="2.6" height="1.5"/>
				</g>
			</g>
			<g>
				<rect x="226.8" y="204.5" class="st4" width="1.5" height="2.5"/>
				<polygon class="st4" points="228.3,211.5 228.3,209 226.8,209 226.8,210 225.8,210 225.8,211.5 				"/>
				<rect x="221.3" y="210" class="st4" width="2.5" height="1.5"/>
			</g>
			<g>
				<rect x="133.7" y="210.1" class="st4" width="2.5" height="1.5"/>
				<polygon class="st4" points="129.2,211.6 131.7,211.6 131.7,210.1 130.7,210.1 130.7,209.1 129.2,209.1 				"/>
				<rect x="129.2" y="204.6" class="st4" width="1.5" height="2.5"/>
			</g>
			<g>
				<rect x="129.1" y="117" class="st4" width="1.5" height="2.5"/>
				<polygon class="st4" points="129.1,112.5 129.1,115 130.6,115 130.6,114 131.6,114 131.6,112.5 				"/>
				<rect x="133.6" y="112.5" class="st4" width="2.5" height="1.5"/>
			</g>
			<g>
				<rect x="221.2" y="112.4" class="st4" width="2.5" height="1.5"/>
				<polygon class="st4" points="228.2,112.4 225.7,112.4 225.7,113.9 226.7,113.9 226.7,114.9 228.2,114.9 				"/>
				<rect x="226.7" y="116.9" class="st4" width="1.5" height="2.5"/>
			</g>
		</g>
	</g>
</g>
</svg>
