<?xml version="1.0" encoding="UTF-8"?>
<svg xmlns="http://www.w3.org/2000/svg" xmlns:xlink="http://www.w3.org/1999/xlink" enable-background="new 0 0 401.582 295.167" height="295.167px" id="Layer_1" version="1.1" viewBox="0 0 401.582 295.167" width="401.582px" x="0px" xml:space="preserve" y="0px">
  <path d="M239.445,130.68c0,0-9.12,1.141-11.173,6.391c-2.052,5.249-2.279,28.759-13.909,30.813  c-11.628,2.055-23.943,3.195-31.239,0c-7.296-3.196-13.909-9.586-13.683-15.064c0.229-5.478-0.456-15.293-3.647-18.489  c-3.188-3.194-8.894-5.477-8.894-5.477s-0.913,4.335-0.457,6.848c0.456,2.511,1.143,24.651,4.562,29.215  c3.42,4.562,8.665,14.836,14.143,17.348c5.473,2.512,14.814,4.336,21.207,4.336c6.386,0,22.802,0.684,30.099-9.814  c7.298-10.5,11.63-23.738,10.946-30.583c-0.688-6.848,2.273-5.251,2.508-7.305C240.129,136.842,240.813,130.68,239.445,130.68z" fill="#FFFFFF" id="machoire"/>
</svg>
